<ttFont>
<head>
    <!-- Most of this table will be recalculated by the compiler -->
    <tableVersion value="1.0"/>
    <fontRevision value="2.004"/>
    <checkSumAdjustment value="0xf1b5c328"/>
    <magicNumber value="0x5f0f3cf5"/>
    <flags value="00000000 00000011"/>
    <unitsPerEm value="1000"/>
    <created value="Thu Oct  8 09:59:31 2009"/>
    <modified value="Thu Oct  8 09:59:31 2009"/>
    <xMin value="-422"/>
    <yMin value="-280"/>
    <xMax value="1394"/>
    <yMax value="1127"/>
    <macStyle value="00000000 00000000"/>
    <lowestRecPPEM value="3"/>
    <fontDirectionHint value="2"/>
    <indexToLocFormat value="0"/>
    <glyphDataFormat value="0"/>
  </head>
          <CharString index="0">
            702 hmoveto
            29 vlineto
            -65 -18 0 41 -14 hvcurveto
            -218 626 rlineto
            12 -4 -2 6 -14 hhcurveto
            -14 -2 -3 -16 -5 hvcurveto
            -209 -598 -14 -41 -28 -26 -64 -1 rlinecurve
            -29 vlineto
            96 2 rlineto
            28 48 -42 callgsubr
            -42 1 -25 21 28 vvcurveto
            6 0 2 5 13 vhcurveto
            46 133 rlineto
            252 hlineto
            55 -157 rlineto
            5 -12 56 callgsubr
            -30 -51 0 -25 vhcurveto
            -29 vlineto
            119 callsubr
            28 72 22 callgsubr
            -247 262 rmoveto
            -232 hlineto
            116 333 rlineto
            return
          </CharString>
          <CharString index="1">
            474 89 rmoveto
            56 -22 -56 vlineto
            -57 -24 -8 -14 -38 0 53 15 vhcurveto
            175 vlineto
            54 0 40 -44 39 vhcurveto
            32 -35 -45 14 -44 hhcurveto
            -82 -63 -54 -65 -29 19 -14 23 24 17 17 24 41 -36 0 -15 hvcurveto
            42 23 48 18 40 hhcurveto
            46 59 -38 -90 hvcurveto
            -40 vlineto
            -201 -3 -76 -84 -77 vvcurveto
            hintmask 0100000000000000
            -79 92 -25 61 66 45 40 48 19 vhcurveto
            return
          </CharString>
          <CharString index="2">
            hstemhm
            hintmask 11100000
            -107 callsubr
            return
          </CharString>
          <CharString index="3">
            rmoveto
            21 2 -16 18 -21 hhcurveto
            -10 -6 -6 -8 -8 hvcurveto
            -143 -129 4 -6 4 -6 5 -6 rlinecurve
            168 96 18 10 2 11 1 5 rlinecurve
            endchar
          </CharString>
          <CharString index="4">
            -20 -101 callsubr
            return
          </CharString>
          <CharString index="5">
            521 71 callgsubr
            356 vlineto
            -141 -80 callgsubr
            -179 vlineto
            -85 -45 -71 -75 -82 -5 47 53 vhcurveto
            331 -15 callsubr
            76 0 -3 -89 hvcurveto
            -150 vlineto
            -62 0 -36 30 -33 vhcurveto
            -26 24 41 -12 51 hhcurveto
            17 32 0 29 34 hvcurveto
            29 23 16 38 0 vvcurveto
            -90 vlineto
            return
          </CharString>
          <CharString index="6">
            4 callsubr
            hintmask 1001100111000000
            -106 callsubr
            hintmask 1010000111000000
            -88 callgsubr
            return
          </CharString>
          <CharString index="7">
            707 339 rmoveto
            207 -152 158 -174 -178 -149 -160 -205 -203 151 -157 175 179 148 159 201 vhcurveto
            -93 15 rmoveto
            -260 -136 -92 -97 -102 -132 96 256 245 139 83 94 99 135 -86 -242 vhcurveto
            return
          </CharString>
          <CharString index="8">
            27 -21 17 -22 -25 -19 -20 -24 -23 20 -20 23 27 17 22 21 vhcurveto
            return
          </CharString>
          <CharString index="9">
            rmoveto
            -96 callsubr
            return
          </CharString>
          <CharString index="10">
            317 hmoveto
            29 -22 vlineto
            -75 -6 callgsubr
            75 vhcurveto
            22 81 callgsubr
            -86 0 -30 hhcurveto
            -30 -87 0 2 -24 hvcurveto
            -29 22 vlineto
            75 -58 callsubr
            -531 vlineto
            -18 callsubr
            -75 vhcurveto
            -22 -29 hlineto
            2 24 86 22 callsubr
            87 37 callgsubr
            return
          </CharString>
          <CharString index="11">
            30 -24 19 -24 -28 -21 -22 -27 -26 22 -22 26 30 19 24 24 vhcurveto
            return
          </CharString>
          <CharString index="12">
            -85 callgsubr
            26 54 0 28 hhcurveto
            29 54 0 -2 26 113 callgsubr
            186 vlineto
            105 69 56 62 62 14 -51 -61 vhcurveto
            -235 -85 callgsubr
            26 54 0 28 hhcurveto
            29 54 -44 callgsubr
            return
          </CharString>
          <CharString index="13">
            719 242 88 callsubr
            -69 0 -30 hhcurveto
            -32 -87 0 2 -27 hvcurveto
            -29 31 vlineto
            88 3 -12 -36 hvcurveto
            -64 vlineto
            -114 -131 -8 -26 -79 -187 48 286 289 189 44 70 87 104 -63 -177 26 vhcurveto
            -11 2 0 -3 12 hhcurveto
            14 0 3 20 hvcurveto
            237 vlineto
            18 0 5 -10 -6 -1 -2 -10 -6 vhcurveto
            -49 -79 rlineto
            36 -29 -61 55 -95 hhcurveto
            -181 -159 -157 -205 -207 159 -156 182 71 81 23 64 37 hvcurveto
            -32 18 33 -33 8 hhcurveto
            8 0 6 16 hvcurveto
            175 vlineto
            39 4 5 64 vhcurveto
            return
          </CharString>
          <CharString index="14">
            hstemhm
            30 76 277 76 hintmask 11001100
            -102 callgsubr
            return
          </CharString>
          <CharString index="15">
            36 callsubr
            hintmask 11000010
            -86 callsubr
            hintmask 10110011
            22 2 0 19 101 -54 94 -121 -114 -88 -103 -124 -132 102 -97 111 119 45 108 21 128 callgsubr
            -238 hlineto
            157 8 88 18 28 hhcurveto
            107 6 -141 -34 1 hvcurveto
            hintmask 00001100
            return
          </CharString>
          <CharString index="16">
            692 37 callsubr
            hlineto
            -2 -24 -82 0 -29 hhcurveto
            -30 -82 0 2 -24 hvcurveto
            -29 20 vlineto
            -57 callsubr
            -237 -299 237 vlineto
            37 3 10 72 vhcurveto
            20 81 callgsubr
            -82 0 -29 hhcurveto
            -30 -82 0 2 -24 hvcurveto
            -29 20 vlineto
            36 callgsubr
            265 299 -265 vlineto
            -71 callgsubr
            return
          </CharString>
          <CharString index="17">
            352 127 rmoveto
            54 -33 32 -9 9 vhcurveto
            -36 31 -27 6 -66 12 rrcurveto
            -30 6 -73 14 60 vvcurveto
            31 21 46 90 109 6 -93 -31 2 vhcurveto
            -8 1 7 0 3 hhcurveto
            11 0 5 18 hvcurveto
            104 vlineto
            18 0 5 -10 -8 -19 -22 -9 -7 vhcurveto
            25 -31 -31 6 -32 hhcurveto
            -121 -36 -66 -55 -11 0 -35 38 -35 hvcurveto
            32 -28 34 -7 46 -9 55 -11 13 -3 25 -20 rrcurveto
            18 -15 13 -22 -28 vvcurveto
            -43 -25 -48 -88 -66 -48 38 100 -22 vhcurveto
            -4 18 -1 2 0 vvcurveto
            4 -2 -4 0 -3 hhcurveto
            -11 0 -5 -18 hvcurveto
            -136 vlineto
            -18 0 -5 10 5 1 1 21 17 vhcurveto
            5 7 0 2 15 16 rrcurveto
            -47 38 54 0 17 hhcurveto
            105 52 58 79 hvcurveto
            return
          </CharString>
          <CharString index="18">
            988 654 65 callsubr
            -43 -2 0 -44 hhcurveto
            -26 -54 0 2 -24 hvcurveto
            -29 vlineto
            61 -1 18 -32 -20 vvcurveto
            -5 -3 -8 -2 -7 vhcurveto
            -152 -474 -162 503 rlineto
            -1 3 -2 8 3 vvcurveto
            30 53 0 24 17 callsubr
            -24 -74 0 -29 hhcurveto
            -29 -61 0 2 -26 hvcurveto
            -29 vlineto
            53 14 -3 -18 11 hvcurveto
            7 -13 7 -31 13 -36 -143 -446 rcurveline
            -160 498 rlineto
            -5 14 0 2 3 vvcurveto
            30 51 0 26 53 callgsubr
            -76 81 callsubr
            -61 0 2 -26 hvcurveto
            -29 vlineto
            54 19 0 -38 12 hvcurveto
            198 -618 rlineto
            -15 5 4 -4 9 hhcurveto
            8 5 3 15 5 hvcurveto
            166 519 167 -519 rlineto
            -15 5 5 -3 8 hhcurveto
            9 4 4 15 5 hvcurveto
            188 587 16 48 29 20 50 1 rlinecurve
            return
          </CharString>
          <CharString index="19">
            671 455 rmoveto
            -18 223 rlineto
            -600 hlineto
            -18 -223 rlineto
            22 hlineto
            158 14 9 36 158 hhcurveto
            18 28 0 -2 8 hvcurveto
            20 -3 1 -12 -23 vvcurveto
            -532 vlineto
            -34 0 -14 -98 vhcurveto
            -36 -29 hlineto
            2 32 103 0 39 hhcurveto
            39 104 0 -2 32 hvcurveto
            29 -36 vlineto
            -98 0 14 34 hvcurveto
            532 vlineto
            25 2 9 16 4 vhcurveto
            2 8 29 0 19 hhcurveto
            158 9 -36 -158 14 hvcurveto
            return
          </CharString>
          <CharString index="20">
            hstemhm
            19 75 0 75 254 75 hintmask 0001000010000000
            498 402 65 callsubr
            -29 -14 0 -32 hhcurveto
            -81 2 rlineto
            -29 vlineto
            37 -2 9 -23 -18 vvcurveto
            -9 -2 -5 -4 -10 vhcurveto
            -102 -252 rlineto
            hintmask 0010000100000000
            -111 272 rlineto
            -6 14 0 7 0 vvcurveto
            hintmask 0101000100000000
            26 35 0 20 17 callsubr
            -26 -49 0 -28 hhcurveto
            -97 2 rlineto
            -29 vlineto
            58 8 -5 -31 13 hvcurveto
            149 -366 -44 -106 0 -2 -4 -8 rlinecurve
            -30 -17 -27 -38 -45 hhcurveto
            -31 -19 18 0 hvcurveto
            0 35 4 35 vvcurveto
            24 -19 13 -18 vhcurveto
            hintmask 1001001010000000
            -17 -21 -10 -29 -38 37 -37 53 56 41 49 63 26 hvcurveto
            173 426 rlineto
            67 27 47 1 19 hhcurveto
            hintmask 0000110000000000
            return
          </CharString>
          <CharString index="21">
            407 119 rmoveto
            6 -5 4 -6 -8 -2 -5 -5 -2 vhcurveto
            -84 -26 -67 -23 -42 hhcurveto
            -42 -101 28 173 hvcurveto
            19 277 vlineto
            return
          </CharString>
          <CharString index="22">
            34 -37 -49 20 -51 hhcurveto
            -58 -54 -26 -42 -40 hvcurveto
            -41 -45 -21 -59 -61 vvcurveto
            -59 22 -57 40 -42 vhcurveto
            -41 40 55 -24 57 hhcurveto
            57 55 24 41 39 hvcurveto
            41 42 22 57 59 vvcurveto
            59 -20 57 -39 45 vhcurveto
            41 8 29 42 46 vvcurveto
            -87 -246 rmoveto
            -53 -2 -56 -30 -44 vhcurveto
            -37 -23 -40 -22 -43 hhcurveto
            -43 -40 22 37 -24 hvcurveto
            -29 44 -2 56 53 vvcurveto
            50 3 53 28 42 vhcurveto
            35 24 40 22 43 hhcurveto
            43 39 -22 -35 24 hvcurveto
            29 -42 3 -53 -50 vvcurveto
            return
          </CharString>
          <CharString index="23">
            -25 callsubr
            537 -6 callsubr
            -29 -88 0 -35 hhcurveto
            -30 -89 -43 callsubr
            503 hlineto
            return
          </CharString>
          <CharString index="24">
            -136 -80 callgsubr
            -271 -95 callsubr
            return
          </CharString>
          <CharString index="25">
            vlineto
            -45 -11 0 -65 vhcurveto
            -29 vlineto
            return
          </CharString>
          <CharString index="26">
            10 callsubr
            64 9 -6 -49 hvcurveto
            -272 -85 callgsubr
            28 48 0 29 hhcurveto
            11 58 0 -2 34 hvcurveto
            return
          </CharString>
          <CharString index="27">
            rmoveto
            -143 129 rlineto
            8 -9 -6 6 -10 hhcurveto
            -20 -17 -18 -21 3 hvcurveto
            1 -5 2 -11 18 -10 168 -96 rcurveline
            5 6 4 6 4 6 rrcurveto
            endchar
          </CharString>
          <CharString index="28">
            39 37 -11 -28 27 hvcurveto
            34 -38 0 -21 -69 vvcurveto
            -79 0 -26 44 -43 vhcurveto
            -15 15 42 -23 56 hhcurveto
            78 13 87 21 hvcurveto
            -212 416 rmoveto
            -87 -47 -64 -130 vhcurveto
            -112 262 hlineto
            23 0 12 21 4 vhcurveto
            1 9 30 0 20 hhcurveto
            return
          </CharString>
          <CharString index="29">
            75 callgsubr
            hintmask 11001000
            -97 callsubr
            return
          </CharString>
          <CharString index="30">
            rmoveto
            -44 -29 -16 -34 -47 -16 28 32 44 29 16 34 47 16 -28 -32 vhcurveto
            30 -1 rmoveto
            52 -44 37 -48 -55 -39 -42 -45 -52 44 -37 48 55 39 42 45 vhcurveto
            return
          </CharString>
          <CharString index="31">
            rmoveto
            -99 callsubr
            188 hmoveto
            -99 callsubr
            endchar
          </CharString>
          <CharString index="32">
            rmoveto
            -119 152 rlineto
            11 -8 -6 7 -14 hhcurveto
            -17 -17 -15 -18 -5 0 -11 16 -13 hvcurveto
            149 -124 6 5 5 5 5 6 rlinecurve
            endchar
          </CharString>
          <CharString index="33">
            -45 callsubr
            -529 vlineto
            -19 callsubr
            return
          </CharString>
          <CharString index="34">
            166 rmoveto
            102 -72 45 -78 48 vhcurveto
            50 27 73 46 84 vvcurveto
            87 -84 60 -92 -99 -78 -73 -91 -34 10 -34 28 -34 vhcurveto
            11 -13 1 -1 70 -49 rrcurveto
            hintmask 11010010
            -97 -45 -50 -67 -73 vvcurveto
            -106 101 -66 102 111 93 82 105 vhcurveto
            -68 351 rmoveto
            -61 -44 -49 -58 -32 vhcurveto
            -116 76 rlineto
            hintmask 10101100
            -13 9 -40 26 49 vvcurveto
            65 68 41 67 72 64 -52 -72 vhcurveto
            22 -383 rmoveto
            -76 -77 -52 -80 vhcurveto
            hintmask 00010010
            -85 -73 62 83 78 57 63 65 30 hvcurveto
            121 -79 rlineto
            26 -17 46 -31 -61 vvcurveto
            endchar
          </CharString>
          <CharString index="35">
            -85 callgsubr
            28 49 22 callsubr
            50 94 callsubr
            return
          </CharString>
          <CharString index="36">
            548 264 rmoveto
            -22 hlineto
            -141 -7 -21 -92 -182 hhcurveto
            -169 hlineto
            388 617 rlineto
            8 13 0 1 7 vvcurveto
            14 -5 0 -19 vhcurveto
            -440 hlineto
            -11 -223 rlineto
            22 hlineto
            113 7 31 81 162 hhcurveto
            160 hlineto
            -396 -630 rlineto
            -23 1 -1 23 vhcurveto
            454 hlineto
            return
          </CharString>
          <CharString index="37">
            -68 callgsubr
            hintmask 00011000
            return
          </CharString>
          <CharString index="38">
            63 -4 -11 callsubr
            hintmask 1010001000000000
            -36 callsubr
            hintmask 0100001010000000
            -61 callsubr
            return
          </CharString>
          <CharString index="39">
            rmoveto
            -152 162 -152 -162 13 -14 139 108 139 -108 rlineto
            return
          </CharString>
          <CharString index="40">
            856 256 rmoveto
            -22 hlineto
            -154 -23 -19 -73 -162 hhcurveto
            -102 hlineto
            -44 -2 7 33 hvcurveto
            245 88 vlineto
            95 8 -34 -83 hvcurveto
            22 263 -22 hlineto
            -83 -8 -34 -95 vhcurveto
            -88 271 hlineto
            33 2 7 44 vhcurveto
            103 hlineto
            137 25 -54 -140 14 hvcurveto
            22 hlineto
            -26 223 rlineto
            -545 -29 41 hlineto
            12 14 0 -1 12 hvcurveto
            -200 -558 rlineto
            -49 -18 -37 -17 -51 hhcurveto
            -29 vlineto
            96 2 rlineto
            27 51 0 -2 25 hvcurveto
            29 vlineto
            -48 1 -19 24 25 vvcurveto
            6 0 2 5 13 vhcurveto
            76 214 rlineto
            163 -241 hlineto
            -39 -4 -5 -67 vhcurveto
            -29 480 vlineto
            -409 343 rmoveto
            -152 hlineto
            110 308 rlineto
            42 -1 0 -28 -17 vvcurveto
            return
          </CharString>
          <CharString index="41">
            683 342 rmoveto
            188 -153 153 -188 -189 -153 -153 -188 -189 153 -153 189 188 153 153 189 vhcurveto
            -36 hmoveto
            -169 -137 -137 -168 -169 -137 137 169 168 137 137 169 168 137 -137 -168 vhcurveto
            return
          </CharString>
          <CharString index="42">
            693 335 rmoveto
            193 -135 155 -166 vhcurveto
            -350 91 callsubr
            350 hlineto
            167 134 150 185 hvcurveto
            -91 1 rmoveto
            -56 -1 -94 -57 -74 vhcurveto
            -42 -33 -60 -41 -84 hhcurveto
            -105 hlineto
            -44 -2 7 33 hvcurveto
            545 vlineto
            33 2 7 44 vhcurveto
            105 hlineto
            83 66 -40 -66 41 hvcurveto
            45 -71 0 -101 -40 vvcurveto
            return
          </CharString>
          <CharString index="43">
            rmoveto
            -99 callsubr
            160 hmoveto
            -99 callsubr
            endchar
          </CharString>
          <CharString index="44">
            393 184 rmoveto
            -22 hlineto
            -114 -9 -17 -48 -119 hhcurveto
            -121 hlineto
            276 381 rlineto
            9 11 0 2 4 vvcurveto
            11 -7 0 -17 vhcurveto
            -314 hlineto
            -11 -159 rlineto
            22 hlineto
            102 6 19 37 109 hhcurveto
            116 hlineto
            -286 -393 rlineto
            -18 2 0 22 vhcurveto
            326 hlineto
            return
          </CharString>
          <CharString index="45">
            62 -23 40 -40 -29 -19 -22 -26 -27 19 -22 30 27 13 20 0 vhcurveto
            1 -7 1 -5 -13 vvcurveto
            return
          </CharString>
          <CharString index="46">
            80 callsubr
            157 vlineto
            97 40 91 77 8 2 0 -1 4 vhcurveto
            -8 -4 -16 -6 -27 vvcurveto
            -29 23 -11 16 20 20 13 27 vhcurveto
            return
          </CharString>
          <CharString index="47">
            rmoveto
            -13 14 -139 -108 -139 108 -13 -14 152 -162 rlineto
            endchar
          </CharString>
          <CharString index="48">
            2 24 82 0 29 hhcurveto
            30 13 callsubr
            return
          </CharString>
          <CharString index="49">
            3 -10 -37 hvcurveto
            return
          </CharString>
          <CharString index="50">
            72 -58 callsubr
            return
          </CharString>
          <CharString index="51">
            64 11 -21 240 19 -17 19 33 82 80 -20 hstemhm
            46 71 204 65 231 62 hintmask 00111011
            679 119 rmoveto
            6 -5 4 -6 -8 -2 -6 -3 -1 vhcurveto
            -84 -24 -59 -24 -42 hhcurveto
            -44 -43 26 46 -28 hvcurveto
            -31 51 0 62 35 vvcurveto
            269 hlineto
            22 2 0 19 108 -55 87 -108 -55 -55 -27 -51 -37 hvcurveto
            74 -50 -76 4 -24 hhcurveto
            -85 -61 -56 -63 -29 19 -14 23 24 17 17 24 41 -36 0 -15 hvcurveto
            43 23 51 17 37 hhcurveto
            47 58 -38 -90 hvcurveto
            hintmask 11000111
            -49 vlineto
            -248 -8 -27 -105 -46 vvcurveto
            -71 82 -29 70 74 64 34 56 27 vhcurveto
            -81 60 74 -9 31 hhcurveto
            109 42 109 20 128 callgsubr
            hintmask 00100101
            -230 hlineto
            163 12 95 12 21 hhcurveto
            97 4 -142 -33 1 hvcurveto
            -285 -118 rmoveto
            -73 -63 -50 -64 -47 -41 33 48 27 13 48 53 30 vhcurveto
            hintmask 01000010
            49 28 55 4 34 2 rrcurveto
            -23 0 -19 7 -27 vhcurveto
            4 -17 0 -1 -10 vvcurveto
            endchar
          </CharString>
          <CharString index="52">
            350 0 -21 21 29 311 29 285 29 21 -20 hstemhm
            67 91 315 69 -39 69 224 22 98 22 5 22 hintmask 0111000111100000
            965 256 rmoveto
            -22 hlineto
            -155 -24 -20 -72 -165 hhcurveto
            -116 hlineto
            -44 -2 7 33 hvcurveto
            271 110 vlineto
            100 14 -30 -87 hvcurveto
            22 263 -22 hlineto
            -86 -14 -31 -100 vhcurveto
            -110 245 hlineto
            33 2 7 44 vhcurveto
            118 hlineto
            139 27 -52 -142 14 hvcurveto
            22 hlineto
            -26 223 rlineto
            hintmask 1001111000000000
            -370 hlineto
            -16 -14 0 9 -39 hvcurveto
            9 -40 -18 3 -23 hhcurveto
            -171 -154 -155 -210 -206 154 -154 171 24 20 4 8 34 hvcurveto
            hintmask 0100011000100000
            9 42 16 0 14 hhcurveto
            383 hlineto
            -422 342 rmoveto
            -98 0 -96 -4 -36 vhcurveto
            -59 -7 -6 -54 -91 hhcurveto
            -129 -108 155 200 194 113 136 123 87 11 -48 -57 6 hvcurveto
            hintmask 0000000100000000
            3 -24 2 -21 -192 vvcurveto
            endchar
          </CharString>
          <CharString index="53">
            654 65 callsubr
            -25 -72 0 -29 hhcurveto
            -33 -87 0 2 -27 hvcurveto
            -29 31 vlineto
            89 3 -12 -36 hvcurveto
            -459 vlineto
            -89 -47 -59 -54 -21 -59 8 58 -30 vhcurveto
            30 -5 30 18 36 vvcurveto
            24 -16 25 -34 -23 -26 -14 -37 return
          </CharString>
          <CharString index="54">
            -5 29 -13 -21 250 19 25 82 80 -20 return
          </CharString>
          <CharString index="55">
            -11 callgsubr
            190 hmoveto
            -67 callgsubr
            endchar
          </CharString>
          <CharString index="56">
            rmoveto
            13 -10 6 -8 -10 -3 -5 -10 -8 vhcurveto
            -86 -64 -85 -8 -38 hhcurveto
            -19 -86 0 78 -81 hvcurveto
            21 -21 -22 10 -26 hhcurveto
            -24 callsubr
            29 -2 37 -20 50 hvcurveto
            -38 65 56 -5 29 hhcurveto
            27 55 5 33 53 hvcurveto
            1 -1 -446 -678 rlineto
            -6 -9 -2 -3 -5 vvcurveto
            -11 9 -8 10 9 5 7 7 5 vhcurveto
            497 756 rlineto
            6 9 2 3 5 vvcurveto
            return
          </CharString>
          <CharString index="57">
            rmoveto
            104 -2 -68 68 -75 hhcurveto
            -80 -64 -71 -101 -2 hvcurveto
            20 hlineto
            87 2 63 50 60 hhcurveto
            64 60 -52 -85 2 hvcurveto
            endchar
          </CharString>
          <CharString index="58">
            515 71 callgsubr
            609 vlineto
            -139 -80 callgsubr
            -221 vlineto
            29 -21 -43 35 -61 hhcurveto
            -116 -100 -98 -128 -127 95 -98 110 76 44 50 19 14 hvcurveto
            -69 vlineto
            127 vmoveto
            -18 0 -3 -14 -22 vhcurveto
            return
          </CharString>
          <CharString index="59">
            0 29 373 29 273 -20 hstemhm
            104 63 0 65 -37 65 -32 70 -65 65 67 70 -43 70 hintmask 1111000110000000
            462 174 rmoveto
            110 -65 102 -99 33 vhcurveto
            75 20 62 54 70 vvcurveto
            75 -72 66 -95 -80 -84 -51 -96 vhcurveto
            -126 -76 -29 76 39 callgsubr
            27 30 0 27 hhcurveto
            18 23 0 -2 14 hvcurveto
            557 vlineto
            121 87 6 14 41 56 -32 -88 vhcurveto
            hintmask 0100001000000000
            -122 -112 -9 -25 -2 vhcurveto
            -7 -1 0 -9 0 vvcurveto
            hintmask 0000100101000000
            -9 5 0 7 -1 vhcurveto
            107 -10 52 -109 -118 vvcurveto
            -132 -68 -32 -37 -6 -29 1 19 -20 vhcurveto
            hintmask 0000010000000000
            21 4 7 16 12 vvcurveto
            hintmask 0000001000000000
            22 -16 11 -16 vhcurveto
            hintmask 0000010001000000
            -17 -16 -11 -23 -37 37 -34 57 88 85 74 110 hvcurveto
            endchar
          </CharString>
          <CharString index="60">
            -51 rmoveto
            492 vlineto
            -147 -11 rlineto
            -29 vlineto
            75 9 -7 -49 hvcurveto
            -400 vlineto
            -55 -11 -74 -58 vhcurveto
            0 -33 0 -23 14 vhcurveto
            return
          </CharString>
          <CharString index="61">
            -23 rmoveto
            92 -74 72 -96 17 vhcurveto
            87 25 56 73 78 vvcurveto
            79 -82 58 -97 -100 -74 -61 -73 vhcurveto
            hintmask 000010001000000000000000
            -40 31 -8 15 21 24 15 30 32 -24 14 -22 vhcurveto
            hintmask 000000000001000000000000
            -6 -2 0 -1 -3 hvcurveto
            hintmask 000000100000100100000000
            68 38 94 0 5 hhcurveto
            33 65 -15 -98 hvcurveto
            hintmask 000100000010010000000000
            -19 -3 -56 -29 -43 vhcurveto
            -30 -44 -34 -3 -27 -1 -30 -3 rcurveline
            hintmask 000000000100000000000000
            -17 -1 -4 -1 -9 vvcurveto
            hintmask 100100000001001010000000
            -10 5 0 18 vhcurveto
            46 hlineto
            85 38 -70 -96 -131 -68 -35 -49 hvcurveto
            hintmask 000000000100000000000000
            -48 -82 23 66 -29 hvcurveto
            hintmask 010000000000100000000000
            32 -5 29 18 36 vvcurveto
            hintmask 001000000010000000000000
            29 -21 20 -28 vhcurveto
            hintmask 110000010000000010000000
            -24 -26 -14 -38 -89 89 -73 111 119 88 91 101 hvcurveto
            endchar
          </CharString>
          <CharString index="62">
            -29 20 hlineto
            -57 callsubr
            return
          </CharString>
          <CharString index="63">
            209 -38 callsubr
            return
          </CharString>
          <CharString index="64">
            0 2 -24 hvcurveto
            -29 20 vlineto
            -57 callsubr
            -531 vlineto
            -19 callsubr
            return
          </CharString>
          <CharString index="65">
            201 rmoveto
            119 -80 99 -105 -57 -44 -25 -28 -26 vhcurveto
            207 vlineto
            hintmask 0000100100000000
            -14 43 35 -1 11 hhcurveto
            113 72 83 14 4 -2 5 -6 hvcurveto
            hintmask 0000001000000000
            0 -4 0 -9 -4 vhcurveto
            -24 -56 -48 -3 -26 hhcurveto
            hintmask 0000010000000000
            -66 -47 20 8 -19 hvcurveto
            hintmask 0101000110100000
            -7 3 -3 0 0 vvcurveto
            -8 0 -6 -16 hvcurveto
            -297 vlineto
            -18 0 -6 12 5 1 1 12 10 vhcurveto
            41 28 47 24 50 hhcurveto
            53 26 -49 -17 8 hvcurveto
            17 -39 1 -49 -38 vvcurveto
            -38 0 -57 -28 -45 vhcurveto
            hintmask 1010000001100000
            -36 -22 -39 -25 -44 hhcurveto
            -66 -65 45 73 -18 hvcurveto
            -2 5 6 -1 5 hhcurveto
            17 27 10 34 28 -19 16 -25 -18 -26 -9 -39 -85 68 -97 111 113 99 95 127 hvcurveto
            endchar
          </CharString>
          <CharString index="66">
            326 124 rmoveto
            57 -22 -55 vlineto
            -72 -29 -42 -39 -68 0 93 17 vhcurveto
            280 141 29 -141 184 vlineto
            return
          </CharString>
          <CharString index="67">
            76 hintmask 00100000
            469 470 rmoveto
            31 -20 27 -29 -32 -16 -25 -24 -24 16 -25 32 5 5 1 1 4 vhcurveto
            -11 -20 -19 -15 -23 -5 rrcurveto
            return
          </CharString>
          <CharString index="68">
            -106 -51 -76 -54 -14 -73 7 174 176 72 6 15 55 50 -78 -103 vhcurveto
            return
          </CharString>
          <CharString index="69">
            604 rmoveto
            -99 callsubr
            160 hmoveto
            -99 callsubr
            return
          </CharString>
          <CharString index="70">
            109 93 95 130 hvcurveto
            -82 1 rmoveto
            -51 0 -45 -19 -38 vhcurveto
            -48 -25 -36 -17 -40 hhcurveto
            -63 -30 56 21 -9 hvcurveto
            -9 26 -10 49 70 vvcurveto
            79 36 99 90 55 29 -37 -34 15 vhcurveto
            16 -37 0 -50 -43 vvcurveto
            endchar
          </CharString>
          <CharString index="71">
            -64 callgsubr
            hintmask 1000000100000000
            -20 hlineto
            return
          </CharString>
          <CharString index="72">
            2 -1 2 -1 1 vhcurveto
            -64 66 -49 78 -29 87 rrcurveto
            3 -2 -2 2 -4 hhcurveto
            -3 hlineto
            -4 -4 -3 -5 hvcurveto
            0 0 -1 -1 vvcurveto
            20 -82 32 -78 46 -71 -46 -72 -32 -78 -20 -82 rrcurveto
            -1 0 0 -1 vvcurveto
            -4 4 -4 4 vhcurveto
            3 hlineto
            4 2 2 3 2 hvcurveto
            29 87 49 79 64 65 rrcurveto
            1 2 1 1 3 vvcurveto
            return
          </CharString>
          <CharString index="73">
            23 callgsubr
            48 22 callsubr
            48 85 callsubr
            106 vlineto
            64 56 96 -138 rlineto
            15 -21 7 -11 -14 vvcurveto
            -18 -14 -5 -21 35 callsubr
            25 49 0 27 hhcurveto
            43 2 0 -2 43 hvcurveto
            return
          </CharString>
          <CharString index="74">
            171 rmoveto
            92 -74 72 -96 17 vhcurveto
            87 25 56 73 78 vvcurveto
            79 -82 58 -97 -100 -74 -61 -73 vhcurveto
            hintmask 0001101101000000
            -40 31 -8 15 21 24 15 30 32 -24 14 -22 -6 -2 0 -1 -3 vhcurveto
            68 38 94 0 5 hhcurveto
            33 65 -15 -98 -19 -3 -56 -29 -43 hvcurveto
            -30 -44 -34 -3 -27 -1 rrcurveto
            hintmask 1101000010100000
            -30 -3 rlineto
            -17 -1 -4 -1 -9 vvcurveto
            -10 5 0 18 vhcurveto
            46 hlineto
            85 38 -70 -96 -131 -68 -35 -49 -48 -82 23 66 -29 hvcurveto
            hintmask 0010000000000000
            32 -5 29 18 36 vvcurveto
            hintmask 1100000010000000
            29 -21 20 -28 -24 -26 -14 -38 -89 89 -73 111 vhcurveto
            hintmask 0010000000100000
            119 88 91 101 hvcurveto
            endchar
          </CharString>
          <CharString index="75">
            353 383 rmoveto
            30 -27 28 -43 -85 -29 -92 -19 -6 vhcurveto
            -1 111 hlineto
            return
          </CharString>
          <CharString index="76">
            27 -23 21 -25 -29 -20 -23 -25 -30 25 -19 23 27 22 21 28 vhcurveto
            return
          </CharString>
          <CharString index="77">
            91 0 -13 callsubr
            return
          </CharString>
          <CharString index="78">
            rmoveto
            29 -353 -29 vlineto
            endchar
          </CharString>
          <CharString index="79">
            500 hmoveto
            29 vlineto
            -27 -31 0 41 -28 hvcurveto
            -134 195 -7 10 rlineto
            3 63 54 8 8 vhcurveto
            69 60 44 1 21 1 rrcurveto
            29 vlineto
            -2 -20 -26 0 -30 hhcurveto
            -26 -51 0 2 -23 hvcurveto
            -29 vlineto
            17 -1 12 -9 -16 vvcurveto
            -20 -21 -18 0 vhcurveto
            -143 -126 rlineto
            482 vlineto
            return
          </CharString>
          <CharString index="80">
            136 81 198 22 152 22 5 22 return
          </CharString>
          <CharString index="81">
            135 -22 callgsubr
            hintmask 1111001001000000
            -23 callsubr
            hintmask 0000010000000000
            -16 38 0 48 45 vvcurveto
            hintmask 0000100110000000
            56 0 48 26 41 vhcurveto
            27 18 27 29 54 hhcurveto
            57 29 -50 -23 10 hvcurveto
            20 -49 0 -85 -15 vvcurveto
            endchar
          </CharString>
          <CharString index="82">
            570 256 rmoveto
            -22 hlineto
            -100 -10 -13 -127 -175 hhcurveto
            -87 hlineto
            -44 -2 7 33 hvcurveto
            return
          </CharString>
          <CharString index="83">
            -73 -71 -83 -118 -122 72 -80 72 72 56 90 111 return
          </CharString>
          <CharString index="84">
            7 -2 36 6 37 vvcurveto
            22 -15 19 -26 -26 -16 -17 -26 -62 50 -42 87 125 121 133 217 vhcurveto
            -84 90 rmoveto
            -84 -38 -96 -88 -63 -27 51 19 -9 vhcurveto
            return
          </CharString>
          <CharString index="85">
            23 0 29 289 24 312 29 hstem
            137 79 46 93 163 93 vstem
            611 498 rmoveto
            97 -97 88 -135 vhcurveto
            -337 -29 20 hlineto
            36 callgsubr
            242 169 vlineto
            117 107 79 101 hvcurveto
            -93 hmoveto
            -42 0 -114 -163 vhcurveto
            -139 272 hlineto
            33 2 7 44 vhcurveto
            94 hlineto
            162 0 -113 -43 hvcurveto
            endchar
          </CharString>
          <CharString index="86">
            317 -111 rmoveto
            10 callgsubr
            13 15 hvcurveto
            15 17 19 15 20 11 96 -2 rcurveline
            29 -22 vlineto
            -75 -6 callgsubr
            75 vhcurveto
            22 81 callgsubr
            -86 0 -30 hhcurveto
            -30 -87 0 2 -24 hvcurveto
            -29 22 vlineto
            75 -58 callsubr
            -531 vlineto
            -18 callsubr
            -75 vhcurveto
            -22 -29 hlineto
            2 23 81 0 32 hhcurveto
            -39 -32 -33 -44 -43 -45 callgsubr
            return
          </CharString>
          <CharString index="87">
            320 rmoveto
            83 -5 81 -36 76 vhcurveto
            83 -41 -72 22 -49 hhcurveto
            -58 -71 -29 -83 -37 hvcurveto
            -28 -63 -10 -62 -108 vvcurveto
            -97 7 -73 36 -71 vhcurveto
            -76 39 69 -24 52 hhcurveto
            87 50 52 58 29 hvcurveto
            36 75 2 98 58 vvcurveto
            -76 12 rmoveto
            -67 0 -76 -11 -61 vhcurveto
            -110 -19 -63 -19 -35 hhcurveto
            -32 -65 18 109 -19 hvcurveto
            -11 60 0 76 70 vvcurveto
            82 0 74 16 59 vhcurveto
            67 17 51 31 43 hhcurveto
            38 58 -23 -86 19 hvcurveto
            13 -57 0 -79 -68 vvcurveto
            endchar
          </CharString>
          <CharString index="88">
            -18 callsubr
            -72 vhcurveto
            -20 -29 return
          </CharString>
          <CharString index="89">
            -37 -3 -10 return
          </CharString>
          <CharString index="90">
            -20 hstemhm
            108 87 101 87 hintmask 10011000
            -8 callgsubr
            hintmask 01100000
            return
          </CharString>
          <CharString index="91">
            132 rmoveto
            -22 hlineto
            0 -4 -28 -8 -16 vhcurveto
            -24 -12 -25 3 -26 hhcurveto
            -207 hlineto
            53 32 107 54 0 vvcurveto
            69 41 75 53 79 vvcurveto
            115 -116 30 -84 -63 -87 -19 -71 -28 vhcurveto
            -4 -10 -3 -13 -12 vvcurveto
            -23 16 -16 21 20 15 15 20 22 -16 13 -20 2 vhcurveto
            47 23 58 16 46 hhcurveto
            65 73 -32 -79 -78 -69 -55 -68 -48 hvcurveto
            -164 -116 rlineto
            hintmask 10101000
            -8 -5 -4 -6 -10 -5 1 -5 -3 vvcurveto
            370 hlineto
            endchar
          </CharString>
          <CharString index="92">
            vlineto
            -141 -11 rlineto
            -29 vlineto
            return
          </CharString>
          <CharString index="93">
            89 callgsubr
            372 29 -29 40 return
          </CharString>
          <CharString index="94">
            29 204 29 452 return
          </CharString>
          <CharString index="95">
            612 480 rmoveto
            -14 13 -12 -12 -10 -10 -195 -195 rcurveline
            -196 195 -10 10 -12 12 -13 -12 rlinecurve
            -13 -14 12 -12 10 -10 195 -195 rcurveline
            -195 -196 -10 -10 -12 -12 12 -13 rlinecurve
            14 -13 12 12 10 10 196 195 rcurveline
            195 -195 10 -10 12 -12 13 12 rlinecurve
            13 14 -12 12 -10 10 -195 196 rcurveline
            195 195 10 10 12 12 -12 13 rlinecurve
            return
          </CharString>
          <CharString index="96">
            79 32 79 hintmask 0001000100000000
            -32 callsubr
            return
          </CharString>
          <CharString index="97">
            -45 callgsubr
            10 callgsubr
            return
          </CharString>
          <CharString index="98">
            248 -5 callsubr
            return
          </CharString>
          <CharString index="99">
            -146 614 rmoveto
            -99 callsubr
            160 hmoveto
            -99 callsubr
            return
          </CharString>
          <CharString index="100">
            hmoveto
            29 -101 431 vlineto
            19 0 5 -14 -8 -3 0 -12 -8 vhcurveto
            -301 -443 rlineto
            -29 263 -118 vlineto
            -37 -2 -10 -73 vhcurveto
            -20 hlineto
            hintmask 10000000
            -29 vlineto
            hintmask 01000000
            119 callsubr
            hintmask 10101000
            104 callsubr
            118 vlineto
            -66 29 rmoveto
            -243 hlineto
            hintmask 00100100
            243 353 rlineto
            endchar
          </CharString>
          <CharString index="101">
            vlineto
            36 2 12 87 vhcurveto
            30 29 hlineto
            -2 return
          </CharString>
          <CharString index="102">
            4 callgsubr
            620 vlineto
            return
          </CharString>
          <CharString index="103">
            -259 -21 144 73 return
          </CharString>
          <CharString index="104">
            167 rmoveto
            29 -101 455 vlineto
            19 0 5 -14 -8 -3 0 -12 -8 vhcurveto
            -301 -467 rlineto
            -29 263 -91 vlineto
            -37 -2 -10 -73 vhcurveto
            -20 -29 hlineto
            119 callsubr
            104 callsubr
            91 vlineto
            -66 29 rmoveto
            -243 hlineto
            243 377 rlineto
            endchar
          </CharString>
          <CharString index="105">
            -2 callgsubr
            209 -54 callgsubr
            return
          </CharString>
          <CharString index="106">
            hstemhm
            27 49 -15 69 175 69 0 49 -10 49 -36 49 return
          </CharString>
          <CharString index="107">
            119 -21 23 680 22 return
          </CharString>
          <CharString index="108">
            -126 -183 -21 38 76 445 76 -29 29 return
          </CharString>
          <CharString index="109">
            rmoveto
            18 -72 273 vlineto
            11 0 3 -10 -6 -2 0 -7 -6 vhcurveto
            -217 -280 rlineto
            -18 190 -54 vlineto
            -23 -2 -6 -52 vhcurveto
            -15 -17 hlineto
            1 17 57 0 20 hhcurveto
            20 58 0 -1 16 hvcurveto
            17 -14 vlineto
            -52 -2 6 23 hvcurveto
            54 vlineto
            -11 563 rmoveto
            10 -8 8 -10 return
          </CharString>
          <CharString index="110">
            rmoveto
            -31 callsubr
            return
          </CharString>
          <CharString index="111">
            hstemhm
            34 71 206 65 76 22 return
          </CharString>
          <CharString index="112">
            -22 hlineto
            -1 -94 -36 -96 -91 -3 rrcurveto
            -20 vlineto
            return
          </CharString>
          <CharString index="113">
            -99 -10 39 53 39 0 40 230 39 -38 40 -31 40 return
          </CharString>
          <CharString index="114">
            108 72 callgsubr
            return
          </CharString>
          <CharString index="115">
            65 hintmask 11010001
            521 -74 callgsubr
            return
          </CharString>
          <CharString index="116">
            47 -15 29 -30 -21 -15 -16 -20 vhcurveto
            hintmask 01100000
            -20 15 -17 22 11 9 6 3 4 vhcurveto
            2 3 2 0 0 0 1 -11 -4 vvcurveto
            -48 -19 -45 -33 -34 vhcurveto
            -3 -2 -1 -2 -3 vvcurveto
            -4 4 -3 4 6 57 55 86 vhcurveto
            endchar
          </CharString>
          <CharString index="117">
            -136 -11 rlineto
            -29 vlineto
            return
          </CharString>
          <CharString index="118">
            -4 callsubr
            63 29 return
          </CharString>
          <CharString index="119">
            -99 -10 84 callsubr
            return
          </CharString>
          <CharString index="120">
            82 37 callgsubr
            return
          </CharString>
          <CharString index="121">
            22 vlineto
            36 65 rlineto
            -37 23 43 -38 64 hhcurveto
            115 101 97 129 hvcurveto
            -76 1 rmoveto
            -67 -10 -42 -24 -36 vhcurveto
            -31 -20 -40 -31 -50 hhcurveto
            -54 -35 35 27 -17 hvcurveto
            -13 21 0 4 17 vvcurveto
            206 vlineto
            return
          </CharString>
          <CharString index="122">
            592 rmoveto
            19 callsubr
            return
          </CharString>
          <CharString index="123">
            -56 callgsubr
            38 return
          </CharString>
          <CharString index="124">
            vhcurveto
            29 vlineto
            -2 return
          </CharString>
          <CharString index="125">
            27 callgsubr
            -424 403 rmoveto
            return
          </CharString>
          <CharString index="126">
            -62 callsubr
            -60 callgsubr
            return
          </CharString>
          <CharString index="127">
            934 vlineto
            14 0 19 -20 -20 0 -19 -14 vhcurveto
            -934 32 callsubr
            return
          </CharString>
          <CharString index="128">
            91 39 callsubr
            return
          </CharString>
          <CharString index="129">
            0 30 hhcurveto
            30 return
          </CharString>
          <CharString index="130">
            13 callsubr
            29 -20 vlineto
            return
          </CharString>
          <CharString index="131">
            -290 39 callsubr
            return
          </CharString>
          <CharString index="132">
            vvcurveto
            110 19 120 94 59 51 -35 -51 17 vhcurveto
            1 -4 -4 1 -5 hhcurveto
            -23 -19 -19 -23 -23 19 -19 23 23 19 19 23 83 -71 65 -85 -114 -63 -125 -127 return
          </CharString>
          <CharString index="133">
            -21 27 198 24 93 27 58 20 92 82 -41 82 0 24 hstemhm
            return
          </CharString>
          <CharString index="134">
            -20 -10 -20 -11 -17 -14 -54 -44 rcurveline
            hintmask 10010000
            14 -17 rlineto
            41 49 53 30 51 hhcurveto
            40 29 -17 -20 35 hvcurveto
            -17 29 31 -17 40 hhcurveto
            hintmask 01000000
            25 26 8 10 22 hvcurveto
            return
          </CharString>
          <CharString index="135">
            75 callsubr
            89 0 30 hhcurveto
            35 88 0 -2 29 hvcurveto
            29 -30 vlineto
            -87 -2 12 36 hvcurveto
            return
          </CharString>
          <CharString index="136">
            -392 -644 rlineto
            -2 -2 -1 -4 -3 vvcurveto
            -10 8 -8 10 return
          </CharString>
          <CharString index="137">
            81 128 0 -151 hvcurveto
            return
          </CharString>
          <CharString index="138">
            -344 -183 -21 34 40 531 40 return
          </CharString>
          <CharString index="139">
            vlineto
            -14 0 -19 20 20 0 19 14 vhcurveto
            return
          </CharString>
          <CharString index="140">
            rmoveto
            -39 callsubr
            return
          </CharString>
          <CharString index="141">
            rmoveto
            29 -189 -29 vlineto
            118 -47 0 118 hhcurveto
            endchar
          </CharString>
          <CharString index="142">
            vhcurveto
            -29 vlineto
            2 return
          </CharString>
          <CharString index="143">
            hstemhm
            30 76 239 62 return
          </CharString>
          <CharString index="144">
            hmoveto
            29 -20 vlineto
            -72 -6 callgsubr
            72 vhcurveto
            20 29 return
          </CharString>
          <CharString index="145">
            78 -21 30 callgsubr
            return
          </CharString>
          <CharString index="146">
            0 114 callsubr
            return
          </CharString>
          <CharString index="147">
            -371 60 callsubr
            -29 40 hstemhm
            109 63 hintmask 00101100
            -9 callsubr
            return
          </CharString>
          <CharString index="148">
            -31 callsubr
            endchar
          </CharString>
          <CharString index="149">
            -11 1 -20 4 -19 5 rrcurveto
            6 -19 -29 8 -21 hhcurveto
            -35 -2 -28 -5 -13 6 -21 31 21 29 8 6 21 hvcurveto
            3 1 25 7 20 2 return
          </CharString>
          <CharString index="150">
            -59 callsubr
            29 return
          </CharString>
          <CharString index="151">
            -154 -10 22 414 20 -20 102 return
          </CharString>
          <CharString index="152">
            29 314 40 18 29 -29 40 return
          </CharString>
          <CharString index="153">
            -14 callsubr
            115 97 hstemhm
            88 97 -76 63 -18 callgsubr
            return
          </CharString>
          <CharString index="154">
            475 406 rmoveto
            18 -14 28 -35 -52 -39 -32 -15 -14 vhcurveto
            23 -30 -35 13 -38 hhcurveto
            -90 -67 -68 -77 -57 35 -37 10 -9 hvcurveto
            return
          </CharString>
          <CharString index="155">
            7 6 3 6 3 hvcurveto
            391 643 rlineto
            2 3 1 3 3 vvcurveto
            -37 -545 rmoveto
            -175 hlineto
            175 226 rlineto
            endchar
          </CharString>
          <CharString index="156">
            125 -21 51 callsubr
            return
          </CharString>
          <CharString index="157">
            29 -29 59 callgsubr
            return
          </CharString>
          <CharString index="158">
            29 234 29 404 29 return
          </CharString>
          <CharString index="159">
            54 93 467 93 return
          </CharString>
          <CharString index="160">
            35 callsubr
            26 return
          </CharString>
          <CharString index="161">
            -56 vlineto
            -36 -2 -12 -87 vhcurveto
            -30 -29 hlineto
            2 27 97 0 33 hhcurveto
            33 97 0 -2 27 hvcurveto
            29 -30 vlineto
            -87 -2 12 36 hvcurveto
            return
          </CharString>
          <CharString index="162">
            -49 -45 callgsubr
            return
          </CharString>
          <CharString index="163">
            -1 -2 -2 0 -14 hhcurveto
            -117 113 hlineto
            102 87 38 59 10 48 -1 -34 30 vhcurveto
            -42 -3 -31 -11 -29 24 -13 17 return
          </CharString>
          <CharString index="164">
            vhcurveto
            -4 -1 -25 -9 -29 vvcurveto
            -23 16 -16 23 24 16 16 24 vhcurveto
            return
          </CharString>
          <CharString index="165">
            295 305 rmoveto
            18 -22 vlineto
            -63 -3 7 22 hvcurveto
            338 vlineto
            return
          </CharString>
          <CharString index="166">
            rmoveto
            54 -260 -54 vlineto
            endchar
          </CharString>
          <CharString index="167">
            11 callsubr
            625 29 return
          </CharString>
          <CharString index="168">
            363 0 -21 602 29 44 29 return
          </CharString>
          <CharString index="169">
            23 vlineto
            3 -1 9 -10 -11 0 -4 -18 vhcurveto
            -17 vlineto
            -44 0 -111 -107 -92 vhcurveto
            -23 -19 -22 -30 -53 vvcurveto
            return
          </CharString>
          <CharString index="170">
            29 284 29 return
          </CharString>
          <CharString index="171">
            38 82 callsubr
            -54 hvcurveto
            54 vlineto
            return
          </CharString>
          <CharString index="172">
            rmoveto
            29 vlineto
            -2 return
          </CharString>
          <CharString index="173">
            46 -19 41 271 41 -19 46 hintmask 01101100
            return
          </CharString>
          <CharString index="174">
            hstem
            274 30 126 30 vstem
            430 return
          </CharString>
          <CharString index="175">
            58 183 58 78 58 return
          </CharString>
          <CharString index="176">
            vstem
            516 242 rmoveto
            76 -64 58 -70 -80 -56 -64 -70 -83 70 -53 64 75 61 58 78 vhcurveto
            return
          </CharString>
          <CharString index="177">
            64 11 -21 338 29 45 29 return
          </CharString>
          <CharString index="178">
            0 29 hhcurveto
            29 return
          </CharString>
          <CharString index="179">
            rmoveto
            115 -57 87 -71 -24 callsubr
            vhcurveto
            return
          </CharString>
          <CharString index="180">
            83 callgsubr
            endchar
          </CharString>
          <CharString index="181">
            -317 189 54 hstem
            33 260 vstem
            293 189 59 callsubr
          </CharString>
          <CharString index="182">
            -74 callsubr
            hlineto
            2 24 return
          </CharString>
          <CharString index="183">
            39 callgsubr
            28 return
          </CharString>
          <CharString index="184">
            0 29 280 29 63 29 -29 40 return
          </CharString>
          <CharString index="185">
            24 121 91 0 91 -24 24 hstemhm
            return
          </CharString>
          <CharString index="186">
            -229 -21 1000 -20 return
          </CharString>
          <CharString index="187">
            -73 -2 11 36 hvcurveto
            return
          </CharString>
          <CharString index="188">
            0 -28 hhcurveto
            -29 return
          </CharString>
          <CharString index="189">
            -4 callgsubr
            47 -55 21 return
          </CharString>
          <CharString index="190">
            -15 -47 rlineto
            -136 hlineto
            -15 47 rlineto
            142 -75 rmoveto
            -59 -183 -59 183 rlineto
            return
          </CharString>
          <CharString index="191">
            39 372 40 return
          </CharString>
          <CharString index="192">
            0 -2 28 113 callgsubr
            return
          </CharString>
          <CharString index="193">
            29 312 63 callsubr
            return
          </CharString>
          <CharString index="194">
            403 97 193 -20 hstem
            return
          </CharString>
          <CharString index="195">
            65 callsubr
            -26 return
          </CharString>
          <CharString index="196">
            rmoveto
            23 -19 19 -23 -23 -19 -19 -23 -24 19 -18 23 23 19 18 24 vhcurveto
            return
          </CharString>
          <CharString index="197">
            11 -1 20 -4 19 -5 rrcurveto
            -6 19 29 -8 21 hhcurveto
            35 2 28 5 hvcurveto
            return
          </CharString>
          <CharString index="198">
            -45 callsubr
            -531 vlineto
            -19 callsubr
            return
          </CharString>
          <CharString index="199">
            40 callgsubr
            111 -21 return
          </CharString>
          <CharString index="200">
            64 0 136 callsubr
            return
          </CharString>
          <CharString index="201">
            0 -2 28 hvcurveto
            return
          </CharString>
          <CharString index="202">
            672 144 rmoveto
            -22 hlineto
            -70 -51 -60 -67 -68 -51 45 43 -52 vhcurveto
            return
          </CharString>
          <CharString index="203">
            29 hstem
            136 81 return
          </CharString>
          <CharString index="204">
            hlineto
            -4 -3 -3 -3 -1 hvcurveto
            -3 -12 rlineto
            -5 -2 4 -5 5 hhcurveto
            return
          </CharString>
          <CharString index="205">
            -8 -6 -6 -8 -8 6 -6 8 hvcurveto
            return
          </CharString>
          <CharString index="206">
            hmoveto
            -46 callgsubr
            return
          </CharString>
          <CharString index="207">
            -4 callsubr
            42 return
          </CharString>
          <CharString index="208">
            52 callgsubr
            -20 vlineto
            return
          </CharString>
          <CharString index="209">
            72 -21 133 -20 hstemhm
            return
          </CharString>
          <CharString index="210">
            -21 29 669 27 return
          </CharString>
          <CharString index="211">
            28 80 0 -2 23 -7 callgsubr
            return
          </CharString>
          <CharString index="212">
            119 -7 -21 555 -20 hstem
            82 597 vstem
            679 return
          </CharString>
          <CharString index="213">
            45 30 49 19 38 hhcurveto
            75 60 -91 -112 hvcurveto
            endchar
          </CharString>
          <CharString index="214">
            28 120 28 return
          </CharString>
          <CharString index="215">
            82 -58 83 -83 84 215 84 -82 82 hintmask 1110110001000000
            return
          </CharString>
          <CharString index="216">
            91 -202 44 158 -13 callsubr
            -20 return
          </CharString>
          <CharString index="217">
            0 17 hhcurveto
            17 32 0 -1 15 hvcurveto
            17 vlineto
            -57 0 return
          </CharString>
          <CharString index="218">
            6 hhcurveto
            5 1 3 9 4 hvcurveto
            146 380 rlineto
            return
          </CharString>
          <CharString index="219">
            127 callgsubr
            93 return
          </CharString>
          <CharString index="220">
            35 callsubr
            24 return
          </CharString>
          <CharString index="221">
            29 625 29 return
          </CharString>
          <CharString index="222">
            0 29 319 84 -30 29 -29 40 123 84 return
          </CharString>
          <CharString index="223">
            -194 29 -27 27 165 29 455 -20 hstemhm
            return
          </CharString>
          <CharString index="224">
            20 -20 39 392 20 return
          </CharString>
          <CharString index="225">
            -194 29 155 20 return
          </CharString>
          <CharString index="226">
            2 23 79 0 28 hhcurveto
            return
          </CharString>
          <CharString index="227">
            -31 39 callsubr
            return
          </CharString>
          <CharString index="228">
            -21 185 -20 return
          </CharString>
          <CharString index="229">
            42 7 42 4 callsubr
            return
          </CharString>
          <CharString index="230">
            -59 14 39 -21 hvcurveto
            23 -3 21 11 22 vvcurveto
            return
          </CharString>
          <CharString index="231">
            37 308 -20 hstem
            362 37 vstem
            707 return
          </CharString>
          <CharString index="232">
            21 callsubr
            hstem
            return
          </CharString>
          <CharString index="233">
            hstemhm
            136 24 413 24 return
          </CharString>
          <CharString index="234">
            108 callgsubr
            hstemhm
            return
          </CharString>
          <CharString index="235">
            20 170 20 vstem
            return
          </CharString>
          <CharString index="236">
            hstemhm
            30 62 239 76 hintmask 00111100
            407 return
          </CharString>
          <CharString index="237">
            hstemhm
            136 24 159 97 157 24 return
          </CharString>
          <CharString index="238">
            79 callsubr
            hstem
            119 40 return
          </CharString>
          <CharString index="239">
            87 hstem
            -368 87 73 87 vstem
            -281 return
          </CharString>
          <CharString index="240">
            hhcurveto
            -22 -2 rlineto
            -12 -1 -3 0 -6 vvcurveto
            return
          </CharString>
          <CharString index="241">
            -49 callgsubr
            vhcurveto
            return
          </CharString>
          <CharString index="242">
            hstemhm
            137 79 return
          </CharString>
          <CharString index="243">
            29 620 29 return
          </CharString>
        <CharString name=".notdef">
          -363 endchar
        </CharString>
        <CharString name="A">
          -33 callgsubr
          hstem
          -107 callsubr
          endchar
        </CharString>
        <CharString name="AE">
          96 callgsubr
          hstem
          86 callgsubr
          vstem
          -67 callsubr
          endchar
        </CharString>
        <CharString name="AE.dup">
          96 callgsubr
          hstem
          86 callgsubr
          vstem
          -67 callsubr
          endchar
        </CharString>
        <CharString name="AEacute">
          96 callgsubr
          82 -21 161 -20 hstemhm
          86 callgsubr
          hintmask 1110011110000000
          -67 callsubr
          hintmask 0001100000000000
          169 261 -104 callsubr
        </CharString>
        <CharString name="Aacute">
          -33 callgsubr
          71 -21 161 -101 callgsubr
          162 271 -104 callsubr
        </CharString>
        <CharString name="Abreve">
          -33 callgsubr
          50 35 137 -101 callgsubr
          42 callgsubr
          endchar
        </CharString>
        <CharString name="Abreveacute">
          -33 callgsubr
          50 35 318 -101 callgsubr
          42 callgsubr
          -45 142 -104 callsubr
        </CharString>
        <CharString name="Abrevedotbelow">
          -33 callgsubr
          50 35 137 -20 hstemhm
          319 97 hintmask 11111000
          -107 callsubr
          42 callgsubr
          hintmask 00000100
          -96 -1068 -98 callgsubr
        </CharString>
        <CharString name="Abrevegrave">
          -33 callgsubr
          50 35 137 -101 callgsubr
          42 callgsubr
          -44 38 rmoveto
          -4 -6 -4 -6 -5 -6 -168 96 rcurveline
          -18 10 -2 11 -1 5 rrcurveto
          21 -3 17 18 20 hhcurveto
          10 6 -6 -8 9 hvcurveto
          endchar
        </CharString>
        <CharString name="Abrevehookabove">
          -33 callgsubr
          50 35 348 -101 callgsubr
          42 callgsubr
          -50 145 -107 callgsubr
        </CharString>
        <CharString name="Abrevetilde">
          -33 callgsubr
          50 35 177 42 -28 35 -7 35 -28 -23 callgsubr
          hintmask 00011001
          42 callgsubr
          17 117 rmoveto
          -14 14 rlineto
          -29 -29 -21 -20 -32 hhcurveto
          -15 -14 3 21 -31 hvcurveto
          12 -20 -20 13 -23 hhcurveto
          hintmask 00000100
          -37 -22 -25 -52 -47 hvcurveto
          hintmask 00001001
          14 -14 rlineto
          29 29 21 20 32 hhcurveto
          15 14 -3 -21 31 hvcurveto
          -12 20 20 -13 23 hhcurveto
          hintmask 00000010
          37 22 25 52 47 hvcurveto
          endchar
        </CharString>
        <CharString name="Acaron">
          -33 callgsubr
          61 -21 133 -75 callgsubr
          256 -62 callgsubr
        </CharString>
        <CharString name="Acircumflex">
          -33 callgsubr
          61 -21 133 -75 callgsubr
          155 -55 callgsubr
        </CharString>
        <CharString name="Acircumflexacute">
          -33 callgsubr
          61 -21 314 -75 callgsubr
          155 -70 callgsubr
        </CharString>
        <CharString name="Acircumflexdotbelow">
          -33 callgsubr
          61 -21 133 -20 hstemhm
          319 97 hintmask 11111000
          -107 callsubr
          179 155 -90 callgsubr
          hintmask 00000100
          -90 -886 -98 callgsubr
        </CharString>
        <CharString name="Acircumflexgrave">
          -33 callgsubr
          61 -21 133 -75 callgsubr
          155 -73 callgsubr
        </CharString>
        <CharString name="Acircumflexhookabove">
          -33 callgsubr
          61 -21 344 -75 callgsubr
          155 -90 callgsubr
          51 278 -107 callgsubr
        </CharString>
        <CharString name="Acircumflextilde">
          -33 callgsubr
          61 -21 173 42 7 -23 callgsubr
          hintmask 00011100
          179 155 -90 callgsubr
          24 250 -106 callgsubr
        </CharString>
        <CharString name="Adblgrave">
          -33 callgsubr
          71 -21 185 -101 callgsubr
          119 159 -95 callgsubr
        </CharString>
        <CharString name="Adieresis">
          -33 callgsubr
          40 87 hstemhm
          230 87 101 87 hintmask 11100000
          -107 callsubr
          hintmask 00011100
          -22 182 -76 callsubr
        </CharString>
        <CharString name="Adotbelow">
          -33 callgsubr
          hstemhm
          319 97 hintmask 11100000
          -107 callsubr
          hintmask 00010000
          77 -747 -98 callgsubr
        </CharString>
        <CharString name="Agrave">
          -33 callgsubr
          71 -21 161 -101 callgsubr
          96 167 -80 callsubr
        </CharString>
        <CharString name="Ahookabove">
          -33 callgsubr
          82 -21 211 -101 callgsubr
          123 305 -107 callgsubr
        </CharString>
        <CharString name="Alpha">
          -33 callgsubr
          hstem
          -107 callsubr
          endchar
        </CharString>
        <CharString name="Amacron">
          -33 callgsubr
          60 29 -105 callsubr
          hintmask 00010000
          204 159 -29 callsubr
        </CharString>
        <CharString name="Aogonek">
          109 callsubr
          hstem
          487 45 vstem
          -38 callgsubr
          endchar
        </CharString>
        <CharString name="Aogonekacute">
          109 callsubr
          71 -21 161 -20 hstemhm
          487 45 hintmask 11110010
          -38 callgsubr
          hintmask 00001100
          162 271 -104 callsubr
        </CharString>
        <CharString name="Aring">
          -30 callsubr
          107 callsubr
          hstemhm
          274 30 126 30 hintmask 11100000
          -107 callsubr
          hintmask 00111100
          91 207 -57 callgsubr
        </CharString>
        <CharString name="Aringacute">
          -30 callsubr
          107 callsubr
          181 -20 hstemhm
          274 30 126 30 hintmask 11100000
          -107 callsubr
          hintmask 00111110
          91 207 -37 callgsubr
        </CharString>
        <CharString name="Atilde">
          -33 callgsubr
          40 42 7 42 -103 callgsubr
          190 216 -106 callgsubr
        </CharString>
        <CharString name="B">
          -31 callgsubr
        </CharString>
        <CharString name="Beta">
          -31 callgsubr
        </CharString>
        <CharString name="C">
          102 callgsubr
          hstem
          54 93 479 26 vstem
          -77 callgsubr
          -207 160 -156 181 164 93 143 110 hvcurveto
          endchar
        </CharString>
        <CharString name="Cacute">
          102 callgsubr
          112 callsubr
          479 26 hintmask 11001100
          -77 callgsubr
          -207 160 -156 181 164 93 143 110 hvcurveto
          hintmask 00110000
          -129 634 -104 callsubr
        </CharString>
        <CharString name="Ccaron">
          102 callgsubr
          51 -21 133 -20 hstemhm
          54 93 479 26 hintmask 11001100
          -77 callgsubr
          -207 160 -156 181 164 93 143 110 hvcurveto
          hintmask 00110000
          -112 619 -62 callgsubr
        </CharString>
        <CharString name="Ccedilla">
          102 callgsubr
          hstem
          54 93 479 26 vstem
          -77 callgsubr
          -196 144 -151 169 -15 hvcurveto
          -65 63 callgsubr
          vlineto
          154 9 87 138 106 vvcurveto
          endchar
        </CharString>
        <CharString name="Ccircumflex">
          102 callgsubr
          51 -21 133 -20 hstemhm
          54 93 479 26 hintmask 11001100
          -77 callgsubr
          -207 160 -156 181 164 93 143 110 hvcurveto
          hintmask 00110000
          -112 518 -55 callgsubr
        </CharString>
        <CharString name="Cdotaccent">
          102 callgsubr
          51 97 hstemhm
          54 93 194 97 188 26 hintmask 11010100
          -77 callgsubr
          -207 160 -156 181 164 93 143 110 hvcurveto
          hintmask 00101000
          -214 571 -98 callgsubr
        </CharString>
        <CharString name="Chi">
          -50 callgsubr
        </CharString>
        <CharString name="D">
          105 0 29 625 29 hstem
          137 79 386 91 vstem
          -65 callsubr
          endchar
        </CharString>
        <CharString name="Dcaron">
          105 39 callsubr
          102 callsubr
          137 79 386 91 hintmask 11001100
          -65 callsubr
          hintmask 00110000
          -136 515 -62 callgsubr
        </CharString>
        <CharString name="Dcroat">
          -24 callgsubr
        </CharString>
        <CharString name="Ddotbelow">
          105 39 callsubr
          135 callsubr
          51 97 238 91 hintmask 11101000
          -65 callsubr
          hintmask 00010000
          -238 -488 -98 callgsubr
        </CharString>
        <CharString name="Delta">
          173 0 69 645 -20 hstem
          46 723 vstem
          769 7 rmoveto
          4 -2 6 -2 3 vhcurveto
          -334 676 rlineto
          14 -7 -2 4 -14 hhcurveto
          -15 -2 -4 -14 -7 hvcurveto
          -334 -676 rlineto
          -2 -3 -2 -6 -4 vvcurveto
          -6 1 -1 20 vhcurveto
          681 hlineto
          20 1 1 6 hvcurveto
          -119 62 rmoveto
          -545 hlineto
          272 553 rlineto
          endchar
        </CharString>
        <CharString name="Dlinebelow">
          105 -165 29 136 114 callsubr
          135 callsubr
          386 91 hintmask 01111000
          -65 callsubr
          hintmask 10000000
          -111 -501 -29 callsubr
        </CharString>
        <CharString name="E">
          -19 callgsubr
          hstem
          -27 callsubr
          vstem
          -105 callgsubr
          557 hlineto
          endchar
        </CharString>
        <CharString name="Eacute">
          -19 callgsubr
          84 -21 161 -20 hstemhm
          -27 callsubr
          hintmask 1110011110000000
          -105 callgsubr
          557 hlineto
          hintmask 0001100000000000
          -131 866 -104 callsubr
        </CharString>
        <CharString name="Ebreve">
          -19 callgsubr
          63 35 137 -20 hstemhm
          -27 callsubr
          hintmask 1110011110000000
          -105 callgsubr
          557 hlineto
          hintmask 0001100000000000
          -120 916 -96 callgsubr
          endchar
        </CharString>
        <CharString name="Ecaron">
          -19 callgsubr
          74 -21 133 -20 hstemhm
          -27 callsubr
          hintmask 1110011110000000
          -105 callgsubr
          557 hlineto
          hintmask 0001100000000000
          -114 851 -62 callgsubr
        </CharString>
        <CharString name="Ecircumflex">
          -19 callgsubr
          74 -21 133 -28 callgsubr
          endchar
        </CharString>
        <CharString name="Ecircumflexacute">
          -19 callgsubr
          74 -21 314 -28 callgsubr
          -38 275 rmoveto
          21 2 -16 18 -21 hhcurveto
          -10 -6 -6 -8 -8 hvcurveto
          -143 -129 4 -6 4 -6 5 -6 rlinecurve
          168 96 18 10 2 11 1 5 rlinecurve
          endchar
        </CharString>
        <CharString name="Ecircumflexdotbelow">
          -19 callgsubr
          74 -21 133 -20 75 callgsubr
          68 97 33 22 152 22 5 22 hintmask 1111110111000000
          -105 callgsubr
          557 hlineto
          -114 83 callgsubr
          hintmask 0000001000000000
          -90 -886 -98 callgsubr
        </CharString>
        <CharString name="Ecircumflexgrave">
          -19 callgsubr
          74 -21 133 -28 callgsubr
          -37 171 rmoveto
          -4 -6 -4 -6 -5 -6 -168 96 rcurveline
          -18 10 -2 11 -1 5 rrcurveto
          21 -3 17 18 20 hhcurveto
          10 6 -6 -8 9 hvcurveto
          endchar
        </CharString>
        <CharString name="Ecircumflexhookabove">
          -19 callgsubr
          74 -21 344 -28 callgsubr
          51 278 -107 callgsubr
        </CharString>
        <CharString name="Ecircumflextilde">
          -19 callgsubr
          74 -21 173 42 7 42 hstemhm
          -27 callsubr
          hintmask 1110001111000000
          -105 callgsubr
          557 hlineto
          hintmask 0001110000000000
          -114 83 callgsubr
          24 250 -106 callgsubr
        </CharString>
        <CharString name="Edblgrave">
          -19 callgsubr
          84 121 callsubr
          hstemhm
          -27 callsubr
          hintmask 1110011110000000
          -105 callgsubr
          557 hlineto
          hintmask 0001100000000000
          -147 754 -95 callgsubr
        </CharString>
        <CharString name="Edieresis">
          -19 callgsubr
          53 87 75 callgsubr
          -21 87 101 87 -56 22 152 22 5 22 hintmask 1110100111000000
          -105 callgsubr
          557 hlineto
          hintmask 0001011000000000
          -315 777 -76 callsubr
        </CharString>
        <CharString name="Edotaccent">
          -19 callgsubr
          74 97 75 callgsubr
          68 97 33 22 152 22 5 22 hintmask 1110101110000000
          -105 callgsubr
          557 hlineto
          hintmask 0001010000000000
          -216 803 -98 callgsubr
        </CharString>
        <CharString name="Edotbelow">
          -19 callgsubr
          75 callgsubr
          68 97 33 22 152 22 5 22 hintmask 11110111
          -105 callgsubr
          557 hlineto
          hintmask 00001000
          -216 -152 -98 callgsubr
        </CharString>
        <CharString name="Egrave">
          -19 callgsubr
          84 -21 161 -20 hstemhm
          -27 callsubr
          hintmask 1110011110000000
          -105 callgsubr
          557 hlineto
          hintmask 0001100000000000
          -197 762 -80 callsubr
        </CharString>
        <CharString name="Ehookabove">
          -19 callgsubr
          95 137 callgsubr
          hstemhm
          -27 callsubr
          hintmask 1110011110000000
          -105 callgsubr
          557 hlineto
          hintmask 0001100000000000
          -170 900 -107 callgsubr
        </CharString>
        <CharString name="Emacron">
          -19 callgsubr
          73 29 hstemhm
          -27 callsubr
          hintmask 11101111
          -105 callgsubr
          557 hlineto
          hintmask 00010000
          -89 754 -29 callsubr
        </CharString>
        <CharString name="Eng">
          91 -21 84 -63 29 541 84 0 29 -1 22 75 callgsubr
          389 92 hintmask 00001100
          698 342 rmoveto
          189 -118 173 -176 -77 -67 -37 -58 -43 vhcurveto
          hintmask 01010100
          74 vlineto
          -1 -13 -14 -1 -13 hhcurveto
          -30 -87 0 2 -24 hvcurveto
          -29 22 vlineto
          75 -58 callsubr
          -531 vlineto
          -18 callsubr
          -75 vhcurveto
          -22 -29 hlineto
          2 24 86 22 callsubr
          87 37 callgsubr
          29 -22 vlineto
          -75 -3 10 37 hvcurveto
          hintmask 10101110
          494 vlineto
          67 37 69 45 81 hhcurveto
          145 57 -173 -167 -135 0 -157 -76 -40 hvcurveto
          1 4 0 3 4 vvcurveto
          23 -18 19 -24 -23 -19 -19 -23 -23 19 -19 23 154 55 185 178 vhcurveto
          endchar
        </CharString>
        <CharString name="Eogonek">
          23 -202 44 158 -15 callgsubr
          hstem
          136 81 46 45 69 45 15 45 vstem
          -105 callgsubr
          413 hlineto
          -46 -32 -31 -36 55 callsubr
          16 callsubr
          36 31 33 23 hvcurveto
          107 hlineto
          endchar
        </CharString>
        <CharString name="Eogonekacute">
          23 -202 44 158 -15 callgsubr
          84 -21 161 -20 75 callgsubr
          46 45 69 45 15 45 hintmask 1111001111000000
          -105 callgsubr
          413 hlineto
          -46 -32 -31 -36 55 callsubr
          16 callsubr
          36 31 33 23 hvcurveto
          107 hlineto
          hintmask 0000110000000000
          -131 866 -104 callsubr
        </CharString>
        <CharString name="Epsilon">
          -19 callgsubr
          hstem
          -27 callsubr
          vstem
          -105 callgsubr
          557 hlineto
          endchar
        </CharString>
        <CharString name="Ereversed">
          -19 callgsubr
          hstem
          41 22 5 22 152 22 198 81 vstem
          638 99 callsubr
          529 vlineto
          37 3 10 72 vhcurveto
          20 29 -544 hlineto
          -26 -223 rlineto
          22 hlineto
          144 15 31 50 147 hhcurveto
          133 hlineto
          44 2 -7 -33 hvcurveto
          -244 -91 vlineto
          -96 -11 31 86 hvcurveto
          -22 -263 22 hlineto
          86 11 31 96 vhcurveto
          91 -270 hlineto
          -33 -2 -7 -44 vhcurveto
          -136 hlineto
          -169 -24 71 156 -24 hvcurveto
          -22 hlineto
          40 -256 rlineto
          endchar
        </CharString>
        <CharString name="Eta">
          91 0 29 312 29 284 29 hstem
          136 81 299 81 vstem
          -91 callsubr
          endchar
        </CharString>
        <CharString name="Eth">
          -24 callgsubr
        </CharString>
        <CharString name="Etilde">
          -19 callgsubr
          53 42 7 42 hstemhm
          -27 callsubr
          hintmask 1110011110000000
          -105 callgsubr
          557 hlineto
          hintmask 0001100000000000
          -103 811 -106 callgsubr
        </CharString>
        <CharString name="Euro">
          -30 -21 28 267 28 80 28 266 28 hstem
          108 92 vstem
          558 -13 rmoveto
          158 vlineto
          5 -4 3 -4 vhcurveto
          -10 hlineto
          -4 -4 -3 -4 hvcurveto
          -74 -8 -51 -65 -72 hhcurveto
          -63 -54 41 54 -33 hvcurveto
          -32 52 -12 59 -5 61 rrcurveto
          262 hlineto
          3 4 2 3 1 hvcurveto
          3 15 rlineto
          4 1 -4 4 -5 hhcurveto
          -266 hlineto
          -1 40 1 40 rlineto
          294 hlineto
          3 3 2 3 1 hvcurveto
          4 15 rlineto
          4 1 -4 4 -5 hhcurveto
          -296 hlineto
          5 60 12 59 32 52 rrcurveto
          55 33 54 40 63 hhcurveto
          72 51 -64 -75 8 hvcurveto
          -4 4 -3 4 vhcurveto
          10 hlineto
          4 4 4 4 hvcurveto
          158 vlineto
          5 -4 3 -4 vhcurveto
          -3 hlineto
          -2 -3 -1 -2 -1 hvcurveto
          -37 -45 rlineto
          30 -30 -40 18 -44 hhcurveto
          -80 -71 -43 -64 -49 hvcurveto
          -42 -54 -25 -65 -10 -68 rrcurveto
          -49 97 callsubr
          50 hlineto
          -1 -14 -1 -13 -13 vvcurveto
          -14 1 -13 1 -13 vhcurveto
          -46 97 callsubr
          53 hlineto
          10 -68 25 -65 42 -55 rrcurveto
          -63 49 71 -44 80 hhcurveto
          44 40 19 29 30 hvcurveto
          37 -45 rlineto
          -2 1 3 -1 2 hhcurveto
          3 hlineto
          4 4 4 4 hvcurveto
          endchar
        </CharString>
        <CharString name="F">
          -4 0 29 297 29 297 96 callsubr
          192 22 144 22 cntrmask 11100000
          597 458 rmoveto
          -26 223 rlineto
          -530 28 callsubr
          249 88 vlineto
          94 10 -33 -84 hvcurveto
          22 263 -22 hlineto
          -84 -10 -33 -94 vhcurveto
          -88 257 hlineto
          33 2 7 44 vhcurveto
          125 hlineto
          144 29 -53 -141 14 hvcurveto
          endchar
        </CharString>
        <CharString name="G">
          49 callsubr
          hstem
          54 93 423 81 vstem
          -94 callsubr
          endchar
        </CharString>
        <CharString name="Gacute">
          49 callsubr
          112 callsubr
          423 81 hintmask 11100110
          -94 callsubr
          hintmask 00011000
          -201 624 -104 callsubr
        </CharString>
        <CharString name="Gamma">
          -31 0 29 623 96 callsubr
          vstem
          570 458 rmoveto
          -26 223 rlineto
          -503 28 callsubr
          535 vlineto
          33 2 7 44 vhcurveto
          107 hlineto
          138 26 -54 -140 14 hvcurveto
          endchar
        </CharString>
        <CharString name="Gbreve">
          49 callsubr
          40 35 137 -20 hstemhm
          54 93 423 81 hintmask 11100110
          -94 callsubr
          hintmask 00011000
          -190 674 -96 callgsubr
          endchar
        </CharString>
        <CharString name="Gcaron">
          49 callsubr
          51 -21 133 -20 hstemhm
          54 93 423 81 hintmask 11100110
          -94 callsubr
          hintmask 00011000
          -184 609 -62 callgsubr
        </CharString>
        <CharString name="Gcedilla">
          125 100 callsubr
          51 callsubr
          hstem
          54 93 423 81 vstem
          -94 callsubr
          -295 -381 -100 callgsubr
        </CharString>
        <CharString name="Gcircumflex">
          49 callsubr
          51 -21 133 -20 hstemhm
          54 93 423 81 hintmask 11100110
          -94 callsubr
          hintmask 00011000
          -184 508 -55 callgsubr
        </CharString>
        <CharString name="Gcommaaccent">
          125 100 callsubr
          51 callsubr
          hstemhm
          54 93 423 81 hintmask 00111110
          -94 callsubr
          hintmask 11000000
          -295 -381 -100 callgsubr
        </CharString>
        <CharString name="Gdotaccent">
          49 callsubr
          51 97 hstemhm
          54 93 189 97 137 81 hintmask 11101010
          -94 callsubr
          hintmask 00010100
          -286 561 -98 callgsubr
        </CharString>
        <CharString name="H">
          91 0 29 312 29 284 29 hstem
          136 81 299 81 vstem
          -91 callsubr
          endchar
        </CharString>
        <CharString name="H_uni0303">
          77 callgsubr
          51 126 callgsubr
          299 81 hintmask 11100110
          -91 callsubr
          hintmask 00011000
          -163 811 -106 callgsubr
        </CharString>
        <CharString name="Hbar">
          91 0 29 312 29 129 28 127 82 callgsubr
          423 95 28 -95 80 vlineto
          37 3 10 72 vhcurveto
          20 81 callgsubr
          -82 0 -29 hhcurveto
          -30 -82 0 2 -24 hvcurveto
          -29 20 vlineto
          -57 callsubr
          -80 -299 80 vlineto
          37 3 10 72 vhcurveto
          20 81 callgsubr
          -82 0 -29 hhcurveto
          -30 -82 0 2 -24 hvcurveto
          -29 20 vlineto
          -57 callsubr
          -80 -95 -28 95 -423 vlineto
          -71 callgsubr
          29 -20 vlineto
          -72 -3 10 37 hvcurveto
          265 299 -265 vlineto
          -71 callgsubr
          -176 370 rmoveto
          -299 129 299 hlineto
          endchar
        </CharString>
        <CharString name="Hbrevebelow">
          91 117 callgsubr
          85 86 callsubr
          75 callgsubr
          299 81 hintmask 00111110
          -91 callsubr
          hintmask 11000000
          -180 -65 -96 callgsubr
          endchar
        </CharString>
        <CharString name="Hcircumflex">
          77 callgsubr
          102 callsubr
          136 81 299 81 hintmask 11100110
          -91 callsubr
          hintmask 00011000
          -174 73 callsubr
        </CharString>
        <CharString name="Hdieresis">
          77 callgsubr
          51 87 75 callgsubr
          13 87 101 87 11 81 hintmask 11101001
          -91 callsubr
          hintmask 00010110
          -375 777 -76 callsubr
        </CharString>
        <CharString name="Hdotbelow">
          77 callgsubr
          75 callgsubr
          102 97 100 81 hintmask 11110100
          -91 callsubr
          hintmask 00001000
          -276 -152 -98 callgsubr
        </CharString>
        <CharString name="I">
          24 callsubr
          hstem
          136 81 vstem
          -97 callsubr
          endchar
        </CharString>
        <CharString name="I_J">
          178 0 -21 21 29 31 103 491 29 75 callgsubr
          152 99 151 79 hintmask 01111110
          -97 callsubr
          452 -54 callsubr
          vhcurveto
          hintmask 10010010
          50 callgsubr
          461 vlineto
          39 4 5 67 vhcurveto
          endchar
        </CharString>
        <CharString name="Iacute">
          24 callsubr
          82 -21 161 -20 -78 callgsubr
          -6 866 -104 callsubr
        </CharString>
        <CharString name="Ibreve">
          24 callsubr
          61 35 137 -20 -78 callgsubr
          5 916 -96 callgsubr
          endchar
        </CharString>
        <CharString name="Icaron">
          24 callsubr
          72 -21 133 -20 -78 callgsubr
          11 851 -62 callgsubr
        </CharString>
        <CharString name="Icircumflex">
          24 callsubr
          72 -21 133 -20 -78 callgsubr
          11 73 callsubr
        </CharString>
        <CharString name="Idblgrave">
          24 callsubr
          82 121 callsubr
          -78 callgsubr
          -22 754 -95 callgsubr
        </CharString>
        <CharString name="Idieresis">
          24 callsubr
          51 87 hstemhm
          40 87 9 81 11 87 hintmask 11001000
          -97 callsubr
          hintmask 00110100
          -190 777 -76 callsubr
        </CharString>
        <CharString name="Idieresisacute">
          24 callsubr
          51 87 81 -21 161 -20 hstemhm
          40 87 9 81 11 87 hintmask 11000010
          -97 callsubr
          hintmask 00111101
          -190 777 rmoveto
          -99 callsubr
          188 hmoveto
          -99 callsubr
          -4 226 -104 callsubr
        </CharString>
        <CharString name="Idotaccent">
          24 callsubr
          72 97 hstemhm
          129 97 -90 81 hintmask 11001000
          -97 callsubr
          hintmask 00110000
          -91 803 -98 callgsubr
        </CharString>
        <CharString name="Idotbelow">
          24 callsubr
          hstemhm
          129 97 -90 81 hintmask 11010000
          -97 callsubr
          hintmask 00100000
          -91 -152 -98 callgsubr
        </CharString>
        <CharString name="Igrave">
          24 callsubr
          82 -21 161 -20 -78 callgsubr
          -72 762 -80 callsubr
        </CharString>
        <CharString name="Ihookabove">
          24 callsubr
          93 137 callgsubr
          -78 callsubr
          hintmask 00111000
          -45 900 -107 callgsubr
        </CharString>
        <CharString name="Imacron">
          24 callsubr
          71 29 75 callgsubr
          hintmask 11010000
          -97 callsubr
          hintmask 00100000
          36 754 -29 callsubr
        </CharString>
        <CharString name="Imacron.alt">
          24 callsubr
          71 29 75 callgsubr
          hintmask 11010000
          -97 callsubr
          hintmask 00100000
          -46 754 34 callsubr
        </CharString>
        <CharString name="Iogonek">
          -290 -202 44 158 29 625 96 callsubr
          vstem
          -21 callsubr
          endchar
        </CharString>
        <CharString name="Iogonekacute">
          -290 -202 44 158 114 callsubr
          82 -21 161 -20 75 callgsubr
          hintmask 11100100
          -21 callsubr
          hintmask 00011000
          -6 977 -104 callsubr
        </CharString>
        <CharString name="Iota">
          24 callsubr
          hstem
          136 81 vstem
          -97 callsubr
          endchar
        </CharString>
        <CharString name="Itilde">
          24 callsubr
          51 42 7 42 -78 callgsubr
          22 811 -106 callgsubr
        </CharString>
        <CharString name="J">
          99 callgsubr
          hstem
          51 99 151 79 vstem
          451 -54 callsubr
          50 callgsubr
          461 vlineto
          39 4 5 67 vhcurveto
          endchar
        </CharString>
        <CharString name="J_uni030C.cap">
          -140 0 -21 81 103 324 -21 144 73 -29 29 hstemhm
          51 99 151 79 hintmask 11001110
          451 -54 callsubr
          50 callgsubr
          hintmask 00010010
          461 vlineto
          hintmask 00001000
          39 4 5 67 vhcurveto
          117 -47 134 callsubr
          hintmask 00110000
          -20 15 -17 22 11 9 6 3 4 vhcurveto
          2 3 2 0 0 0 1 -11 -4 vvcurveto
          -48 -19 -45 -33 -34 vhcurveto
          -3 -2 -1 -2 -3 vvcurveto
          -4 4 -3 4 6 57 55 86 vhcurveto
          endchar
        </CharString>
        <CharString name="Jacute">
          99 callgsubr
          82 -21 161 -20 hstemhm
          51 99 151 79 hintmask 11100110
          451 -54 callsubr
          50 callgsubr
          461 vlineto
          39 4 5 67 vhcurveto
          hintmask 00011000
          -3 212 -104 callsubr
        </CharString>
        <CharString name="Jcircumflex">
          99 callgsubr
          102 callsubr
          51 99 151 79 hintmask 11100110
          451 -54 callsubr
          50 callgsubr
          461 vlineto
          39 4 5 67 vhcurveto
          hintmask 00011000
          14 96 -55 callgsubr
        </CharString>
        <CharString name="K">
          118 0 29 625 96 callsubr
          vstem
          -82 callgsubr
          endchar
        </CharString>
        <CharString name="Kappa">
          118 0 29 625 96 callsubr
          vstem
          -82 callgsubr
          endchar
        </CharString>
        <CharString name="Kcedilla">
          118 60 callsubr
          hstem
          136 81 vstem
          -82 callgsubr
          -298 -139 -100 callgsubr
        </CharString>
        <CharString name="Kcommaaccent">
          118 60 callsubr
          75 callgsubr
          hintmask 00111000
          -82 callgsubr
          hintmask 11000000
          -298 -139 -100 callgsubr
        </CharString>
        <CharString name="L">
          120 callsubr
          hstem
          136 81 vstem
          -84 callsubr
          endchar
        </CharString>
        <CharString name="L_uni0303">
          120 callsubr
          51 126 callgsubr
          hintmask 11001000
          -84 callsubr
          hintmask 00110000
          -198 811 -106 callgsubr
        </CharString>
        <CharString name="Lacute">
          120 callsubr
          82 -21 161 -20 75 callgsubr
          hintmask 11001000
          -84 callsubr
          hintmask 00110000
          -226 866 -104 callsubr
        </CharString>
        <CharString name="Lambda">
          37 0 29 38 29 618 -20 hstem
          31 617 vstem
          648 hmoveto
          29 vlineto
          -54 -19 0 38 -12 hvcurveto
          -202 626 rlineto
          20 -6 -5 1 -11 hhcurveto
          -9 -6 -2 -16 -5 hvcurveto
          -194 -600 -19 -58 -41 -8 -34 -1 rlinecurve
          -29 vlineto
          2 43 2 0 43 hhcurveto
          27 49 0 -2 25 hvcurveto
          29 vlineto
          -51 1 -19 28 22 vvcurveto
          4 0 3 5 15 vhcurveto
          156 481 164 -506 rlineto
          5 -14 0 -4 0 vvcurveto
          -30 -52 0 -25 35 callsubr
          23 77 0 28 hhcurveto
          29 62 -44 callgsubr
          endchar
        </CharString>
        <CharString name="Lcaron">
          -31 0 29 458 -21 144 73 -29 29 75 callgsubr
          hintmask 10011000
          -84 callsubr
          -73 607 rmoveto
          9 callsubr
        </CharString>
        <CharString name="Lcedilla">
          -31 60 callsubr
          hstem
          136 81 vstem
          -84 callsubr
          -198 -139 -100 callgsubr
        </CharString>
        <CharString name="Lcommaaccent">
          -31 60 callsubr
          75 callgsubr
          hintmask 00111000
          -84 callsubr
          hintmask 11000000
          -198 -139 -100 callgsubr
        </CharString>
        <CharString name="Ldot">
          -31 0 29 329 97 199 96 callsubr
          216 97 vstem
          -84 callsubr
          -14 406 -98 callgsubr
        </CharString>
        <CharString name="Ldotbelow">
          120 callsubr
          75 callgsubr
          41 97 hintmask 11100000
          -84 callsubr
          hintmask 00010000
          -189 -152 -98 callgsubr
        </CharString>
        <CharString name="Ldotbelowmacron">
          120 callsubr
          71 29 75 callgsubr
          41 97 hintmask 11011000
          -84 callsubr
          -189 -152 -98 callsubr
          hintmask 00100000
          10 906 -29 callsubr
        </CharString>
        <CharString name="Lslash">
          -31 0 29 234 29 362 96 callsubr
          vstem
          -25 callsubr
          292 vlineto
          167 143 -22 25 -145 -124 rlineto
          201 -6 callsubr
          -29 -88 0 -35 hhcurveto
          -30 -89 0 2 -24 hvcurveto
          -29 20 vlineto
          -57 callsubr
          -271 vlineto
          -85 -73 22 -25 63 54 rlineto
          -216 vlineto
          -19 callsubr
          503 hlineto
          endchar
        </CharString>
        <CharString name="M">
          254 39 callsubr
          hstem
          139 24 445 74 1 74 vstem
          -65 callgsubr
          endchar
        </CharString>
        <CharString name="Mdotbelow">
          254 39 callsubr
          hstemhm
          139 24 238 97 110 74 1 74 hintmask 11101100
          -65 callgsubr
          hintmask 00010000
          -354 -152 -98 callgsubr
        </CharString>
        <CharString name="Mu">
          254 39 callsubr
          hstem
          139 24 445 74 1 74 vstem
          -65 callgsubr
          endchar
        </CharString>
        <CharString name="N">
          125 callsubr
          136 24 413 24 vstem
          -94 callgsubr
          endchar
        </CharString>
        <CharString name="Nacute">
          21 callsubr
          82 -21 161 -20 126 callsubr
          hintmask 11001100
          -94 callgsubr
          hintmask 00110000
          -191 212 -104 callsubr
        </CharString>
        <CharString name="Ncaron">
          21 callsubr
          72 -21 133 -20 126 callsubr
          hintmask 11001100
          -94 callgsubr
          hintmask 00110000
          -174 197 -62 callgsubr
        </CharString>
        <CharString name="Ncedilla">
          91 60 callsubr
          hstem
          136 24 413 24 vstem
          -94 callgsubr
          -285 -793 -100 callgsubr
        </CharString>
        <CharString name="Ncommaaccent">
          91 60 callsubr
          126 callsubr
          hintmask 00111100
          -94 callgsubr
          hintmask 11000000
          -285 -793 -100 callgsubr
        </CharString>
        <CharString name="Ndotaccent">
          21 callsubr
          51 97 130 callsubr
          hintmask 11010100
          -94 callgsubr
          hintmask 00101000
          -276 128 -98 callgsubr
        </CharString>
        <CharString name="Ndotbelow">
          21 callsubr
          130 callsubr
          hintmask 11101000
          -94 callgsubr
          hintmask 00010000
          -276 -806 -98 callgsubr
        </CharString>
        <CharString name="Ntilde">
          21 callsubr
          51 42 7 42 126 callsubr
          hintmask 11001100
          -94 callgsubr
          hintmask 00110000
          -163 157 -106 callgsubr
        </CharString>
        <CharString name="Nu">
          125 callsubr
          136 24 413 24 vstem
          -94 callgsubr
          endchar
        </CharString>
        <CharString name="O">
          0 callsubr
          hstem
          52 callsubr
          vstem
          -100 callsubr
          endchar
        </CharString>
        <CharString name="OE">
          -55 callsubr
        </CharString>
        <CharString name="OE.dup">
          -55 callsubr
        </CharString>
        <CharString name="Oacute">
          0 callsubr
          112 callsubr
          467 93 hintmask 11001100
          -100 callsubr
          hintmask 00110000
          -99 512 -104 callsubr
        </CharString>
        <CharString name="Obreve">
          0 callsubr
          40 35 137 -20 31 callgsubr
          hintmask 11001100
          -100 callsubr
          hintmask 00110000
          -88 562 -96 callgsubr
          endchar
        </CharString>
        <CharString name="Ocaron">
          0 callsubr
          51 -21 133 -20 31 callgsubr
          hintmask 11001100
          -100 callsubr
          hintmask 00110000
          -82 497 -62 callgsubr
        </CharString>
        <CharString name="Ocircumflex">
          0 callsubr
          51 -21 133 -20 31 callgsubr
          hintmask 11001100
          -100 callsubr
          hintmask 00110000
          -82 396 -55 callgsubr
        </CharString>
        <CharString name="Ocircumflexacute">
          0 callsubr
          51 -21 314 -20 31 callgsubr
          hintmask 11001100
          -100 callsubr
          hintmask 00110000
          -82 396 -70 callgsubr
        </CharString>
        <CharString name="Ocircumflexdotbelow">
          0 callsubr
          51 -21 133 -20 hstemhm
          54 93 186 97 184 93 hintmask 11111010
          -100 callsubr
          -82 396 -90 callgsubr
          hintmask 00000100
          -90 -886 -98 callgsubr
        </CharString>
        <CharString name="Ocircumflexgrave">
          0 callsubr
          51 -21 133 -20 31 callgsubr
          hintmask 11001100
          -100 callsubr
          hintmask 00110000
          -82 396 -73 callgsubr
        </CharString>
        <CharString name="Ocircumflexhookabove">
          0 callsubr
          51 -21 344 -20 31 callgsubr
          hintmask 11001100
          -100 callsubr
          hintmask 00110000
          -82 396 -90 callgsubr
          51 278 -107 callgsubr
        </CharString>
        <CharString name="Ocircumflextilde">
          0 callsubr
          51 -21 173 42 7 42 31 callgsubr
          hintmask 11000110
          -100 callsubr
          hintmask 00111000
          -82 396 -90 callgsubr
          24 250 -106 callgsubr
        </CharString>
        <CharString name="Odblgrave">
          0 callsubr
          61 121 callsubr
          31 callgsubr
          hintmask 11001100
          -100 callsubr
          hintmask 00110000
          -115 400 -95 callgsubr
        </CharString>
        <CharString name="Odieresis">
          0 callsubr
          30 87 hstemhm
          54 93 97 87 101 87 95 93 hintmask 11010010
          -100 callsubr
          hintmask 00101100
          -283 423 -76 callsubr
        </CharString>
        <CharString name="Odotbelow">
          0 callsubr
          hstemhm
          54 93 186 97 184 93 hintmask 11101000
          -100 callsubr
          hintmask 00010000
          -184 -506 -98 callgsubr
        </CharString>
        <CharString name="Ograve">
          0 callsubr
          112 callsubr
          467 93 hintmask 11001100
          -100 callsubr
          hintmask 00110000
          -165 408 -80 callsubr
        </CharString>
        <CharString name="Ohookabove">
          0 callsubr
          72 137 callgsubr
          31 callgsubr
          hintmask 11001100
          -100 callsubr
          hintmask 00110000
          -138 546 -107 callgsubr
        </CharString>
        <CharString name="Ohorn">
          44 callgsubr
          hstemhm
          54 93 466 -51 callgsubr
          hintmask 11011000
          -81 callgsubr
          hintmask 01001000
          17 callgsubr
          endchar
        </CharString>
        <CharString name="Ohornacute">
          44 callgsubr
          125 -20 hstemhm
          54 93 466 -51 callgsubr
          hintmask 11001100
          -81 callgsubr
          hintmask 01000100
          17 callgsubr
          hintmask 00010000
          -125 511 -104 callsubr
        </CharString>
        <CharString name="Ohorndotbelow">
          44 callgsubr
          hstemhm
          54 93 186 97 183 -51 callgsubr
          hintmask 11010100
          -81 callgsubr
          hintmask 01000100
          17 callgsubr
          hintmask 00001000
          -183 -507 -98 callgsubr
        </CharString>
        <CharString name="Ohorngrave">
          44 callgsubr
          125 -20 hstemhm
          54 93 466 -51 callgsubr
          hintmask 11001100
          -81 callgsubr
          hintmask 01000100
          17 callgsubr
          hintmask 00010000
          -164 407 -80 callsubr
        </CharString>
        <CharString name="Ohornhookabove">
          44 callgsubr
          186 -20 hstemhm
          54 93 466 -51 callgsubr
          hintmask 11001100
          -81 callgsubr
          hintmask 01000100
          17 callgsubr
          hintmask 00010000
          -137 545 -107 callgsubr
        </CharString>
        <CharString name="Ohorntilde">
          44 callgsubr
          -46 42 7 42 hstemhm
          54 93 466 -51 callgsubr
          hintmask 11000110
          -81 callgsubr
          hintmask 01000010
          17 callgsubr
          hintmask 00011000
          -70 456 -106 callgsubr
        </CharString>
        <CharString name="Ohungarumlaut">
          0 callsubr
          61 121 callsubr
          31 callgsubr
          hintmask 11001100
          -100 callsubr
          hintmask 00110000
          -231 542 -79 callgsubr
        </CharString>
        <CharString name="Omacron">
          0 callsubr
          50 29 31 callgsubr
          hintmask 11011000
          -100 callsubr
          hintmask 00100000
          -57 400 -29 callsubr
        </CharString>
        <CharString name="Omega">
          -36 callgsubr
        </CharString>
        <CharString name="Omicron">
          0 callsubr
          hstem
          52 callsubr
          vstem
          -100 callsubr
          endchar
        </CharString>
        <CharString name="Oogonek">
          119 -41 22 -2 23 680 22 31 callgsubr
          hintmask 10110000
          707 339 rmoveto
          207 -152 158 -174 -178 -149 -160 -205 -189 131 -149 160 -20 vhcurveto
          -29 -29 -21 -35 -34 -10 callsubr
          14 15 hvcurveto
          hintmask 01111000
          19 callgsubr
          endchar
        </CharString>
        <CharString name="Oogonekacute">
          119 -41 22 -2 23 680 22 112 callsubr
          467 93 hintmask 10100100
          707 339 rmoveto
          207 -152 158 -174 -178 -149 -160 -205 -189 131 -149 160 -20 vhcurveto
          -29 -29 -21 -35 -34 -10 callsubr
          14 15 hvcurveto
          hintmask 01100110
          19 callgsubr
          hintmask 00011000
          -99 512 -104 callsubr
        </CharString>
        <CharString name="Orogate">
          119 54 93 224 20 223 93 vstem
          707 339 rmoveto
          203 -146 156 -170 6 vhcurveto
          174 -20 -174 vlineto
          -174 -6 -143 -158 -201 vvcurveto
          -200 146 -155 171 -5 vhcurveto
          -173 20 173 vlineto
          174 7 142 156 197 vvcurveto
          -93 15 rmoveto
          -260 -136 -92 -97 -102 -132 96 256 245 139 83 94 99 135 -86 -242 vhcurveto
          endchar
        </CharString>
        <CharString name="Oslash">
          85 callgsubr
          hstem
          54 81 491 81 vstem
          -59 callgsubr
          endchar
        </CharString>
        <CharString name="Oslash.dup">
          85 callgsubr
          hstem
          54 81 491 81 vstem
          -59 callgsubr
          endchar
        </CharString>
        <CharString name="Oslashacute">
          85 callgsubr
          47 120 callgsubr
          81 491 81 hintmask 11110011
          -59 callgsubr
          hintmask 00001100
          -111 526 -104 callsubr
        </CharString>
        <CharString name="Otilde">
          0 callsubr
          30 42 7 42 31 callgsubr
          hintmask 11001100
          -100 callsubr
          hintmask 00110000
          -71 457 -106 callgsubr
        </CharString>
        <CharString name="P">
          -22 callsubr
        </CharString>
        <CharString name="Phi">
          64 0 29 102 23 373 23 104 29 hstem
          54 91 168 76 172 91 vstem
          652 341 rmoveto
          107 -114 90 -149 13 vhcurveto
          55 57 callgsubr
          -56 vlineto
          -155 -14 -104 -95 -99 vvcurveto
          -103 107 -92 152 -14 vhcurveto
          54 callsubr
          55 vlineto
          152 13 111 93 103 vvcurveto
          -339 -187 rmoveto
          -109 14 -59 64 109 vvcurveto
          110 58 64 110 14 vhcurveto
          248 -187 rmoveto
          -104 -51 -69 -121 -16 vhcurveto
          377 vlineto
          117 -15 55 -67 -106 vvcurveto
          endchar
        </CharString>
        <CharString name="Pi">
          91 0 29 623 82 callgsubr
          529 vlineto
          37 3 10 72 vhcurveto
          20 29 -651 75 callsubr
          82 0 29 hhcurveto
          30 82 0 -2 24 -7 callgsubr
          576 299 -576 vlineto
          -71 callgsubr
          endchar
        </CharString>
        <CharString name="Psi">
          119 0 29 102 24 375 25 99 29 hstem
          125 76 139 76 144 76 vstem
          707 545 rmoveto
          10 -8 0 -16 vhcurveto
          -33 hlineto
          -47 -42 -17 -137 -1 hvcurveto
          -1 -107 -30 -112 -113 -27 rrcurveto
          451 57 callgsubr
          -450 vlineto
          -136 33 -3 162 63 vvcurveto
          100 -1 -30 41 -59 hhcurveto
          -32 hlineto
          -16 -8 0 -10 -8 6 -1 4 -1 hvcurveto
          46 -7 13 -42 1 -89 1 -143 73 -102 141 -19 rrcurveto
          54 callsubr
          56 vlineto
          195 24 24 158 1 105 rrcurveto
          46 10 62 49 7 vhcurveto
          6 1 6 1 8 vvcurveto
          endchar
        </CharString>
        <CharString name="Q">
          119 -194 93 80 22 -11 22 115 20 535 22 hstemhm
          54 91 158 20 279 91 -77 91 hintmask 1000000100000000
          712 -10 rmoveto
          10 0 9 -10 -8 0 -7 -7 -1 vhcurveto
          -72 -7 -49 -24 -35 hhcurveto
          -51 -23 37 70 -24 hvcurveto
          hintmask 1100110010000000
          108 47 95 125 161 vvcurveto
          207 -152 158 -174 -178 -149 -160 -205 -201 148 -159 179 33 34 6 9 27 vhcurveto
          -102 16 13 -86 90 hhcurveto
          hintmask 0011111010000000
          117 1 175 9 hvcurveto
          -96 350 rmoveto
          -143 -44 -103 -80 -56 vhcurveto
          50 -17 -28 59 -65 hhcurveto
          -50 -29 -43 -41 -27 14 -21 2 -3 hvcurveto
          -74 26 -100 86 216 vvcurveto
          249 135 93 100 105 131 -96 -246 vhcurveto
          -146 -316 rmoveto
          hintmask 0101001000000000
          -16 -30 -32 -7 -27 hhcurveto
          -43 -15 39 24 29 21 34 38 57 20 -47 -56 11 hvcurveto
          endchar
        </CharString>
        <CharString name="R">
          78 -21 34 callgsubr
          hintmask 10000100
          -69 callgsubr
          hintmask 01111010
          -84 callgsubr
          hintmask 10111101
          -79 callsubr
          hintmask 00000010
          30 callsubr
          endchar
        </CharString>
        <CharString name="Racute">
          38 callsubr
          82 -21 161 -20 135 callsubr
          219 79 -9 93 98 21 hintmask 1000000100000000
          -69 callgsubr
          hintmask 0111001010000000
          -84 callgsubr
          hintmask 1011001101000000
          -79 callsubr
          hintmask 0000000010000000
          30 callsubr
          hintmask 0000110000000000
          -10 363 -104 callsubr
        </CharString>
        <CharString name="Rcaron">
          38 callsubr
          102 callsubr
          137 79 219 79 -9 93 98 21 hintmask 1000000100000000
          -69 callgsubr
          hintmask 0111001010000000
          -84 callgsubr
          hintmask 1011001101000000
          -79 callsubr
          hintmask 0000000010000000
          30 callsubr
          hintmask 0000110000000000
          7 348 -62 callgsubr
        </CharString>
        <CharString name="Rcedilla">
          78 100 callsubr
          34 callgsubr
          hintmask 0010000100000000
          -69 callgsubr
          hintmask 0001111010000000
          -84 callgsubr
          hintmask 0010111101000000
          -79 callsubr
          hintmask 1100000010000000
          30 callsubr
          -104 -642 -100 callgsubr
        </CharString>
        <CharString name="Rcommaaccent">
          78 100 callsubr
          34 callgsubr
          hintmask 0010000100000000
          -69 callgsubr
          hintmask 0001111010000000
          -84 callgsubr
          hintmask 0010111101000000
          -79 callsubr
          hintmask 0000000010000000
          30 callsubr
          hintmask 1100000000000000
          -104 -642 -100 callgsubr
        </CharString>
        <CharString name="Rdblgrave">
          38 callsubr
          82 121 callsubr
          135 callsubr
          219 79 -9 93 98 21 hintmask 1000000100000000
          -69 callgsubr
          hintmask 0111001010000000
          -84 callgsubr
          hintmask 1011001101000000
          -79 callsubr
          hintmask 0000000010000000
          30 callsubr
          hintmask 0000110000000000
          -54 251 -95 callgsubr
        </CharString>
        <CharString name="Rdotaccent">
          38 callsubr
          72 97 135 callsubr
          96 97 26 79 -9 93 98 21 hintmask 1000000100000000
          -69 callgsubr
          hintmask 0111010010000000
          -84 callgsubr
          hintmask 1011010101000000
          -79 callsubr
          hintmask 0000000010000000
          30 callsubr
          hintmask 0000101000000000
          -96 300 -98 callgsubr
        </CharString>
        <CharString name="Rdotbelow">
          78 -21 20 1 29 303 20 302 110 callgsubr
          hintmask 1000001000000000
          -69 callgsubr
          hintmask 0111100100000000
          -84 callgsubr
          hintmask 1011101010000000
          -79 callsubr
          hintmask 0000000100000000
          30 callsubr
          hintmask 0000010000000000
          -96 -655 -98 callgsubr
        </CharString>
        <CharString name="Rdotbelowmacron">
          38 callsubr
          71 110 callgsubr
          hintmask 1000000100000000
          -69 callgsubr
          hintmask 0111010010000000
          -84 callgsubr
          hintmask 1011010101000000
          -79 callsubr
          hintmask 0000001010000000
          30 callsubr
          -96 -655 -98 callsubr
          hintmask 0000100000000000
          128 906 -29 callsubr
        </CharString>
        <CharString name="Rho">
          -22 callsubr
        </CharString>
        <CharString name="S">
          118 callgsubr
          hstem
          100 callgsubr
          vstem
          489 184 rmoveto
          -99 callgsubr
          rlineto
          -40 36 63 -34 86 hhcurveto
          112 81 95 110 hvcurveto
          endchar
        </CharString>
        <CharString name="S_S">
          445 103 callsubr
          hstem
          100 callgsubr
          109 68 callsubr
          vstem
          489 184 rmoveto
          -99 callgsubr
          rlineto
          -40 36 63 -34 86 hhcurveto
          112 81 95 110 hvcurveto
          544 hmoveto
          -99 callgsubr
          rlineto
          -40 36 63 -34 86 hhcurveto
          112 81 95 110 hvcurveto
          endchar
        </CharString>
        <CharString name="Sacute">
          118 callgsubr
          61 -21 161 -20 hstemhm
          100 callgsubr
          hintmask 11001110
          489 184 rmoveto
          -99 callgsubr
          rlineto
          -40 36 63 -34 86 hhcurveto
          112 81 95 110 hvcurveto
          hintmask 00110000
          -83 682 -104 callsubr
        </CharString>
        <CharString name="Scaron">
          118 callgsubr
          51 -21 133 -20 hstemhm
          100 callgsubr
          hintmask 11001110
          489 184 rmoveto
          -99 callgsubr
          rlineto
          -40 36 63 -34 86 hhcurveto
          112 81 95 110 hvcurveto
          hintmask 00110000
          -66 667 -62 callgsubr
        </CharString>
        <CharString name="Scedilla">
          118 callgsubr
          hstem
          100 callgsubr
          vstem
          489 184 rmoveto
          -99 callgsubr
          29 -32 47 -29 63 -10 rlinecurve
          -67 63 callgsubr
          2 vlineto
          112 81 95 110 hvcurveto
          endchar
        </CharString>
        <CharString name="Scircumflex">
          118 callgsubr
          51 -21 133 -20 hstemhm
          100 callgsubr
          hintmask 11001110
          489 184 rmoveto
          -99 callgsubr
          rlineto
          -40 36 63 -34 86 hhcurveto
          112 81 95 110 hvcurveto
          hintmask 00110000
          -66 566 -55 callgsubr
        </CharString>
        <CharString name="Sdotbelow">
          118 callgsubr
          hstemhm
          54 58 112 97 -26 58 78 58 hintmask 11101100
          489 184 rmoveto
          -99 callgsubr
          rlineto
          -40 36 63 -34 86 hhcurveto
          112 81 95 110 hvcurveto
          hintmask 00010000
          -168 -336 -98 callgsubr
        </CharString>
        <CharString name="Sigma">
          64 0 39 -29 29 286 29 300 29 hstemhm
          54 598 hintmask 01111000
          652 233 rmoveto
          -22 hlineto
          -165 -18 -63 -29 -160 hhcurveto
          -277 hlineto
          242 286 rlineto
          8 10 2 2 5 vvcurveto
          0 0 4 -6 8 vhcurveto
          -202 300 rlineto
          236 hlineto
          168 51 -36 -158 19 hvcurveto
          22 hlineto
          -26 223 rlineto
          -547 hlineto
          -24 -1 0 -23 hvcurveto
          243 -360 -232 -274 rlineto
          -8 -9 -2 -3 -4 vvcurveto
          hintmask 10001000
          -10 8 0 16 vhcurveto
          547 hlineto
          endchar
        </CharString>
        <CharString name="T">
          93 callsubr
          hstem
          313 81 vstem
          -88 callsubr
          endchar
        </CharString>
        <CharString name="T_uni0303">
          93 callsubr
          56 42 7 42 hstemhm
          313 81 hintmask 11001000
          -88 callsubr
          hintmask 00110000
          -133 356 -106 callgsubr
        </CharString>
        <CharString name="T_uni0308">
          93 callsubr
          56 87 hstemhm
          217 87 9 81 11 87 hintmask 11001100
          -88 callsubr
          hintmask 00110100
          -345 322 -76 callsubr
        </CharString>
        <CharString name="Tau">
          93 callsubr
          hstem
          313 81 vstem
          -88 callsubr
          endchar
        </CharString>
        <CharString name="Tcaron">
          93 callsubr
          77 -21 133 -20 hstemhm
          313 81 hintmask 11001000
          -88 callsubr
          hintmask 00110000
          -144 396 -62 callgsubr
        </CharString>
        <CharString name="Tcedilla">
          64 -200 22 93 22 63 136 callsubr
          hstemhm
          313 81 -62 44 32 76 hintmask 00111000
          671 455 rmoveto
          -18 223 rlineto
          -600 hlineto
          -18 -223 rlineto
          22 hlineto
          158 14 9 36 158 hhcurveto
          18 28 0 -2 8 hvcurveto
          20 -3 1 -12 -23 vvcurveto
          -532 vlineto
          -34 0 -14 -98 vhcurveto
          -36 -29 hlineto
          hintmask 11100110
          2 27 79 0 47 hhcurveto
          -87 vlineto
          37 82 callsubr
          -53 hvcurveto
          -1 65 rlineto
          48 78 0 -2 27 hvcurveto
          29 -36 vlineto
          hintmask 00011000
          -98 0 14 34 hvcurveto
          532 vlineto
          25 2 9 16 4 vhcurveto
          2 8 29 0 19 hhcurveto
          158 9 -36 -158 14 hvcurveto
          endchar
        </CharString>
        <CharString name="Tdotbelow">
          93 callsubr
          hstemhm
          306 97 -90 81 hintmask 11010000
          -88 callsubr
          hintmask 00100000
          -246 -607 -98 callgsubr
        </CharString>
        <CharString name="Theta">
          119 0 -21 329 69 327 -20 hstem
          54 88 55 22 323 22 55 88 vstem
          707 339 rmoveto
          207 -152 158 -174 -178 -149 -160 -205 -203 151 -157 175 179 148 159 201 vhcurveto
          -88 1 rmoveto
          -250 -138 -90 -100 -104 -135 94 246 248 136 96 102 107 132 -99 -245 vhcurveto
          -55 -66 rmoveto
          137 -22 -34 -323 34 -22 -137 22 34 323 -34 vlineto
          endchar
        </CharString>
        <CharString name="Thorn">
          -31 -1 30 149 29 316 29 102 30 hstem
          137 76 252 91 vstem
          556 365 rmoveto
          84 -68 103 -146 vhcurveto
          -129 53 hlineto
          49 11 0 84 vhcurveto
          30 vlineto
          -133 -3 -133 3 rlineto
          -30 vlineto
          84 11 0 -49 hvcurveto
          -527 vlineto
          -49 -11 0 -84 vhcurveto
          -30 vlineto
          133 3 133 -3 rlineto
          30 vlineto
          -84 -11 0 49 hvcurveto
          100 139 vlineto
          119 85 89 98 hvcurveto
          -91 1 rmoveto
          -82 -54 -77 -91 vhcurveto
          -107 316 112 hlineto
          20 45 0 -44 36 hvcurveto
          29 -35 10 -40 -38 vvcurveto
          endchar
        </CharString>
        <CharString name="Tlinebelow">
          64 -165 29 136 136 callsubr
          hstemhm
          313 81 hintmask 01110000
          -88 callsubr
          hintmask 10000000
          -119 -620 -29 callsubr
        </CharString>
        <CharString name="U">
          13 callgsubr
          hstem
          136 81 353 27 vstem
          -104 callgsubr
          endchar
        </CharString>
        <CharString name="U_uni032F">
          91 -216 136 callgsubr
          44 94 callgsubr
          24 callgsubr
          hintmask 00111100
          -104 callgsubr
          hintmask 11000000
          -158 -891 -50 callsubr
        </CharString>
        <CharString name="Uacute">
          13 callgsubr
          82 -21 161 -20 24 callgsubr
          hintmask 11001100
          -104 callgsubr
          hintmask 00110000
          -169 212 -104 callsubr
        </CharString>
        <CharString name="Ubreve">
          13 callgsubr
          61 35 137 -20 24 callgsubr
          hintmask 11001100
          -104 callgsubr
          hintmask 00110000
          -158 262 -96 callgsubr
          endchar
        </CharString>
        <CharString name="Ucaron">
          13 callgsubr
          72 -21 133 -20 24 callgsubr
          hintmask 11001100
          -104 callgsubr
          hintmask 00110000
          -152 197 -62 callgsubr
        </CharString>
        <CharString name="Ucircumflex">
          13 callgsubr
          72 -21 133 -20 24 callgsubr
          hintmask 11001100
          -104 callgsubr
          hintmask 00110000
          -152 96 -55 callgsubr
        </CharString>
        <CharString name="Udblgrave">
          13 callgsubr
          82 121 callsubr
          24 callgsubr
          hintmask 11001100
          -104 callgsubr
          hintmask 00110000
          -185 100 -95 callgsubr
        </CharString>
        <CharString name="Udieresis">
          13 callgsubr
          51 87 75 callgsubr
          35 87 101 87 43 27 hintmask 11010010
          -104 callgsubr
          hintmask 00101100
          -25 callgsubr
          endchar
        </CharString>
        <CharString name="Udieresisacute">
          13 callgsubr
          51 87 81 -21 161 -20 75 callgsubr
          35 87 101 87 43 27 hintmask 1100010010000000
          -104 callgsubr
          hintmask 0011101100000000
          -25 callgsubr
          -4 226 -104 callsubr
        </CharString>
        <CharString name="Udieresiscaron">
          13 callgsubr
          51 87 71 -21 133 -20 75 callgsubr
          35 87 101 87 43 27 hintmask 1100010010000000
          -104 callgsubr
          hintmask 0011101100000000
          -25 callgsubr
          13 211 -62 callgsubr
        </CharString>
        <CharString name="Udieresisgrave">
          13 callgsubr
          51 87 81 -21 161 -20 75 callgsubr
          35 87 101 87 43 27 hintmask 1100010010000000
          -104 callgsubr
          hintmask 0011101100000000
          -25 callgsubr
          -70 122 -80 callsubr
        </CharString>
        <CharString name="Udotbelow">
          13 callgsubr
          75 callgsubr
          124 97 132 27 hintmask 11101000
          -104 callgsubr
          hintmask 00010000
          -254 -806 -98 callgsubr
        </CharString>
        <CharString name="Ugrave">
          13 callgsubr
          82 -21 161 -20 24 callgsubr
          hintmask 11001100
          -104 callgsubr
          hintmask 00110000
          -235 108 -80 callsubr
        </CharString>
        <CharString name="Uhookabove">
          13 callgsubr
          93 137 callgsubr
          24 callgsubr
          hintmask 11001100
          -104 callgsubr
          hintmask 00110000
          -208 246 -107 callgsubr
        </CharString>
        <CharString name="Uhorn">
          32 callgsubr
          97 -20 60 callgsubr
          hintmask 0001100010000000
          702 722 rmoveto
          30 -20 28 -29 -32 -16 -24 -24 -25 16 -24 32 7 6 1 2 5 vhcurveto
          -14 -26 -28 -18 -33 -4 rrcurveto
          45 vlineto
          hintmask 0010000000000000
          -1 -4 -4 -1 -5 hhcurveto
          hintmask 0101000010000000
          -108 2 rlineto
          -29 vlineto
          25 26 -2 -14 20 hvcurveto
          16 -10 8 -18 -19 vvcurveto
          -363 vlineto
          hintmask 1110011100000000
          -59 -19 -56 -36 -42 vhcurveto
          -40 -35 -49 -23 -51 hhcurveto
          -48 -45 23 39 -29 hvcurveto
          -31 41 -10 53 64 vvcurveto
          390 vlineto
          13 4 13 11 4 vhcurveto
          6 16 37 0 26 hhcurveto
          hintmask 0001000000000000
          29 vlineto
          hintmask 0010000000000000
          -135 -2 rlineto
          hintmask 1101010010000000
          -135 2 rlineto
          -29 vlineto
          27 36 0 -6 16 hvcurveto
          11 -4 5 -13 -13 vvcurveto
          -390 vlineto
          -66 25 -63 46 -47 vhcurveto
          -46 46 62 -27 65 hhcurveto
          58 56 28 45 39 hvcurveto
          42 48 21 63 65 vvcurveto
          388 vlineto
          58 6 48 43 57 vvcurveto
          endchar
        </CharString>
        <CharString name="Uhornacute">
          32 callgsubr
          82 -21 36 -20 145 -20 -86 callgsubr
          -206 144 -104 callsubr
        </CharString>
        <CharString name="Uhorndotbelow">
          32 callgsubr
          97 -20 75 callgsubr
          15 26 61 97 99 81 -26 26 hintmask 0001100001000000
          702 722 rmoveto
          30 -20 28 -29 -32 -16 -24 -24 -25 16 -24 32 7 6 1 2 5 vhcurveto
          -14 -26 -28 -18 -33 -4 rrcurveto
          45 vlineto
          hintmask 0010000000000000
          -1 -4 -4 -1 -5 hhcurveto
          hintmask 0101000001000000
          -108 2 rlineto
          -29 vlineto
          25 26 -2 -14 20 hvcurveto
          16 -10 8 -18 -19 vvcurveto
          -363 vlineto
          hintmask 1110011010000000
          -59 -19 -56 -36 -42 vhcurveto
          -40 -35 -49 -23 -51 hhcurveto
          -48 -45 23 39 -29 hvcurveto
          -31 41 -10 53 64 vvcurveto
          390 vlineto
          13 4 13 11 4 vhcurveto
          6 16 37 0 26 hhcurveto
          hintmask 0001000000000000
          29 vlineto
          hintmask 0010000000000000
          -135 -2 rlineto
          hintmask 1101010001000000
          -135 2 rlineto
          -29 vlineto
          27 36 0 -6 16 hvcurveto
          11 -4 5 -13 -13 vvcurveto
          -390 vlineto
          -66 25 -63 46 -47 vhcurveto
          -46 46 62 -27 65 hhcurveto
          58 56 28 45 39 hvcurveto
          42 48 21 63 65 vvcurveto
          388 vlineto
          58 6 48 43 57 vvcurveto
          hintmask 0000000100000000
          -286 -874 -98 callgsubr
        </CharString>
        <CharString name="Uhorngrave">
          32 callgsubr
          82 -21 36 -20 145 -20 -86 callgsubr
          -245 40 -80 callsubr
        </CharString>
        <CharString name="Uhornhookabove">
          32 callgsubr
          93 -21 25 -20 206 -20 -86 callgsubr
          -218 178 -107 callgsubr
        </CharString>
        <CharString name="Uhorntilde">
          32 callgsubr
          51 42 4 -20 23 42 -86 callgsubr
          -151 89 -106 callgsubr
        </CharString>
        <CharString name="Uhungarumlaut">
          13 callgsubr
          82 121 callsubr
          24 callgsubr
          hintmask 11001100
          -104 callgsubr
          hintmask 00110000
          -301 242 -79 callgsubr
        </CharString>
        <CharString name="Umacron">
          13 callgsubr
          71 29 24 callgsubr
          hintmask 11011000
          -104 callgsubr
          hintmask 00100000
          -127 100 -29 callsubr
        </CharString>
        <CharString name="Uogonek">
          91 -202 44 137 29 646 96 callsubr
          164 27 162 27 vstem
          692 654 88 callsubr
          -54 81 callsubr
          -54 0 2 -26 hvcurveto
          -29 vlineto
          95 0 -47 -27 hvcurveto
          -350 vlineto
          -140 -95 -82 -94 -60 -104 40 175 vhcurveto
          384 vlineto
          37 3 10 72 vhcurveto
          20 81 callgsubr
          -82 0 -29 hhcurveto
          -30 -82 0 2 -24 hvcurveto
          -29 20 vlineto
          -57 callsubr
          -378 vlineto
          -127 89 -96 108 -22 vhcurveto
          -30 -30 -23 -36 -35 -45 callgsubr
          -56 callgsubr
          19 10 17 13 15 hvcurveto
          6 7 7 7 7 6 rrcurveto
          11 hlineto
          139 79 136 100 hvcurveto
          378 vlineto
          61 77 0 18 vhcurveto
          endchar
        </CharString>
        <CharString name="Upsilon">
          119 0 29 605 70 hstem
          54 30 256 81 257 29 vstem
          707 553 rmoveto
          53 -35 98 -93 -102 -73 -89 -157 -23 vhcurveto
          -1 hlineto
          41 -6 -33 205 -159 hhcurveto
          -93 -35 -99 -52 -11 1 -5 13 11 1 4 12 1 hvcurveto
          49 6 42 32 52 hhcurveto
          152 7 -235 -47 hvcurveto
          -275 vlineto
          -36 -2 -12 -87 vhcurveto
          -30 -29 hlineto
          2 29 95 0 35 hhcurveto
          35 96 0 -2 29 hvcurveto
          29 -30 vlineto
          -87 -2 12 36 hvcurveto
          275 vlineto
          58 11 224 148 49 45 -29 -53 6 vhcurveto
          -11 1 1 -4 11 hhcurveto
          13 1 5 11 hvcurveto
          endchar
        </CharString>
        <CharString name="Uring">
          13 callgsubr
          31 107 callsubr
          75 callgsubr
          79 30 126 30 88 27 hintmask 11001001
          -104 callgsubr
          hintmask 00110110
          -240 148 -57 callgsubr
        </CharString>
        <CharString name="Utilde">
          13 callgsubr
          51 42 7 42 24 callgsubr
          hintmask 11001100
          -104 callgsubr
          hintmask 00110000
          -141 157 -106 callgsubr
        </CharString>
        <CharString name="V">
          91 0 -21 646 29 0 29 hstemhm
          18 697 hintmask 00110000
          715 654 rmoveto
          29 vlineto
          -92 -2 rlineto
          -27 -50 0 2 -25 hvcurveto
          -29 vlineto
          51 -1 15 -28 -20 vvcurveto
          -6 0 -2 -6 -14 vhcurveto
          -187 -493 -197 520 rlineto
          hintmask 01000000
          -5 11 0 4 0 vvcurveto
          29 50 0 25 vhcurveto
          hintmask 10110000
          29 vlineto
          -2 -24 -76 0 -29 hhcurveto
          -28 -68 0 2 -24 hvcurveto
          -29 vlineto
          62 16 0 -40 15 hvcurveto
          234 -616 rlineto
          -14 5 2 -5 14 hhcurveto
          14 1 3 17 7 hvcurveto
          223 585 9 25 17 44 78 1 rlinecurve
          endchar
        </CharString>
        <CharString name="W">
          61 callsubr
          hstem
          17 971 vstem
          -89 callsubr
          endchar
        </CharString>
        <CharString name="Wacute">
          61 callsubr
          82 -21 161 -20 hstemhm
          17 971 hintmask 11100100
          -89 callsubr
          hintmask 00011000
          -351 212 -104 callsubr
        </CharString>
        <CharString name="Wcircumflex">
          61 callsubr
          102 callsubr
          17 971 hintmask 11100100
          -89 callsubr
          hintmask 00011000
          -334 96 -55 callgsubr
        </CharString>
        <CharString name="Wdieresis">
          61 callsubr
          51 87 hstemhm
          17 971 -622 87 101 87 hintmask 11101000
          -89 callsubr
          hintmask 00010110
          -535 26 callgsubr
        </CharString>
        <CharString name="Wgrave">
          61 callsubr
          82 -21 161 -20 hstemhm
          17 971 hintmask 11100100
          -89 callsubr
          hintmask 00011000
          -417 108 -80 callsubr
        </CharString>
        <CharString name="X">
          -50 callgsubr
        </CharString>
        <CharString name="Xi">
          10 0 64 97 -20 154 -21 47 64 47 -20 137 -21 86 64 hstemhm
          41 22 -17 22 68 22 336 22 68 22 -17 22 hintmask 0000011010010000
          606 528 rmoveto
          -8 150 rlineto
          -544 hlineto
          -8 -150 rlineto
          22 hlineto
          1 15 2 49 9 14 rrcurveto
          8 6 59 0 10 hhcurveto
          342 hlineto
          24 46 0 -10 6 hvcurveto
          8 -15 3 -50 -11 vvcurveto
          27 -367 rmoveto
          hintmask 1111100101101000
          -22 hlineto
          -2 -39 -2 -33 -7 -14 rrcurveto
          -11 -7 -48 0 -25 hhcurveto
          -344 hlineto
          -18 -55 0 10 -6 hvcurveto
          -8 13 -2 35 -2 39 rrcurveto
          -22 hlineto
          8 -161 rlineto
          554 hlineto
          -87 274 rmoveto
          158 -22 -47 -336 47 -22 -158 22 47 336 -47 vlineto
          endchar
        </CharString>
        <CharString name="Y">
          125 callsubr
          327 79 vstem
          -92 callgsubr
          endchar
        </CharString>
        <CharString name="Yacute">
          21 callsubr
          82 -21 161 -20 hstemhm
          327 79 hintmask 11001000
          -92 callgsubr
          hintmask 00110000
          -222 212 -104 callsubr
        </CharString>
        <CharString name="Ycircumflex">
          21 callsubr
          102 callsubr
          327 79 hintmask 11001000
          -92 callgsubr
          hintmask 00110000
          -205 96 -55 callgsubr
        </CharString>
        <CharString name="Ydieresis">
          21 callsubr
          51 87 hstemhm
          230 87 10 79 12 87 hintmask 11001000
          -92 callgsubr
          hintmask 00110100
          -406 26 callgsubr
        </CharString>
        <CharString name="Ydotbelow">
          21 callsubr
          hstemhm
          319 97 -89 79 hintmask 11010000
          -92 callgsubr
          hintmask 00100000
          -307 -806 -98 callgsubr
        </CharString>
        <CharString name="Ygrave">
          21 callsubr
          82 -21 161 -20 hstemhm
          327 79 hintmask 11001000
          -92 callgsubr
          hintmask 00110000
          -288 108 -80 callsubr
        </CharString>
        <CharString name="Yhookabove">
          21 callsubr
          93 137 callgsubr
          hstemhm
          327 79 hintmask 11001000
          -92 callgsubr
          hintmask 00110000
          -261 246 -107 callgsubr
        </CharString>
        <CharString name="Ytilde">
          21 callsubr
          51 42 7 42 hstemhm
          327 79 hintmask 11001000
          -92 callgsubr
          hintmask 00110000
          -194 157 -106 callgsubr
        </CharString>
        <CharString name="Z">
          93 callgsubr
          hstem
          54 494 vstem
          -71 callsubr
          endchar
        </CharString>
        <CharString name="Zacute">
          93 callgsubr
          82 120 callgsubr
          494 hintmask 11001000
          -71 callsubr
          hintmask 00110000
          -99 866 -104 callsubr
        </CharString>
        <CharString name="Zcaron">
          93 callgsubr
          102 callsubr
          54 494 hintmask 11001000
          -71 callsubr
          hintmask 00110000
          -82 851 -62 callgsubr
        </CharString>
        <CharString name="Zdotaccent">
          93 callgsubr
          72 97 hstemhm
          54 494 -297 97 hintmask 11010000
          -71 callsubr
          hintmask 00101000
          -184 803 -98 callgsubr
        </CharString>
        <CharString name="Zdotbelow">
          93 callgsubr
          hstemhm
          54 494 -297 97 hintmask 11100000
          -71 callsubr
          hintmask 00010000
          -184 -152 -98 callgsubr
        </CharString>
        <CharString name="Zeta">
          93 callgsubr
          hstem
          54 494 vstem
          -71 callsubr
          endchar
        </CharString>
        <CharString name="a">
          -53 callsubr
          4 callsubr
          hintmask 10011111
          474 89 rmoveto
          56 -22 -56 vlineto
          -57 -24 -8 -14 -38 0 53 15 vhcurveto
          175 vlineto
          54 0 40 -44 39 vhcurveto
          32 -35 -45 14 -44 hhcurveto
          -82 -63 -54 -65 -29 19 -14 23 24 17 17 24 41 -36 0 -15 hvcurveto
          42 23 48 18 40 hhcurveto
          46 59 -38 -90 hvcurveto
          -40 vlineto
          -201 -3 -76 -84 -77 vvcurveto
          hintmask 01000000
          -79 92 -25 61 66 45 40 48 19 vhcurveto
          hintmask 10100111
          -88 callgsubr
          endchar
        </CharString>
        <CharString name="aacute">
          -53 callsubr
          106 -21 186 -103 callsubr
          hintmask 0000011000000000
          54 424 -91 callgsubr
        </CharString>
        <CharString name="abreve">
          -53 callsubr
          92 35 137 -103 callsubr
          hintmask 0000011000000000
          47 callgsubr
          endchar
        </CharString>
        <CharString name="abreveacute">
          -53 callsubr
          92 35 318 -103 callsubr
          hintmask 0000011000000000
          47 callgsubr
          -45 142 -104 callsubr
        </CharString>
        <CharString name="abrevedotbelow">
          -53 callsubr
          92 35 137 -20 hstemhm
          34 71 92 97 17 65 76 22 hintmask 1001100101100000
          -106 callsubr
          hintmask 1010011101100000
          -88 callgsubr
          47 callgsubr
          hintmask 0000000010000000
          -96 -842 -98 callgsubr
        </CharString>
        <CharString name="abrevegrave">
          -53 callsubr
          92 35 137 -103 callsubr
          hintmask 0000011000000000
          47 callgsubr
          -44 38 rmoveto
          -4 -6 -4 -6 -5 -6 -168 96 rcurveline
          -18 10 -2 11 -1 5 rrcurveto
          21 -3 17 18 20 hhcurveto
          10 6 -6 -8 9 hvcurveto
          endchar
        </CharString>
        <CharString name="abrevehookabove">
          -53 callsubr
          92 35 348 -63 callgsubr
          47 callgsubr
          -50 145 -107 callgsubr
        </CharString>
        <CharString name="abrevetilde">
          -53 callsubr
          92 122 callgsubr
          34 71 206 65 76 22 hintmask 1001100000111000
          -106 callsubr
          hintmask 1010000000111000
          -88 callgsubr
          hintmask 0000011001010000
          47 callgsubr
          17 117 rmoveto
          -14 14 rlineto
          -29 -29 -21 -20 -32 hhcurveto
          -15 -14 3 21 -31 hvcurveto
          12 -20 -20 13 -23 hhcurveto
          hintmask 0000000100000000
          -37 -22 -25 -52 -47 hvcurveto
          hintmask 0000001001000000
          14 -14 rlineto
          29 29 21 20 32 hhcurveto
          15 14 -3 -21 31 hvcurveto
          -12 20 20 -13 23 hhcurveto
          hintmask 0000000010000000
          37 22 25 52 47 hvcurveto
          endchar
        </CharString>
        <CharString name="acaron">
          -53 callsubr
          111 -21 176 -103 callsubr
          hintmask 0000011000000000
          86 438 -60 callsubr
        </CharString>
        <CharString name="acircumflex">
          -53 callsubr
          111 -21 176 -103 callsubr
          hintmask 0000011000000000
          86 290 -68 callsubr
          endchar
        </CharString>
        <CharString name="acircumflexacute">
          -53 callsubr
          111 -21 314 -63 callgsubr
          85 292 -70 callgsubr
        </CharString>
        <CharString name="acircumflexdotbelow">
          -53 callsubr
          111 127 callsubr
          34 71 92 97 17 65 76 22 hintmask 1001100101100000
          -106 callsubr
          hintmask 1010011101100000
          -88 callgsubr
          86 290 -68 callsubr
          hintmask 0000000010000000
          -90 -668 -98 callgsubr
        </CharString>
        <CharString name="acircumflexgrave">
          -53 callsubr
          111 -21 133 -103 callsubr
          hintmask 0000011000000000
          85 292 -73 callgsubr
        </CharString>
        <CharString name="acircumflexhookabove">
          -53 callsubr
          111 -21 344 -63 callgsubr
          85 292 -90 callgsubr
          51 278 -107 callgsubr
        </CharString>
        <CharString name="acircumflextilde">
          -53 callsubr
          111 -21 173 122 callsubr
          hintmask 1001100011100000
          -106 callsubr
          hintmask 1010000011100000
          -88 callgsubr
          hintmask 0000011100000000
          85 292 -90 callgsubr
          24 250 -106 callgsubr
        </CharString>
        <CharString name="acute">
          532 62 callgsubr
          hstem
          365 664 -91 callgsubr
        </CharString>
        <CharString name="acute.cap">
          512 -21 161 -20 hstem
          379 613 -104 callsubr
        </CharString>
        <CharString name="acute.dup">
          532 62 callgsubr
          hstem
          365 664 -91 callgsubr
        </CharString>
        <CharString name="acute.ts1">
          -154 532 -21 188 -20 hstem
          383 664 rmoveto
          18 -16 17 -18 -14 -9 -12 -9 -8 vhcurveto
          -18 -23 -65 -85 -21 -27 rlineto
          -4 -5 -6 -5 -6 vvcurveto
          -6 9 -6 4 -4 vhcurveto
          51 38 48 43 48 42 rrcurveto
          9 7 10 8 15 vvcurveto
          endchar
        </CharString>
        <CharString name="adblgrave">
          -53 callsubr
          107 -21 185 -103 callsubr
          hintmask 0000011000000000
          52 282 -95 callgsubr
        </CharString>
        <CharString name="adieresis">
          -53 callsubr
          135 87 hstemhm
          34 71 17 87 73 87 -58 65 76 22 hintmask 1001101001100000
          -106 callsubr
          hintmask 1010001001100000
          -88 callgsubr
          hintmask 0000010110000000
          -102 364 -64 callsubr
        </CharString>
        <CharString name="adotbelow">
          -53 callsubr
          hstemhm
          34 71 92 97 17 65 76 22 hintmask 1001110110000000
          -106 callsubr
          hintmask 1010010110000000
          -88 callgsubr
          hintmask 0000001000000000
          -17 -392 -98 callgsubr
        </CharString>
        <CharString name="ae">
          -56 callsubr
        </CharString>
        <CharString name="ae.dup">
          -56 callsubr
        </CharString>
        <CharString name="aeacute">
          64 11 -21 240 19 -17 19 33 82 80 -20 106 35 callgsubr
          46 71 204 65 231 62 hintmask 0011100011000000
          679 119 rmoveto
          6 -5 4 -6 -8 -2 -6 -3 -1 vhcurveto
          -84 -24 -59 -24 -42 hhcurveto
          -44 -43 26 46 -28 hvcurveto
          -31 51 0 62 35 vvcurveto
          269 hlineto
          22 2 0 19 108 -55 87 -108 -55 -55 -27 -51 -37 hvcurveto
          74 -50 -76 4 -24 hhcurveto
          -85 -61 -56 -63 -29 19 -14 23 24 17 17 24 41 -36 0 -15 hvcurveto
          43 23 51 17 37 hhcurveto
          47 58 -38 -90 hvcurveto
          hintmask 1100000111000000
          -49 vlineto
          -248 -8 -27 -105 -46 vvcurveto
          -71 82 -29 70 74 64 34 56 27 vhcurveto
          -81 60 74 -9 31 hhcurveto
          109 42 109 20 128 callgsubr
          hintmask 0010000101000000
          -230 hlineto
          163 12 95 12 21 hhcurveto
          97 4 -142 -33 1 hvcurveto
          -285 -118 rmoveto
          -73 -63 -50 -64 -47 -41 33 48 27 13 48 53 30 vhcurveto
          hintmask 0100000010000000
          49 28 55 4 34 2 rrcurveto
          -23 0 -19 7 -27 vhcurveto
          4 -17 0 -1 -10 vvcurveto
          hintmask 0000011000000000
          142 531 -91 callgsubr
        </CharString>
        <CharString name="agrave">
          -53 callsubr
          106 -21 186 -103 callsubr
          hintmask 0000011000000000
          -5 287 -75 callsubr
        </CharString>
        <CharString name="ahookabove">
          -53 callsubr
          94 -21 211 -63 callgsubr
          29 404 -107 callgsubr
        </CharString>
        <CharString name="amacron">
          -53 callsubr
          164 29 4 callsubr
          hintmask 1001101110000000
          -106 callsubr
          hintmask 1010001110000000
          -88 callgsubr
          hintmask 0000010000000000
          110 350 -29 callsubr
        </CharString>
        <CharString name="ampersand">
          119 -21 29 350 29 15 29 284 -20 hstemhm
          41 76 0 76 -32 59 -2 76 0 59 0 22 118 76 116 22 hintmask 0111001001100000
          712 402 rmoveto
          29 vlineto
          -99 -2 rlineto
          -27 -64 0 2 -23 hvcurveto
          -29 vlineto
          42 28 -16 -28 -4 0 -6 -4 -8 hvcurveto
          -20 -37 -27 -45 -25 -41 -36 -58 -31 -38 -4 -5 -17 21 -102 130 -46 120 rrcurveto
          26 28 92 99 75 vvcurveto
          10 -1 116 -82 -61 -70 -54 -105 -47 9 -68 25 -69 vhcurveto
          5 -17 rlineto
          hintmask 0000010000000000
          -3 -5 -5 -2 -2 vhcurveto
          -115 -125 rlineto
          hintmask 1010100100110000
          -17 -19 -20 -33 -40 vvcurveto
          -87 83 -62 94 67 60 29 48 51 vhcurveto
          -22 25 62 -55 85 hhcurveto
          75 62 57 85 2 hvcurveto
          -22 hlineto
          -76 -2 -62 -37 -49 hhcurveto
          -49 -45 41 49 -42 hvcurveto
          47 58 34 59 52 88 35 61 21 37 87 1 rrcurveto
          -359 186 rmoveto
          -65 -82 -90 -21 -24 vhcurveto
          hintmask 1000101010000000
          -21 58 -9 68 44 vvcurveto
          81 38 35 36 55 4 -87 -20 vhcurveto
          26 -515 rmoveto
          -58 -62 -61 -7 -29 hhcurveto
          -82 -28 90 61 26 4 42 27 37 hvcurveto
          1 3 52 57 8 9 40 -91 66 -98 64 -71 rrcurveto
          endchar
        </CharString>
        <CharString name="anglearc">
          119 -56 -21 654 -20 hstem
          548 36 vstem
          707 18 rmoveto
          8 -5 6 -7 3 vhcurveto
          -138 52 rlineto
          18 52 9 55 56 vvcurveto
          56 -9 55 -18 52 vhcurveto
          138 52 rlineto
          7 3 5 6 8 vvcurveto
          13 -13 8 -11 -4 vhcurveto
          -138 -52 -19 44 -24 42 -30 37 rlinecurve
          4 -4 -5 3 -5 hhcurveto
          -10 -8 -8 -10 -4 1 -4 3 -3 hvcurveto
          27 -35 23 -38 17 -41 -445 -167 rcurveline
          -7 -3 -5 -6 -8 vvcurveto
          -8 5 -6 7 -3 vhcurveto
          445 -167 -17 -41 -23 -38 -27 -35 rlinecurve
          -3 -3 -1 -4 -4 vvcurveto
          -10 8 -8 10 5 5 3 4 4 vhcurveto
          30 37 24 42 19 44 138 -52 rcurveline
          11 -4 13 8 13 vvcurveto
          -159 232 rmoveto
          -52 -8 -50 -16 -49 vhcurveto
          -401 151 401 151 rlineto
          16 -49 8 -50 -52 vvcurveto
          endchar
        </CharString>
        <CharString name="angleleft">
          -262 79 callsubr
          21 -20 hstemhm
          hintmask 00100000
          326 -230 rmoveto
          -1 6 -2 5 -2 5 -165 440 rcurveline
          -3 7 -6 10 8 vvcurveto
          3 2 4 2 4 vhcurveto
          122 325 50 133 rlineto
          1 5 2 5 5 vvcurveto
          9 -2 -8 7 -8 hhcurveto
          hintmask 11000000
          -5 -1 -9 -2 -4 -8 -3 -8 rlinecurve
          -169 -451 rlineto
          -3 -9 -7 -12 -10 vvcurveto
          -9 6 -10 3 -8 vhcurveto
          88 -235 70 -187 10 -26 rlineto
          -11 4 5 -14 14 hhcurveto
          10 8 11 9 hvcurveto
          endchar
        </CharString>
        <CharString name="angleright">
          -262 79 callsubr
          21 -20 hstemhm
          hintmask 00100000
          272 251 rmoveto
          10 -6 10 -4 9 vhcurveto
          -167 447 rlineto
          11 -4 -5 13 -14 hhcurveto
          hintmask 11000000
          -4 -1 rlineto
          -9 -2 -5 -8 -9 vvcurveto
          1 -5 2 -5 2 -5 71 -189 rcurveline
          72 -193 22 -57 rlineto
          3 -8 6 -10 -9 vvcurveto
          -3 -2 -4 -2 -4 vhcurveto
          -168 -449 rlineto
          -3 -7 -4 -8 -7 vvcurveto
          -11 10 -7 10 vhcurveto
          11 1 5 10 3 9 62 166 rcurveline
          83 220 24 64 rlineto
          3 9 7 12 10 vvcurveto
          endchar
        </CharString>
        <CharString name="aogonek">
          -202 44 153 29 260 82 80 -20 hstem
          34 71 152 45 9 65 76 22 vstem
          -41 callgsubr
          endchar
        </CharString>
        <CharString name="aogonekacute">
          -202 44 153 29 260 82 80 -20 106 35 callgsubr
          34 71 152 45 9 65 76 22 hintmask 1111001111000000
          -41 callgsubr
          hintmask 0000110000000000
          54 424 -91 callgsubr
        </CharString>
        <CharString name="aring">
          -53 callsubr
          101 107 callsubr
          hstemhm
          34 71 47 30 126 30 -27 65 76 22 hintmask 1001100100110000
          -106 callsubr
          hintmask 1010000100110000
          -88 callgsubr
          hintmask 0000011011000000
          -3 375 -57 callgsubr
        </CharString>
        <CharString name="aringacute">
          -53 callsubr
          101 107 callsubr
          181 -20 hstemhm
          34 71 47 30 126 30 -27 65 76 22 hintmask 1001100010011000
          -106 callsubr
          hintmask 1010000010011000
          -88 callgsubr
          hintmask 0000011001100000
          -3 375 -77 callsubr
          8 231 rmoveto
          hintmask 0000000100010000
          21 2 -16 18 -21 hhcurveto
          -10 -6 -6 -8 -8 hvcurveto
          -143 -129 4 -6 4 -6 5 -6 rlinecurve
          168 96 18 10 2 11 1 5 rlinecurve
          endchar
        </CharString>
        <CharString name="asciicircum">
          -87 583 -21 123 59 hstem
          -5 566 vstem
          561 584 rmoveto
          -283 160 -283 -160 11 -22 271 123 272 -123 rlineto
          endchar
        </CharString>
        <CharString name="asciitilde">
          -87 193 43 -25 43 -8 43 -25 43 hstemhm
          hintmask 10010000
          555 290 54 callgsubr
          hintmask 01000000
          27 callsubr
          hintmask 00100000
          20 10 20 11 17 14 rrcurveto
          endchar
        </CharString>
        <CharString name="asciitilde.low">
          -87 0 43 -25 43 -8 43 -25 43 hstemhm
          0 555 hintmask 10010000
          555 97 54 callgsubr
          hintmask 01001000
          27 callsubr
          hintmask 00101000
          20 10 20 11 17 14 rrcurveto
          endchar
        </CharString>
        <CharString name="asterisk">
          340 -21 431 -20 hstem
          64 361 vstem
          425 441 rmoveto
          15 -10 4 -9 5 vhcurveto
          -142 69 140 69 rlineto
          12 6 9 4 15 vvcurveto
          16 -12 11 -14 -3 -5 0 -9 -12 vhcurveto
          -124 -93 14 162 rlineto
          13 1 -1 22 -24 hhcurveto
          -15 -13 -12 -13 3 hvcurveto
          -10 vlineto
          14 -162 -124 92 rlineto
          9 -12 -1 1 -7 hhcurveto
          -14 -12 -11 -16 -15 10 -4 9 -5 hvcurveto
          142 -69 -140 -69 rlineto
          -12 -6 -9 -4 -15 vvcurveto
          -16 12 -11 14 3 5 0 9 12 vhcurveto
          124 93 -14 -166 rlineto
          -5 vlineto
          -14 -3 13 -12 15 hhcurveto
          24 1 22 13 -1 hvcurveto
          -14 162 124 -92 rlineto
          -9 12 1 -1 7 hhcurveto
          14 12 11 16 hvcurveto
          endchar
        </CharString>
        <CharString name="asterisk.math">
          -154 57 -21 430 -20 hstemhm
          219 50 -36 22 hintmask 00010000
          423 158 rmoveto
          20 -20 4 -16 9 vhcurveto
          -53 26 -23 11 -22 14 -24 8 rlinecurve
          2 vlineto
          24 8 22 14 23 11 rrcurveto
          30 15 59 17 27 vvcurveto
          12 -8 15 -16 -14 -14 -14 -8 -11 vhcurveto
          -35 -26 -34 -28 -36 -24 rrcurveto
          hintmask 01100000
          54 14 58 55 vvcurveto
          11 -4 17 -21 -18 -7 -14 -14 vhcurveto
          hintmask 00010000
          -55 14 -58 -54 vvcurveto
          -36 24 -34 28 -35 26 rrcurveto
          8 -11 -14 14 -14 hhcurveto
          -16 -8 -15 -12 -20 20 -4 16 -9 hvcurveto
          53 -26 23 -11 22 -14 24 -8 rlinecurve
          -2 vlineto
          -24 -8 -22 -14 -23 -11 rrcurveto
          -30 -15 -59 -17 -27 vvcurveto
          -12 8 -15 16 14 14 14 8 11 vhcurveto
          35 26 34 28 36 24 rrcurveto
          hintmask 10100000
          -54 -14 -58 -55 vvcurveto
          -11 4 -17 21 18 7 14 14 vhcurveto
          hintmask 00010000
          55 -14 58 54 vvcurveto
          36 -24 34 -28 35 -26 rrcurveto
          -8 11 14 -14 14 hhcurveto
          16 8 15 12 hvcurveto
          endchar
        </CharString>
        <CharString name="at">
          119 -10 20 119 20 396 20 119 20 hstemhm
          54 22 109 65 261 65 108 22 -21 22 hintmask 1001100100000000
          707 336 rmoveto
          241 -173 127 -153 -179 -148 -157 -200 -189 136 -168 196 32 62 2 19 79 vhcurveto
          34 8 113 35 15 vvcurveto
          8 -6 0 -16 vhcurveto
          -6 hlineto
          -15 -2 0 -8 -15 hvcurveto
          -43 -90 -99 -16 -72 hhcurveto
          -180 -129 158 179 191 141 146 163 hvcurveto
          hintmask 0110011010000000
          133 172 -107 -246 -89 -6 -93 -67 -31 -5 37 30 hvcurveto
          241 vlineto
          22 -1 1 -23 vhcurveto
          -34 hlineto
          76 -48 -62 9 -28 hhcurveto
          -104 -91 -94 -124 -124 91 -94 104 60 46 37 36 24 hvcurveto
          -53 9 50 -20 38 hhcurveto
          87 13 99 108 hvcurveto
          -196 -74 rmoveto
          -19 0 -1 -14 -23 vhcurveto
          -44 -29 -45 -26 -41 hhcurveto
          -74 -58 89 109 109 58 89 74 37 47 -22 -50 31 hvcurveto
          14 -21 0 -1 -19 vvcurveto
          endchar
        </CharString>
        <CharString name="atilde">
          -53 callsubr
          133 42 7 42 -101 callsubr
          hintmask 0000011010000000
          96 396 -106 callgsubr
        </CharString>
        <CharString name="b">
          -99 -10 20 411 20 213 40 hstemhm
          28 76 0 63 -63 76 252 76 hintmask 01101000
          78 callgsubr
          -111 -55 -47 -25 -42 -34 vhcurveto
          320 vlineto
          hintmask 10110010
          -139 -80 callgsubr
          -598 14 callsubr
          hintmask 01000110
          18 0 2 11 16 vhcurveto
          106 callgsubr
        </CharString>
        <CharString name="backslash">
          -143 79 callsubr
          hstem
          56 387 vstem
          443 -230 rmoveto
          0 0 5 -5 13 vhcurveto
          -340 940 rlineto
          11 -4 -4 11 -14 hhcurveto
          -11 -9 -9 -11 0 0 -5 5 -13 hvcurveto
          340 -940 rlineto
          -11 4 4 -11 14 hhcurveto
          11 9 9 11 hvcurveto
          endchar
        </CharString>
        <CharString name="baht">
          50 0 29 316 20 289 29 hstemhm
          138 76 111 28 -28 76 45 76 25 91 -28 28 hintmask 1111101010000000
          638 183 rmoveto
          81 -73 80 -119 13 vhcurveto
          95 18 69 64 75 vvcurveto
          86 -87 83 -131 vhcurveto
          -39 28 hlineto
          8 -7 6 -7 -8 -6 -6 -8 vhcurveto
          -28 -282 -29 20 vlineto
          -57 callsubr
          -531 vlineto
          -19 callsubr
          282 -28 hlineto
          -8 6 -6 8 7 7 6 8 vhcurveto
          28 66 vlineto
          129 90 87 96 hvcurveto
          -116 331 rmoveto
          -66 -52 -83 -111 vhcurveto
          -6 289 33 hlineto
          100 36 -86 -54 hvcurveto
          -197 -149 rmoveto
          -111 249 hlineto
          33 2 7 44 vhcurveto
          65 hlineto
          222 -470 rmoveto
          -81 -61 -74 -98 vhcurveto
          -35 316 hlineto
          hintmask 1101010100000000
          48 hlineto
          96 50 -84 -77 hvcurveto
          -222 -155 rmoveto
          -65 hlineto
          -44 -2 7 33 hvcurveto
          276 111 vlineto
          endchar
        </CharString>
        <CharString name="bar">
          -365 131 callsubr
          vstem
          159 -217 rmoveto
          20 callsubr
          endchar
        </CharString>
        <CharString name="bigcircle">
          40 0 36 611 36 hstem
          0 36 611 36 vstem
          -66 callsubr
          endchar
        </CharString>
        <CharString name="blanksymbol">
          -99 -10 20 411 20 -4 20 31 40 70 40 0 20 -4 40 hstemhm
          28 76 0 76 0 76 cntrmask 0000000111000000
          hintmask 0100010111000000
          78 callgsubr
          -111 -55 -47 -25 -42 -34 vhcurveto
          177 vlineto
          89 87 rlineto
          3 3 1 3 4 vvcurveto
          121 callgsubr
          -3 -4 -1 -3 -2 vhcurveto
          -70 -68 rlineto
          hintmask 1011101111000000
          104 vlineto
          -139 -80 callgsubr
          -70 vlineto
          -72 -71 rlineto
          -2 -3 -2 -3 -4 vvcurveto
          -8 6 -6 8 4 3 2 2 3 vhcurveto
          52 51 rlineto
          -488 14 callsubr
          18 0 2 11 16 vhcurveto
          hintmask 0100000111000000
          106 callgsubr
        </CharString>
        <CharString name="braceleft">
          -143 -229 -21 487 24 489 -20 hstem
          216 67 vstem
          427 -239 rmoveto
          10 -6 0 -10 1 vhcurveto
          -79 5 -37 45 -9 36 rrcurveto
          -3 11 0 2 35 vvcurveto
          150 vlineto
          30 0 51 -2 10 vhcurveto
          -13 66 -64 26 -39 11 rrcurveto
          118 34 0 71 28 vvcurveto
          180 vlineto
          72 0 22 24 25 vhcurveto
          18 18 23 24 70 4 rrcurveto
          5 1 4 4 6 vvcurveto
          11 -8 0 -12 -100 -89 -51 -72 -2 vhcurveto
          -183 vlineto
          -94 0 -16 -26 -28 vhcurveto
          -14 -14 -27 -27 -63 -4 rrcurveto
          -7 -7 -1 -10 -10 6 0 10 -1 hvcurveto
          43 -3 85 -21 -100 vvcurveto
          -198 vlineto
          -58 0 -34 52 -37 vhcurveto
          -30 43 65 -8 31 hhcurveto
          12 8 0 11 hvcurveto
          endchar
        </CharString>
        <CharString name="braceright">
          -143 -229 -21 510 -21 511 -20 hstem
          216 67 vstem
          427 250 rmoveto
          10 -6 0 -10 1 vhcurveto
          -43 3 -85 21 100 vvcurveto
          198 vlineto
          58 0 34 -52 37 vhcurveto
          29 -43 -64 9 -32 hhcurveto
          -10 -10 0 -11 -10 6 0 10 -1 hvcurveto
          79 -5 37 -45 9 -36 rrcurveto
          3 -11 0 -2 -35 vvcurveto
          -150 vlineto
          -30 0 -51 2 -10 vhcurveto
          13 -66 64 -26 39 -11 rrcurveto
          -118 -34 0 -71 -28 vvcurveto
          -180 vlineto
          -72 0 -22 -24 -25 vhcurveto
          -18 -18 -23 -24 -70 -4 rrcurveto
          -5 -1 -4 -4 -6 vvcurveto
          -11 10 0 10 100 89 51 72 2 vhcurveto
          183 vlineto
          94 0 16 26 28 vhcurveto
          14 14 27 27 63 4 rrcurveto
          7 7 1 10 hvcurveto
          endchar
        </CharString>
        <CharString name="bracketleft">
          -371 -250 37 926 37 hstem
          116 37 vstem
          250 -250 rmoveto
          37 -97 926 97 37 -134 -1000 vlineto
          endchar
        </CharString>
        <CharString name="bracketright">
          -371 -250 37 926 37 hstem
          118 37 vstem
          155 -250 rmoveto
          1000 -134 -37 97 -926 -97 -37 vlineto
          endchar
        </CharString>
        <CharString name="breve">
          518 35 137 -20 hstem
          390 690 -96 callgsubr
          endchar
        </CharString>
        <CharString name="breve.cap">
          491 35 137 -20 hstem
          390 663 -96 callgsubr
          endchar
        </CharString>
        <CharString name="breve.ts1">
          -45 522 35 138 -20 hstem
          99 20 359 20 vstem
          498 695 rmoveto
          -20 hlineto
          -88 -96 -50 -83 -83 -97 48 90 vhcurveto
          -20 hlineto
          -108 103 -65 97 94 105 60 113 vhcurveto
          endchar
        </CharString>
        <CharString name="brokenbar">
          -365 131 callsubr
          vstem
          159 343 rmoveto
          374 vlineto
          14 0 19 -20 -20 0 -19 -14 vhcurveto
          -374 vlineto
          -9 10 -5 10 10 10 5 9 vhcurveto
          -560 vmoveto
          374 vlineto
          9 -10 5 -10 -10 -10 -5 -9 vhcurveto
          -374 32 callsubr
          endchar
        </CharString>
        <CharString name="bullet">
          119 106 270 hstem
          246 270 69 callsubr
          endchar
        </CharString>
        <CharString name="c">
          45 callgsubr
          hstem
          35 76 202 83 vstem
          -66 callgsubr
          -128 96 -98 113 132 30 120 9 hvcurveto
          endchar
        </CharString>
        <CharString name="cacute">
          45 callgsubr
          86 35 callgsubr
          35 76 202 83 hintmask 11100110
          -66 callgsubr
          -128 96 -98 113 132 30 120 9 hvcurveto
          hintmask 00011000
          -47 545 -91 callgsubr
        </CharString>
        <CharString name="caron">
          537 108 callgsubr
          hstem
          397 678 -60 callsubr
        </CharString>
        <CharString name="caron.cap">
          502 -21 133 -20 hstem
          396 598 -62 callgsubr
        </CharString>
        <CharString name="caron.ts1">
          -45 574 -21 149 -20 hstem
          481 685 rmoveto
          5 -2 -6 12 -6 hhcurveto
          -9 -23 -18 -9 -14 hvcurveto
          -80 -49 -14 -9 -16 -7 -12 -11 rlinecurve
          -14 10 -15 8 -15 9 -87 54 rcurveline
          8 -11 -21 14 -7 hhcurveto
          -1 hlineto
          -5 -2 -5 -10 -2 -5 168 -124 rcurveline
          15 -8 rlineto
          endchar
        </CharString>
        <CharString name="ccaron">
          45 callgsubr
          91 127 callsubr
          35 76 202 83 hintmask 11100110
          -66 callgsubr
          -128 96 -98 113 132 30 120 9 hvcurveto
          hintmask 00011000
          -15 559 -60 callsubr
        </CharString>
        <CharString name="ccedilla">
          -208 -200 22 93 22 53 22 276 82 54 22 hstemhm
          35 76 183 76 -57 83 hintmask 01111101
          -66 callgsubr
          -118 81 -92 101 -14 hvcurveto
          -77 vlineto
          hintmask 11000010
          64 callsubr
          118 10 27 109 9 vvcurveto
          endchar
        </CharString>
        <CharString name="ccircumflex">
          45 callgsubr
          91 127 callsubr
          35 76 202 83 hintmask 11100110
          -66 callgsubr
          -128 96 -98 113 132 30 120 9 hvcurveto
          hintmask 00011000
          -15 411 -68 callsubr
          endchar
        </CharString>
        <CharString name="cdotaccent">
          45 callgsubr
          110 97 hstemhm
          35 76 80 97 25 83 hintmask 11101010
          -66 callgsubr
          -128 96 -98 113 132 30 120 9 hvcurveto
          hintmask 00010100
          -118 485 -98 callgsubr
        </CharString>
        <CharString name="cedilla">
          14 callgsubr
        </CharString>
        <CharString name="cedilla.dup">
          14 callgsubr
        </CharString>
        <CharString name="cent">
          45 callgsubr
          hstem
          35 76 114 28 60 83 vstem
          406 119 rmoveto
          9 -7 0 -3 -9 -1 -3 -12 -3 vhcurveto
          -71 -22 -54 -30 -54 hhcurveto
          412 vlineto
          38 -2 49 -15 22 -37 rrcurveto
          -12 -37 0 -41 -24 17 -17 24 23 19 14 29 65 -65 47 -78 3 hvcurveto
          13 vlineto
          7 -6 7 -8 -7 -7 -7 -7 vhcurveto
          -14 vlineto
          -107 -11 -83 -99 -119 vvcurveto
          -121 86 -94 104 -10 vhcurveto
          -19 vlineto
          -8 7 -6 7 8 6 6 8 vhcurveto
          18 vlineto
          124 6 29 114 9 vvcurveto
          -181 -103 rmoveto
          -55 14 -59 57 130 vvcurveto
          145 65 49 49 11 vhcurveto
          endchar
        </CharString>
        <CharString name="cent.oldstyle">
          -208 -25 22 -7 22 276 82 49 22 -17 22 hstemhm
          35 76 0 83 -34 28 -14 83 0 28 -23 28 -25 28 -14 83 -77 28 0 83 hintmask 0101000001000010
          406 119 rmoveto
          9 -7 0 -3 -9 -1 -3 -12 -3 vhcurveto
          -71 -22 -54 -30 -54 hhcurveto
          -17 -18 4 9 -18 hvcurveto
          85 394 rlineto
          hintmask 0010000000001000
          30 -7 31 -15 16 -27 rrcurveto
          hintmask 0010000000000100
          -12 -37 0 -41 -24 17 -17 24 hvcurveto
          hintmask 0001000000100010
          23 19 14 29 54 -46 42 -60 14 hvcurveto
          hintmask 0000000000010000
          3 15 rlineto
          hintmask 0000000000001000
          8 2 -7 9 -9 hhcurveto
          hintmask 0000000000010000
          -7 -5 -5 -6 -2 hvcurveto
          hintmask 1000110100100000
          -3 -17 rlineto
          1 -6 -5 0 -6 hhcurveto
          -117 -93 -104 -126 -97 56 -80 76 -33 hvcurveto
          -7 -31 rlineto
          hintmask 0000000010000000
          -9 -1 6 -8 9 hhcurveto
          hintmask 0000000100000000
          7 5 5 6 2 hvcurveto
          hintmask 1000001000000000
          6 28 rlineto
          hintmask 0100101001000000
          -5 16 17 -2 17 hhcurveto
          132 30 120 9 hvcurveto
          -149 305 rmoveto
          -82 -382 rlineto
          -36 30 -28 55 90 vvcurveto
          166 85 41 50 vhcurveto
          endchar
        </CharString>
        <CharString name="centigrade">
          282 -21 30 412 29 17 37 36 29 45 29 4 37 -8 29 hstemhm
          272 93 hintmask 11011011
          869 234 rmoveto
          8 -1 9 -10 -16 5 -32 -17 -4 vhcurveto
          -99 -16 -85 -94 -116 hhcurveto
          -73 -73 37 57 -46 hvcurveto
          -55 68 -14 93 85 vvcurveto
          65 10 68 31 58 vhcurveto
          82 43 85 54 93 hhcurveto
          129 64 -125 -101 19 hvcurveto
          -10 1 -2 -19 17 hhcurveto
          11 3 5 8 hvcurveto
          259 vlineto
          6 -3 6 -7 -8 -5 -11 -6 -4 vhcurveto
          -28 -45 -6 -10 -6 -9 -5 -10 rlinecurve
          55 -49 -61 36 -75 hhcurveto
          -195 -145 -175 -189 -185 145 -177 193 128 118 98 143 12 hvcurveto
          1 5 0 4 5 vvcurveto
          -651 342 rmoveto
          hintmask 00110100
          55 -43 53 -68 vhcurveto
          -9 hlineto
          -55 -8 -42 -45 -55 vvcurveto
          -55 43 -54 68 vhcurveto
          9 hlineto
          56 8 41 47 54 vvcurveto
          -37 -1 rmoveto
          -38 -33 -33 -38 vhcurveto
          -5 hlineto
          -35 3 -27 28 -5 34 rrcurveto
          7 vlineto
          38 33 33 38 vhcurveto
          5 hlineto
          35 -3 27 -28 5 -34 rrcurveto
          endchar
        </CharString>
        <CharString name="circumflex">
          537 108 callgsubr
          hstem
          397 530 -68 callsubr
          endchar
        </CharString>
        <CharString name="circumflex.cap">
          502 -21 133 -20 hstem
          396 497 -55 callgsubr
        </CharString>
        <CharString name="circumflex.dup">
          537 108 callgsubr
          hstem
          397 530 -68 callsubr
          endchar
        </CharString>
        <CharString name="colon">
          -371 0 97 237 97 hstem
          87 97 vstem
          184 383 3 callsubr
          -334 vmoveto
          41 callsubr
        </CharString>
        <CharString name="colonmonetary">
          102 callgsubr
          hstem
          54 93 228 28 221 28 vstem
          652 232 rmoveto
          11 0 6 -11 -10 -1 -5 -7 vhcurveto
          -159 -9 -116 -70 -97 hhcurveto
          -5 667 4 hlineto
          105 92 -89 -150 20 hvcurveto
          -12 2 0 -3 12 hhcurveto
          14 0 3 20 hvcurveto
          237 vlineto
          18 0 5 -10 -6 -1 -2 -10 -6 vhcurveto
          -49 -79 -43 54 -65 34 -69 3 rlinecurve
          7 vlineto
          121 callgsubr
          -8 -6 -6 -8 vhcurveto
          -8 vlineto
          -174 -11 -147 -153 -197 vvcurveto
          -199 148 -152 173 -11 vhcurveto
          -8 vlineto
          -8 6 -6 8 8 6 6 8 vhcurveto
          7 vlineto
          159 5 90 140 108 vvcurveto
          -277 -221 rmoveto
          -84 12 -144 65 254 vvcurveto
          253 144 65 84 13 vhcurveto
          endchar
        </CharString>
        <CharString name="comma">
          -371 -172 -21 193 97 hstem
          175 20 vstem
          195 -4 rmoveto
          62 -21 39 -39 -29 -19 -22 -26 -27 19 -22 30 15 11 7 5 6 vhcurveto
          3 3 2 0 0 0 2 -14 -5 vvcurveto
          -64 -26 -60 -44 -46 vhcurveto
          -4 -3 -1 -2 -4 vvcurveto
          -5 5 -5 5 9 76 74 115 vhcurveto
          endchar
        </CharString>
        <CharString name="copyleft">
          40 0 36 462 36 113 36 hstem
          0 36 159 36 416 36 vstem
          -66 callsubr
          -113 hmoveto
          118 -91 91 -106 -41 -39 -20 -33 -26 vhcurveto
          -28 46 rlineto
          6 -4 -1 1 -3 hhcurveto
          -6 0 -3 -11 hvcurveto
          -136 vlineto
          -12 0 -1 8 7 0 1 7 1 vhcurveto
          87 12 53 51 61 hhcurveto
          41 108 -25 -167 -168 -110 -25 -40 -56 -67 41 91 -5 hvcurveto
          4 -1 3 -5 -7 0 -3 -6 -64 54 -82 94 105 92 90 119 vhcurveto
          endchar
        </CharString>
        <CharString name="copyright">
          40 0 36 462 36 113 36 hstem
          0 36 611 36 vstem
          -66 callsubr
          -153 -63 rmoveto
          6 0 3 -6 -6 -1 -3 -4 vhcurveto
          -91 -5 -67 -41 -56 hhcurveto
          -40 -110 25 168 167 108 25 42 60 53 -51 -87 12 hvcurveto
          -7 1 0 -2 7 hhcurveto
          8 0 2 12 hvcurveto
          136 vlineto
          11 0 3 -6 -3 -1 -2 -5 -3 vhcurveto
          -28 -46 rlineto
          32 -26 -40 21 -41 hhcurveto
          -106 -91 -91 -118 -119 93 -90 104 94 54 82 64 hvcurveto
          endchar
        </CharString>
        <CharString name="copyright.alt">
          3 -107 36 573 36 hstem
          0 36 417 36 121 36 vstem
          646 215 rmoveto
          198 -125 125 -198 -198 -125 -125 -198 -198 125 -124 198 198 125 124 198 vhcurveto
          -36 hmoveto
          -176 -111 -110 -176 -176 -111 110 176 176 111 111 176 176 111 -111 -176 vhcurveto
          -112 -69 rmoveto
          7 0 4 -7 -6 -1 -3 -5 vhcurveto
          -100 -5 -73 -44 -62 hhcurveto
          -44 -120 27 183 183 118 27 46 66 58 -56 -94 13 hvcurveto
          -8 1 0 -2 7 hhcurveto
          9 0 2 13 hvcurveto
          149 vlineto
          11 0 4 -6 -4 0 -2 -6 -4 vhcurveto
          -31 -50 rlineto
          36 -28 -43 22 -46 hhcurveto
          -115 -100 -100 -129 -130 101 -98 114 104 58 90 69 hvcurveto
          endchar
        </CharString>
        <CharString name="currency">
          119 18 36 8 36 304 36 7 36 hstem
          149 36 7 36 305 36 7 36 vstem
          612 480 rmoveto
          -14 13 -12 -12 -10 -10 -76 -75 rcurveline
          26 -32 -42 16 -45 hhcurveto
          -46 -42 -16 -27 -32 hvcurveto
          -76 76 -10 10 -12 12 -13 -12 rlinecurve
          -13 -14 12 -12 10 -10 76 -76 rcurveline
          -27 -32 -16 -42 -45 vvcurveto
          -45 17 -42 26 -33 vhcurveto
          -76 -76 -10 -10 -12 -12 12 -13 rlinecurve
          14 -13 12 12 10 10 76 76 rcurveline
          -26 33 42 -16 45 hhcurveto
          45 41 16 26 33 hvcurveto
          76 -76 10 -10 12 -12 13 12 rlinecurve
          13 14 -12 12 -10 10 -76 76 rcurveline
          27 33 16 41 46 vvcurveto
          45 -16 42 -27 32 vhcurveto
          76 76 10 10 12 12 -12 13 rlinecurve
          -79 -230 rmoveto
          -84 -68 -68 -84 -84 -69 68 84 84 69 68 84 84 68 -68 -84 vhcurveto
          endchar
        </CharString>
        <CharString name="cwm">
          -643 endchar
        </CharString>
        <CharString name="cwmascender">
          -643 endchar
        </CharString>
        <CharString name="cwmcapital">
          -643 endchar
        </CharString>
        <CharString name="d">
          92 callgsubr
          213 40 hstemhm
          300 76 0 63 0 76 cntrmask 00001110
          hintmask 01111110
          -49 callsubr
          hintmask 10101110
          -32 callgsubr
          endchar
        </CharString>
        <CharString name="dagger">
          -199 -195 -21 613 67 241 -20 hstem
          164 67 -43 67 -43 67 cntrmask 00011100
          387 430 91 callgsubr
          20 1 28 11 65 rrcurveto
          5 37 6 37 37 vvcurveto
          8 0 33 -33 -34 0 -32 -9 -35 9 -58 4 -24 vhcurveto
          7 -46 3 -32 1 -29 42 callsubr
          -2 -25 -3 -20 -5 -25 rrcurveto
          -14 -72 0 -8 -53 vvcurveto
          -151 11 -168 9 -95 vhcurveto
          -14 1 1 -6 11 hhcurveto
          12 0 5 13 2 hvcurveto
          6 50 3 53 2 51 rrcurveto
          4 63 5 103 96 vvcurveto
          54 0 7 -14 71 vhcurveto
          -5 23 -3 21 -2 27 90 callsubr
          endchar
        </CharString>
        <CharString name="daggerdbl">
          -199 -184 -21 194 66 389 67 194 -20 hstem
          164 67 -43 67 -43 67 cntrmask 00001110
          387 477 91 callgsubr
          30 7 34 3 14 rrcurveto
          6 33 7 40 28 vvcurveto
          7 0 32 -34 -10 -23 -3 -36 -20 4 -29 7 -35 vhcurveto
          7 -41 5 -28 1 -26 42 callsubr
          -1 -30 -7 -34 -3 -14 rrcurveto
          -6 -33 -7 -40 -28 vvcurveto
          -35 22 -4 11 30 4 25 14 20 -4 29 -7 35 vhcurveto
          -7 41 -5 28 -1 26 90 callsubr
          -455 vmoveto
          17 -12 16 -21 -20 -17 -3 -8 -31 vhcurveto
          -26 -8 -7 -2 -22 -2 2 28 4 24 7 42 rrcurveto
          11 56 0 23 5 vvcurveto
          35 -22 4 -11 -30 -4 -25 -14 -29 8 -43 6 -34 vhcurveto
          3 -11 5 -31 2 -30 -23 2 -3 1 -40 11 rrcurveto
          9 -32 -17 0 -7 hhcurveto
          -25 -9 -20 -13 -15 10 -18 24 24 24 6 4 11 hvcurveto
          39 10 7 1 17 2 -2 -28 -4 -24 -7 -42 rrcurveto
          -11 -56 0 -23 -5 vvcurveto
          -35 22 -4 11 30 4 25 14 29 -8 43 -6 34 vhcurveto
          -3 11 -5 31 -2 30 23 -2 3 -1 40 -11 rrcurveto
          -9 33 18 0 5 hhcurveto
          24 10 18 15 hvcurveto
          endchar
        </CharString>
        <CharString name="dblbracketleft">
          -249 -249 37 926 37 hstem
          116 37 85 37 vstem
          372 -249 rmoveto
          37 -97 926 97 37 -256 -1000 vlineto
          122 37 rmoveto
          -85 926 85 hlineto
          endchar
        </CharString>
        <CharString name="dblbracketright">
          -249 -249 37 926 37 hstem
          118 37 85 37 vstem
          277 -249 rmoveto
          1000 -255 -37 96 -926 -96 -37 vlineto
          218 37 rmoveto
          -85 926 85 hlineto
          endchar
        </CharString>
        <CharString name="dblgrave.ts1">
          -154 537 -21 183 -20 hstem
          198 526 rmoveto
          15 callgsubr
          163 hmoveto
          15 callgsubr
          endchar
        </CharString>
        <CharString name="dblverticalbar">
          -257 131 callsubr
          68 40 vstem
          159 -217 rmoveto
          20 callsubr
          108 hmoveto
          20 callsubr
          endchar
        </CharString>
        <CharString name="dcaron">
          92 callgsubr
          57 -21 144 73 -40 40 hstemhm
          35 76 189 76 63 76 hintmask 0110011110000000
          -49 callsubr
          hintmask 1010011000000000
          -32 callgsubr
          182 295 134 callsubr
          hintmask 0001100000000000
          -20 15 -17 22 11 9 6 3 4 vhcurveto
          2 3 2 0 0 0 1 -11 -4 vvcurveto
          -48 -19 -45 -33 -34 vhcurveto
          -3 -2 -1 -2 -3 vvcurveto
          -4 4 -3 4 6 57 55 86 vhcurveto
          endchar
        </CharString>
        <CharString name="dcroat">
          92 callgsubr
          94 28 91 40 hstemhm
          300 76 0 63 0 76 cntrmask 00000111
          hintmask 01111111
          515 71 callgsubr
          450 76 28 -76 131 vlineto
          -139 -80 callgsubr
          -35 -158 -28 158 -158 vlineto
          29 -21 -43 35 -61 hhcurveto
          -116 -100 -98 -128 -127 95 -98 110 76 44 50 19 14 hvcurveto
          -69 vlineto
          127 vmoveto
          -18 0 -3 -14 -22 vhcurveto
          hintmask 10100111
          -32 callgsubr
          endchar
        </CharString>
        <CharString name="ddotbelow">
          92 callgsubr
          213 40 hstemhm
          35 76 113 97 -21 76 63 76 hintmask 01111011
          -49 callsubr
          hintmask 10101000
          -32 callgsubr
          hintmask 00000100
          -53 -475 -98 callgsubr
        </CharString>
        <CharString name="degree">
          -276 411 36 200 36 hstem
          48 36 200 36 vstem
          320 547 rmoveto
          75 -61 61 -75 -76 -60 -61 -75 -75 60 -61 76 75 61 61 75 vhcurveto
          -36 hmoveto
          -55 -45 -45 -55 -56 -44 45 55 56 44 44 56 55 45 -44 -56 vhcurveto
          endchar
        </CharString>
        <CharString name="diameter">
          119 -56 36 540 36 hstem
          75 36 540 36 vstem
          707 558 rmoveto
          10 -8 8 -10 -5 -4 -2 -3 -4 vhcurveto
          -92 -92 rlineto
          48 -54 -71 29 -78 hhcurveto
          -169 -137 -137 -169 -78 29 -71 48 -54 hvcurveto
          -93 -93 rlineto
          -3 -4 -2 -4 -5 vvcurveto
          -10 8 -8 10 5 4 2 3 4 vhcurveto
          93 93 rlineto
          -48 54 71 -29 78 hhcurveto
          169 137 137 169 78 -29 71 -48 54 hvcurveto
          92 92 rlineto
          3 4 2 4 5 vvcurveto
          -56 -308 rmoveto
          -149 -121 -121 -149 -68 -62 25 42 -48 vhcurveto
          381 381 rlineto
          42 -48 25 -62 -68 vvcurveto
          -92 203 rmoveto
          -381 -381 rlineto
          -42 48 -25 62 68 vvcurveto
          149 121 121 149 68 62 -25 -42 48 vhcurveto
          endchar
        </CharString>
        <CharString name="died">
          -154 -12 31 -23 -21 367 43 -37 31 224 -20 hstemhm
          212 62 -50 40 hintmask 00100000
          443 358 rmoveto
          11 vlineto
          9 -2 7 -11 vhcurveto
          hintmask 00010010
          -54 -57 -6 -55 hhcurveto
          hintmask 00001100
          64 3 64 7 63 vhcurveto
          1 6 2 7 6 vvcurveto
          8 -4 5 -7 1 vhcurveto
          -41 hlineto
          -7 -6 -3 -8 -15 3 -18 2 -16 hvcurveto
          hintmask 00010010
          5 -55 2 -54 -55 vvcurveto
          hintmask 00100000
          -55 -55 6 -55 hhcurveto
          -12 -2 -7 -10 hvcurveto
          -8 vlineto
          -9 2 -9 12 vhcurveto
          hintmask 00010010
          55 55 6 55 hhcurveto
          hintmask 10000100
          -116 -2 -118 -10 -115 vhcurveto
          -3 -1 -4 -4 vvcurveto
          hintmask 01000000
          -8 3 -5 11 vhcurveto
          38 hlineto
          7 6 3 9 hvcurveto
          6 vlineto
          hintmask 10000100
          9 -1 8 -1 9 vhcurveto
          hintmask 00010010
          -8 109 -2 111 109 vvcurveto
          hintmask 00100000
          55 55 -6 55 hhcurveto
          11 3 6 10 hvcurveto
          endchar
        </CharString>
        <CharString name="dieresis">
          561 87 hstem
          122 87 73 87 vstem
          -44 callsubr
          endchar
        </CharString>
        <CharString name="dieresis.cap">
          481 87 hstem
          108 87 101 87 vstem
          -8 callgsubr
          endchar
        </CharString>
        <CharString name="dieresis.dup">
          561 87 hstem
          122 87 73 87 vstem
          -44 callsubr
          endchar
        </CharString>
        <CharString name="dieresis.ts1">
          -154 573 92 hstem
          385 619 rmoveto
          21 -18 25 -27 vhcurveto
          -3 -2 -1 -3 hhcurveto
          -23 -16 -24 -20 -28 21 -19 31 hvcurveto
          24 4 16 20 22 vvcurveto
          -190 hmoveto
          23 -18 23 -27 -3 -5 -1 0 vhcurveto
          -22 -3 -16 -19 -23 vvcurveto
          -22 16 -24 28 26 21 20 26 vhcurveto
          endchar
        </CharString>
        <CharString name="discount">
          -154 11 114 -103 -21 626 114 10 -20 hstemhm
          83 113 96 113 hintmask 01010000
          433 731 rmoveto
          10 -6 10 -10 vhcurveto
          0 -4 0 -2 -1 vhcurveto
          -20 -6 -34 -92 -24 -47 -215 -447 rcurveline
          -60 -126 rlineto
          -2 -4 -2 -5 -5 vvcurveto
          -9 1 9 -8 9 hhcurveto
          2 hlineto
          16 3 9 28 3 8 186 386 rcurveline
          62 130 27 55 30 56 24 56 rlinecurve
          1 3 0 2 3 vvcurveto
          -28 -663 rmoveto
          hintmask 10101100
          -29 -21 -28 -34 vhcurveto
          -4 hlineto
          -35 -19 31 26 29 21 28 34 hvcurveto
          4 hlineto
          35 19 -31 -26 hvcurveto
          -209 616 rmoveto
          -32 -25 -25 -33 -34 -21 30 28 28 21 24 28 4 vhcurveto
          3 3 1 3 hhcurveto
          34 21 -30 -28 hvcurveto
          endchar
        </CharString>
        <CharString name="divide">
          119 59 97 76 37 76 97 hstem
          332 97 cntrmask 11100000
          707 250 rmoveto
          -1 callgsubr
          -278 144 3 callsubr
          -286 vmoveto
          41 callsubr
        </CharString>
        <CharString name="divorced">
          -154 -104 43 97 43 173 44 -43 43 127 43 -43 44 139 -20 hstemhm
          -185 44 354 62 354 44 cntrmask 0000000111000000
          hintmask 0000010111000000
          673 252 rmoveto
          105 -70 110 -104 vhcurveto
          hintmask 0110100111000000
          -4 -4 -1 -4 hhcurveto
          -101 -11 -53 -109 -95 vvcurveto
          -97 58 -118 108 vhcurveto
          11 hlineto
          103 10 60 107 99 vvcurveto
          -518 -2 rmoveto
          hintmask 0000010111000000
          96 -58 121 -108 vhcurveto
          hintmask 1110101111000000
          -4 -4 -1 -4 hhcurveto
          -103 -12 -59 -106 -98 vvcurveto
          -105 70 -109 105 vhcurveto
          10 hlineto
          100 11 55 107 96 vvcurveto
          121 -341 rmoveto
          10 0 10 -1 10 vhcurveto
          -8 89 1 88 -3 89 -1 91 rcurveline
          95 3 96 8 95 vhcurveto
          1 4 0 4 4 vvcurveto
          5 vlineto
          5 -2 -5 2 -5 hhcurveto
          -38 hlineto
          -3 -3 0 -1 -2 hvcurveto
          -5 -2 -1 -4 -5 -71 12 -70 -71 vvcurveto
          -73 vlineto
          -128 0 -129 -11 -127 vhcurveto
          -1 -5 -1 -6 -5 vvcurveto
          -8 5 -5 8 vhcurveto
          38 hlineto
          10 4 4 9 hvcurveto
          353 341 rmoveto
          -68 -30 -103 -100 -50 -44 31 44 -22 vhcurveto
          -15 28 -4 30 -3 31 rrcurveto
          7 vlineto
          79 45 94 93 87 43 -88 -85 vhcurveto
          -502 3 rmoveto
          -4 0 -3 -1 -4 vhcurveto
          -72 -5 -36 -91 -96 hhcurveto
          -91 -39 92 79 74 32 99 98 hvcurveto
          hintmask 0001000111000000
          90 48 -91 -79 hvcurveto
          endchar
        </CharString>
        <CharString name="dlinebelow">
          -99 -165 29 126 117 callsubr
          213 40 hstemhm
          35 76 189 76 63 76 hintmask 00111111
          -49 callsubr
          hintmask 01010100
          -32 callgsubr
          hintmask 10000000
          74 -488 -29 callsubr
        </CharString>
        <CharString name="dollar">
          674 29 -29 30 -29 29 hstem
          54 47 129 29 129 47 cntrmask 11111100
          435 194 rmoveto
          43 -12 52 -43 48 vhcurveto
          -37 41 -44 11 -40 10 rrcurveto
          276 vlineto
          73 -4 61 -36 15 -70 rrcurveto
          2 -9 -2 0 -3 hhcurveto
          -19 -23 -13 -29 -25 18 -16 23 20 22 10 36 87 -57 81 -119 6 hvcurveto
          46 -29 -47 vlineto
          -105 -8 -71 -86 -94 vvcurveto
          -55 23 -47 34 -34 vhcurveto
          36 -35 31 -8 52 -13 rrcurveto
          -304 vlineto
          -39 3 -91 16 -20 106 rrcurveto
          -1 3 7 -2 6 hhcurveto
          17 24 12 30 24 -17 17 -24 -20 -22 -10 -36 -91 54 -89 122 -8 hvcurveto
          -46 29 47 vlineto
          107 10 69 92 101 vvcurveto
          -205 213 rmoveto
          -129 26 0 95 13 vvcurveto
          60 46 64 83 9 vhcurveto
          158 -507 rmoveto
          -71 -50 -67 -79 -9 vhcurveto
          295 vlineto
          124 -25 5 -103 -20 vvcurveto
          endchar
        </CharString>
        <CharString name="dollar.oldstyle">
          -45 -55 84 -38 28 -26 29 -26 29 -25 29 113 84 85 29 144 84 103 29 -25 29 -28 28 47 -20 hstemhm
          54 47 -47 84 94 29 28 48 0 29 93 84 -47 47 -47 48 hintmask 000000001001000010000000
          544 532 rmoveto
          102 -93 59 -85 7 vhcurveto
          51 -29 vlineto
          hintmask 000101100011101010000000
          -47 -76 47 -29 -53 vlineto
          -85 -13 -93 -74 -96 vvcurveto
          -94 85 -57 80 -24 vhcurveto
          11 -3 2 -1 0 vvcurveto
          -311 vlineto
          -64 16 -74 28 -13 75 rrcurveto
          -1 5 6 -1 5 hhcurveto
          hintmask 000011000000010000000000
          26 15 20 22 24 -19 18 -23 -25 -17 -18 -30 -89 62 -65 95 -24 hvcurveto
          hintmask 000100000000001000000000
          9 -2 12 -2 0 vvcurveto
          hintmask 100000000000001000000000
          -51 29 vlineto
          hintmask 001000000000001000000000
          48 vlineto
          hintmask 010000000000000000000000
          0 24 -2 15 vhcurveto
          hintmask 001000000000000010000000
          14 23 2 0 hvcurveto
          hintmask 100000011000000010100000
          -48 29 54 vlineto
          92 14 85 86 97 vvcurveto
          89 -74 68 -78 26 vhcurveto
          -8 3 -8 3 -9 1 rrcurveto
          285 vlineto
          61 -4 67 -34 22 -67 rrcurveto
          1 -5 -6 1 -5 hhcurveto
          hintmask 000000010000000001000000
          -25 -16 -20 -22 -23 17 -19 24 hvcurveto
          hintmask 000000000010001100010000
          32 12 25 23 hvcurveto
          -207 -138 rmoveto
          -76 19 rlineto
          261 vlineto
          28 2 rlineto
          hintmask 000010000100101010100000
          48 -1 rlineto
          -105 -254 rmoveto
          -62 14 -69 41 73 vvcurveto
          65 85 46 46 8 vhcurveto
          264 -502 rmoveto
          -68 -71 -58 -59 -11 vhcurveto
          274 vlineto
          58 -24 72 -27 -86 vvcurveto
          -159 -143 rmoveto
          hintmask 010000000000000000000000
          0 -22 -4 -16 vhcurveto
          hintmask 001000100000001010000000
          -16 -22 3 0 hvcurveto
          308 vlineto
          76 -19 rlineto
          endchar
        </CharString>
        <CharString name="dong">
          -99 -28 28 656 28 hstem
          489 35 rmoveto
          27 vlineto
          -64 -8 7 46 hvcurveto
          428 72 27 -72 124 vlineto
          -132 -10 rlineto
          -28 vlineto
          65 7 -7 -46 hvcurveto
          -33 -150 -27 150 -150 vlineto
          27 -20 -41 34 -58 hhcurveto
          -110 -95 -93 -122 -121 90 -93 105 72 42 48 18 13 hvcurveto
          -66 vlineto
          134 -39 rmoveto
          121 callgsubr
          vhcurveto
          -428 hlineto
          -7 -7 -6 -8 -8 7 -6 7 hvcurveto
          428 hlineto
          8 6 6 8 hvcurveto
          -134 160 rmoveto
          -17 0 -3 -13 -21 vhcurveto
          -33 -23 -39 -28 -47 hhcurveto
          -25 -103 10 184 68 12 38 21 32 hvcurveto
          29 19 38 30 47 hhcurveto
          59 33 -43 -15 10 hvcurveto
          11 -16 0 -2 -17 vvcurveto
          endchar
        </CharString>
        <CharString name="dotaccent">
          -371 556 97 hstem
          88 97 vstem
          185 604 -98 callgsubr
        </CharString>
        <CharString name="dotaccent.alt">
          -371 88 97 vstem
          185 556 -98 callgsubr
        </CharString>
        <CharString name="dotaccent.cap">
          -371 481 97 hstem
          88 97 vstem
          185 529 -98 callgsubr
        </CharString>
        <CharString name="dotlessi">
          -14 callsubr
          hstemhm
          109 63 hintmask 10110000
          -39 callgsubr
          hintmask 11010000
          -81 callsubr
          endchar
        </CharString>
        <CharString name="dotlessj">
          -9 callgsubr
        </CharString>
        <CharString name="e">
          -48 callgsubr
          36 callsubr
          hintmask 11001000
          -86 callsubr
          hintmask 10111100
          22 2 0 19 101 -54 94 -121 -114 -88 -103 -124 -132 102 -97 111 119 45 108 21 128 callgsubr
          -238 hlineto
          157 8 88 18 28 hhcurveto
          107 6 -141 -34 1 hvcurveto
          endchar
        </CharString>
        <CharString name="eacute">
          -48 callgsubr
          106 -21 186 -89 callgsubr
          -7 413 -91 callgsubr
        </CharString>
        <CharString name="ebreve">
          -48 callgsubr
          92 35 137 -89 callgsubr
          18 439 -96 callgsubr
          endchar
        </CharString>
        <CharString name="ecaron">
          -48 callgsubr
          111 -21 176 -89 callgsubr
          25 427 -60 callsubr
        </CharString>
        <CharString name="ecircumflex">
          -48 callgsubr
          111 -21 176 -89 callgsubr
          25 279 -68 callsubr
          endchar
        </CharString>
        <CharString name="ecircumflexacute">
          -48 callgsubr
          111 -21 314 -89 callgsubr
          24 281 -70 callgsubr
        </CharString>
        <CharString name="ecircumflexdotbelow">
          -48 callgsubr
          111 127 callsubr
          30 76 64 97 78 62 hintmask 1100001000000000
          -86 callsubr
          hintmask 1011111010000000
          22 2 0 19 101 -54 94 -121 -114 -88 -103 -124 -132 102 -97 111 119 45 108 21 128 callgsubr
          -238 hlineto
          157 8 88 18 28 hhcurveto
          107 6 -141 -34 1 hvcurveto
          25 279 -68 callsubr
          hintmask 0000000100000000
          -90 -668 -98 callgsubr
        </CharString>
        <CharString name="ecircumflexgrave">
          -48 callgsubr
          111 -21 133 -89 callgsubr
          24 281 -73 callgsubr
        </CharString>
        <CharString name="ecircumflexhookabove">
          -48 callgsubr
          111 -21 344 -89 callgsubr
          24 281 -90 callgsubr
          51 278 -107 callgsubr
        </CharString>
        <CharString name="ecircumflextilde">
          -48 callgsubr
          111 -21 173 42 7 42 36 callsubr
          hintmask 1100000100000000
          -86 callsubr
          hintmask 1011000110000000
          22 2 0 19 101 -54 94 -121 -114 -88 -103 -124 -132 102 -97 111 119 45 108 21 128 callgsubr
          -238 hlineto
          157 8 88 18 28 hhcurveto
          107 6 -141 -34 1 hvcurveto
          hintmask 0000111000000000
          24 281 -90 callgsubr
          24 250 -106 callgsubr
        </CharString>
        <CharString name="edblgrave">
          -48 callgsubr
          107 -21 185 -89 callgsubr
          -9 271 -95 callgsubr
        </CharString>
        <CharString name="edieresis">
          -48 callgsubr
          135 87 hstemhm
          30 76 -11 87 73 87 3 62 hintmask 1100010000000000
          -86 callsubr
          hintmask 1011010010000000
          22 2 0 19 101 -54 94 -121 -114 -88 -103 -124 -132 102 -97 111 119 45 108 21 128 callgsubr
          -238 hlineto
          157 8 88 18 28 hhcurveto
          107 6 -141 -34 1 hvcurveto
          hintmask 0000101100000000
          -163 353 -64 callsubr
        </CharString>
        <CharString name="edotaccent">
          -48 callgsubr
          130 97 hstemhm
          30 76 64 97 78 62 hintmask 11000100
          -86 callsubr
          hintmask 10110101
          22 2 0 19 101 -54 94 -121 -114 -88 -103 -124 -132 102 -97 111 119 45 108 21 128 callgsubr
          -238 hlineto
          157 8 88 18 28 hhcurveto
          107 6 -141 -34 1 hvcurveto
          hintmask 00001010
          -78 353 -98 callgsubr
        </CharString>
        <CharString name="edotbelow">
          -48 callgsubr
          hstemhm
          30 76 64 97 78 62 hintmask 11001000
          -86 callsubr
          hintmask 10111010
          22 2 0 19 101 -54 94 -121 -114 -88 -103 -124 -132 102 -97 111 119 45 108 21 128 callgsubr
          -238 hlineto
          157 8 88 18 28 hhcurveto
          107 6 -141 -34 1 hvcurveto
          hintmask 00000100
          -78 -403 -98 callgsubr
        </CharString>
        <CharString name="egrave">
          -48 callgsubr
          106 -21 186 -89 callgsubr
          -66 276 -75 callsubr
        </CharString>
        <CharString name="ehookabove">
          -48 callgsubr
          94 -21 211 -89 callgsubr
          -32 393 -107 callgsubr
        </CharString>
        <CharString name="eight">
          -21 27 369 24 242 24 hstemhm
          41 66 callsubr
          448 -73 callsubr
        </CharString>
        <CharString name="eight.oldstyle">
          -90 -21 27 369 24 242 24 hstemhm
          73 66 callsubr
          480 -73 callsubr
        </CharString>
        <CharString name="eight.prop">
          -90 -21 27 369 24 242 24 hstemhm
          73 66 callsubr
          480 -73 callsubr
        </CharString>
        <CharString name="eight.taboldstyle">
          -21 27 369 24 242 24 hstemhm
          41 66 callsubr
          448 -73 callsubr
        </CharString>
        <CharString name="ellipsis">
          1 0 97 hstem
          88 97 89 97 89 97 cntrmask 01110000
          185 49 3 callsubr
          186 hmoveto
          -31 callsubr
          186 hmoveto
          41 callsubr
        </CharString>
        <CharString name="emacron">
          -48 callgsubr
          164 29 36 callsubr
          hintmask 11000100
          -86 callsubr
          hintmask 10110110
          22 2 0 19 101 -54 94 -121 -114 -88 -103 -124 -132 102 -97 111 119 45 108 21 128 callgsubr
          -238 hlineto
          157 8 88 18 28 hhcurveto
          107 6 -141 -34 1 hvcurveto
          hintmask 00001000
          49 339 -29 callsubr
        </CharString>
        <CharString name="emdash">
          336 277 -21 hstem
          0 978 vstem
          978 256 rmoveto
          20 -978 -20 vlineto
          endchar
        </CharString>
        <CharString name="emdash.alt">
          10 278 -21 hstem
          652 257 rmoveto
          20 -652 -20 vlineto
          endchar
        </CharString>
        <CharString name="endash">
          277 -21 hstem
          0 489 vstem
          489 256 rmoveto
          20 -489 -20 vlineto
          endchar
        </CharString>
        <CharString name="eng">
          -148 0 29 280 29 63 29 11 -20 25 callgsubr
          hintmask 01010100
          445 67 rmoveto
          176 vlineto
          93 0 28 -23 32 vhcurveto
          39 -29 -47 6 -34 hhcurveto
          -97 -38 -83 -20 -8 hvcurveto
          -1 103 hlineto
          hintmask 11101100
          -136 -80 callgsubr
          -271 -85 callgsubr
          26 54 0 28 hhcurveto
          29 54 0 -2 26 113 callgsubr
          186 vlineto
          105 69 56 62 62 14 -51 -61 vhcurveto
          -242 vlineto
          -100 0 -117 -49 -34 vhcurveto
          1 vlineto
          17 -14 15 -18 -17 -15 -15 -17 -18 15 -14 17 117 29 146 136 vhcurveto
          endchar
        </CharString>
        <CharString name="eogonek">
          95 callgsubr
          hstemhm
          30 76 71 45 21 62 40 62 hintmask 0011001000000000
          -86 callsubr
          hintmask 1110111111000000
          -10 callgsubr
          endchar
        </CharString>
        <CharString name="eogonekacute">
          95 callgsubr
          106 35 callgsubr
          30 76 71 45 21 62 40 62 hintmask 0011000010000000
          -86 callsubr
          hintmask 1110110011110000
          -10 callgsubr
          hintmask 0000001100000000
          -7 413 -91 callgsubr
        </CharString>
        <CharString name="equal">
          119 138 37 149 37 hstem
          54 653 vstem
          707 342 rmoveto
          -1 callgsubr
          -186 vmoveto
          -1 callgsubr
          endchar
        </CharString>
        <CharString name="ereversed">
          -48 callgsubr
          129 callsubr
          219 rmoveto
          124 -88 103 -114 -121 -54 -94 -101 -19 2 0 22 vhcurveto
          277 hlineto
          hintmask 11001100
          -19 vlineto
          -173 -101 -28 -42 -42 -67 23 84 -26 vhcurveto
          5 -2 -2 5 -8 hhcurveto
          -6 -5 -4 -6 -21 45 -108 119 111 102 97 132 hvcurveto
          -77 32 rmoveto
          hintmask 00101000
          -238 hlineto
          34 1 6 141 107 hhcurveto
          28 88 -18 -157 8 hvcurveto
          endchar
        </CharString>
        <CharString name="estimated">
          15 -9 22 686 -20 hstemhm
          27 93 416 86 -78 86 hintmask 10101000
          630 120 rmoveto
          6 -5 4 -6 -11 -6 -19 -8 -5 vhcurveto
          -72 -48 -99 -18 -80 hhcurveto
          -61 -57 23 43 -43 hvcurveto
          -71 70 -18 103 95 vvcurveto
          496 hlineto
          10 4 5 12 hvcurveto
          hintmask 11110000
          94 -22 104 -72 67 vhcurveto
          46 -50 -71 24 -69 hhcurveto
          -174 -145 -156 -196 -131 66 -130 128 -64 hvcurveto
          -20 41 45 -11 46 hhcurveto
          93 126 16 95 50 hvcurveto
          hintmask 00101000
          3 5 5 7 6 vvcurveto
          -86 246 rmoveto
          -424 hlineto
          4 110 27 128 114 57 rrcurveto
          12 24 27 6 27 hhcurveto
          81 61 -57 -80 32 hvcurveto
          21 -55 6 -62 -59 vvcurveto
          endchar
        </CharString>
        <CharString name="eth">
          -10 22 413 20 hstem
          29 77 276 77 vstem
          459 236 rmoveto
          41 0 84 -54 96 vhcurveto
          -38 68 -54 57 -64 41 76 44 rcurveline
          -15 25 -89 -51 -46 25 -50 19 -53 10 rlinecurve
          -6 -21 42 -14 38 -19 36 -23 rlinecurve
          -74 -43 15 -25 85 49 75 -58 56 -80 25 -94 rlinecurve
          34 -21 -40 44 -61 hhcurveto
          -110 -103 -99 -133 -125 98 -98 117 62 57 28 44 39 hvcurveto
          57 64 0 66 44 vvcurveto
          -77 -22 rmoveto
          -202 -129 0 -9 -42 -44 24 50 -27 vhcurveto
          -23 45 -2 60 31 vvcurveto
          34 2 58 25 43 vhcurveto
          55 33 49 13 28 hhcurveto
          77 62 -90 -121 hvcurveto
          endchar
        </CharString>
        <CharString name="etilde">
          -48 callgsubr
          133 42 7 42 -92 callsubr
          35 385 -106 callgsubr
        </CharString>
        <CharString name="eturned">
          -14 callgsubr
        </CharString>
        <CharString name="exclam">
          -371 0 97 83 21 514 -20 hstem
          87 97 vstem
          184 668 rmoveto
          32 -27 15 -21 -21 -31 -14 -42 3 vhcurveto
          36 -458 rlineto
          -17 1 2 -4 9 hhcurveto
          10 2 3 18 1 hvcurveto
          36 -152 rmoveto
          26 -22 22 -26 -28 -21 -22 -27 -26 22 -22 26 28 21 22 27 vhcurveto
          endchar
        </CharString>
        <CharString name="exclamdown">
          -371 -194 -21 535 -20 103 97 hstem
          87 97 vstem
          184 451 rmoveto
          28 -22 21 -27 -24 -24 -20 -29 -24 20 -24 29 26 22 22 26 vhcurveto
          -610 vmoveto
          -36 458 rlineto
          17 -1 -2 4 -9 hhcurveto
          -10 -2 -3 -18 -1 hvcurveto
          -36 -467 rlineto
          -32 27 -15 21 21 31 14 42 -3 vhcurveto
          endchar
        </CharString>
        <CharString name="f">
          -344 0 29 373 29 273 -20 -21 callgsubr
          326 113 29 -115 117 vlineto
          90 46 46 41 8 15 -2 -6 12 57 callsubr
          endchar
        </CharString>
        <CharString name="f_f">
          -72 0 29 373 29 273 -20 hstemhm
          104 63 145 63 0 63 92 79 hintmask 11111000
          609 638 rmoveto
          36 -35 30 -50 -40 -38 -18 -24 -25 vhcurveto
          37 -26 -56 5 -27 hhcurveto
          -96 -112 -52 -106 -2 callgsubr
          208 76 callsubr
          55 0 30 hhcurveto
          27 71 101 callsubr
          hintmask 01000110
          80 callsubr
          326 114 29 -116 117 vlineto
          86 44 50 44 15 14 -5 -3 6 57 callsubr
          -219 25 rmoveto
          -27 -5 -8 -19 -15 vvcurveto
          -17 9 -14 15 -6 vhcurveto
          -4 -15 0 -13 -11 vvcurveto
          -117 -210 113 vlineto
          102 85 38 60 7 44 0 -21 29 vhcurveto
          endchar
        </CharString>
        <CharString name="f_f_i">
          173 115 callsubr
          -81 40 96 -20 hstemhm
          104 63 209 63 209 63 cntrmask 0000000111000000
          hintmask 1001000111000000
          787 4 callgsubr
          368 vlineto
          -121 -8 rlineto
          hintmask 0100000111000000
          -6 -10 -1 -1 -2 hvcurveto
          hintmask 0010100111000000
          56 callsubr
          hvcurveto
          hintmask 0000011111000000
          18 24 12 31 51 -47 45 -77 hvcurveto
          hintmask 1010101111000000
          -73 -56 -27 -28 -32 hvcurveto
          35 -20 -42 20 -50 hhcurveto
          -93 -115 -51 -107 -2 callsubr
          157 vlineto
          hintmask 1100010111000000
          46 6 -13 -41 hvcurveto
          -274 -72 callsubr
          -390 649 rmoveto
          -44 -2 -34 -8 -17 10 -16 16 -6 hvcurveto
          -1 -7 0 -2 -13 vvcurveto
          hintmask 0010100111000000
          -115 -211 113 vlineto
          104 90 36 54 31 37 -10 -25 20 vhcurveto
          endchar
        </CharString>
        <CharString name="f_f_l">
          173 0 29 373 29 193 29 51 -20 hstem
          104 63 209 63 209 63 cntrmask 00001110
          787 -5 callsubr
          -1 -7 -21 -5 -6 hhcurveto
          0 -4 0 -5 3 vhcurveto
          13 -34 -31 0 -16 hhcurveto
          -82 -51 -30 -21 -25 hvcurveto
          28 -15 -40 23 -61 hhcurveto
          -97 -112 -52 -106 -2 callsubr
          209 -43 callgsubr
          -396 663 rmoveto
          -31 -5 -4 -26 -8 vvcurveto
          -13 5 -17 20 -7 vhcurveto
          -4 -11 -1 -19 -11 vvcurveto
          -115 -211 113 vlineto
          101 84 39 62 7 44 0 -21 29 vhcurveto
          257 -232 21 callgsubr
          -8 3 -17 17 -9 vhcurveto
          endchar
        </CharString>
        <CharString name="f_i">
          -99 115 callsubr
          55 -20 hstemhm
          104 63 146 63 0 63 hintmask 1001000010000000
          515 4 callgsubr
          368 vlineto
          -121 -8 rlineto
          hintmask 0100000000000000
          -6 -10 -1 -1 -2 hvcurveto
          hintmask 1010111100000000
          56 callsubr
          18 24 12 31 51 -47 45 -77 -91 -118 -50 -108 -2 callgsubr
          157 vlineto
          hintmask 1100000010000000
          46 6 -13 -41 hvcurveto
          -274 -72 callsubr
          endchar
        </CharString>
        <CharString name="f_k">
          158 0 29 154 29 24 29 137 29 273 -20 hstemhm
          104 63 209 63 -63 176 -145 176 -9 176 -154 176 hintmask 1010000100100000
          772 hmoveto
          29 vlineto
          -27 -31 0 41 -28 hvcurveto
          -134 195 -7 10 rlineto
          3 63 54 8 8 vhcurveto
          hintmask 1101111001000000
          69 60 44 1 21 1 rrcurveto
          29 vlineto
          -2 -20 -26 0 -30 hhcurveto
          -26 -51 0 2 -23 hvcurveto
          -29 vlineto
          17 -1 12 -9 -16 vvcurveto
          -20 -21 -18 0 vhcurveto
          -143 -126 rlineto
          482 vlineto
          -1 -7 -21 -5 -6 hhcurveto
          0 -4 0 -5 3 vhcurveto
          13 -34 -31 0 -16 hhcurveto
          -104 -107 -55 -103 -2 callgsubr
          209 -328 -82 callsubr
          hintmask 1000000010000000
          2 28 49 22 callsubr
          50 94 callsubr
          29 vlineto
          hintmask 0110001000100000
          -64 -12 0 45 hvcurveto
          109 vlineto
          61 53 96 -138 rlineto
          15 -21 7 -11 -14 vvcurveto
          hintmask 1001000010100000
          -18 -14 -5 -21 35 callsubr
          25 49 0 27 hhcurveto
          43 2 0 -2 43 hvcurveto
          -396 431 21 callgsubr
          hintmask 0001001000000000
          -8 3 -17 17 -9 vhcurveto
          endchar
        </CharString>
        <CharString name="f_l">
          -99 0 29 373 29 256 17 hstem
          104 63 209 63 vstem
          515 -5 callsubr
          -1 -7 -21 -5 -6 hhcurveto
          0 -4 0 -5 3 vhcurveto
          13 -34 -31 0 -16 hhcurveto
          -104 -107 -55 -103 -2 callgsubr
          209 -43 callgsubr
          -139 431 21 callgsubr
          -8 3 -17 17 -9 vhcurveto
          endchar
        </CharString>
        <CharString name="five">
          -21 16 callgsubr
          101 27 100 27 104 81 hintmask 0001010011000000
          440 -42 callsubr
        </CharString>
        <CharString name="five.oldstyle">
          -106 -215 16 callgsubr
          73 115 callgsubr
          464 -40 callgsubr
        </CharString>
        <CharString name="five.prop">
          -106 -21 16 callgsubr
          125 27 100 27 104 81 hintmask 0001010011000000
          464 -42 callsubr
        </CharString>
        <CharString name="five.taboldstyle">
          -215 16 callgsubr
          49 115 callgsubr
          440 -40 callgsubr
        </CharString>
</ttFont>
